<svg width="257" height="256" viewBox="0 0 257 256" fill="none" xmlns="http://www.w3.org/2000/svg">
<path d="M195.226 46.8114L242.037 0H239.111L192.3 46.8114H195.226ZM187.465 46.8114L234.277 0H231.431L184.62 46.8114H187.465ZM164.191 46.8114L211.003 0H208.384L161.573 46.8114H164.191ZM209.189 110.446L256 63.6343V59.9771L209.189 106.789V110.446ZM209.189 56.1371L256 9.32571V6.17326L209.189 52.9847V56.1371ZM179.705 46.8114L226.516 0H223.751L176.94 46.8114H179.705ZM202.986 46.8114L249.797 0H246.799L199.987 46.8114H202.986ZM209.189 87.157L256 40.3456V36.9079L209.189 83.7193V87.157ZM209.189 94.9175L256 48.1061V44.6171L209.189 91.4286V94.9175ZM209.189 102.678L256 55.8665V52.2752L209.189 99.0866V102.678ZM209.189 63.9122L256 17.1008V13.8825L209.189 60.6939V63.9122ZM209.189 71.68L256 24.8686V21.5771L209.189 68.3886V71.68ZM209.189 79.4331L256 32.6217V29.2571L209.189 76.0686V79.4331ZM171.944 46.8114L218.756 0H216.064L169.253 46.8114H171.944ZM86.6011 46.8114L133.413 0H131.54L84.7287 46.8114H86.6011ZM94.3543 46.8114L141.166 0H139.22L92.4087 46.8114H94.3543ZM102.115 46.8114L148.926 0H146.9L100.089 46.8114H102.115ZM78.8334 46.8114L125.645 0H123.845L77.0341 46.8114H78.8334ZM109.868 46.8114L156.679 0H154.587L107.776 46.8114H109.868ZM71.1022 46.8114L117.914 0H116.195L69.3833 46.8114H71.1022ZM117.658 46.8114L164.469 0H162.275L115.463 46.8114H117.658ZM148.692 46.8114L195.504 0H193.039L146.227 46.8114H148.692ZM140.932 46.8114L187.743 0H185.351L138.54 46.8114H140.932ZM125.418 46.8114L172.229 0H169.984L123.173 46.8114H125.418ZM156.453 46.8114L203.264 0H200.719L153.907 46.8114H156.453ZM133.178 46.8114L179.99 0H177.664L130.853 46.8114H133.178ZM62.3835 0L0 62.3835V63.5831L63.5831 0H62.3835ZM54.6962 0L0 54.6962V55.8226L55.8226 0H54.6962ZM63.3271 46.8114L110.139 0H108.485L61.6741 46.8114H63.3271ZM47.0162 0L0 47.0162V48.0622L48.0695 0H47.0162ZM39.3289 0L0 39.3289V40.309L40.309 0H39.3289ZM85.4089 0L0 85.4309V86.8571L86.8571 0H85.4089ZM209.189 118.192L256 71.3801V67.6425L209.189 114.454V118.192ZM77.7509 0L0 77.7509V79.0967L79.104 0H77.7509ZM0.90697 0L0 0.90697V1.51406L1.51406 0H0.90697ZM8.59429 0L0 8.59429V9.27451L9.27451 0H8.59429ZM31.6489 0L0 31.6489V32.5486L32.5486 0H31.6489ZM46.8114 209.189V207.674L0 254.486V256H1.55063L48.3621 209.189H46.8114ZM16.2816 0L0 16.2743V17.0057L17.0277 0H16.2816ZM23.9616 0L0 23.9616V24.7881L24.7881 0H23.9616ZM46.8114 46.8114H47.8062L94.6176 0H93.1182L0 93.1182V94.6176L46.8114 47.8062V46.8114ZM209.189 149.211L256 102.4V98.3771L209.189 145.189V149.211ZM209.189 141.451L256 94.6395V90.6971L209.189 137.509V141.451ZM209.189 156.972L256 110.16V106.057L209.189 152.869V156.972ZM209.189 133.698L256 86.8864V82.9952L209.189 129.807V133.698ZM209.189 164.732L256 117.921V113.73L209.189 160.541V164.732ZM209.189 125.967L256 79.1552V75.3371L209.189 122.149V125.967ZM254.486 0L207.674 46.8114H209.189V48.3621L256 1.55063V0H254.486ZM209.189 203.542L256 156.731V152.137L209.189 198.949V203.542ZM209.189 195.781L256 148.97V144.486L209.189 191.298V195.781ZM209.189 188.021L256 141.21V136.821L209.189 183.632V188.021ZM209.189 180.261L256 133.449V129.119L209.189 175.931V180.261ZM209.189 172.507L256 125.696V121.417L209.189 168.229V172.507ZM70.0709 0L0 70.0635V71.3435L71.3435 0H70.0709ZM175.923 209.189L129.112 256H133.449L180.261 209.189H175.923ZM198.949 209.189L152.137 256H156.694L203.505 209.189H198.949ZM160.527 209.189L113.715 256H117.906L164.718 209.189H160.527ZM152.869 209.189L106.057 256H110.168L156.979 209.189H152.869ZM191.283 209.189L144.472 256H148.963L195.774 209.189H191.283ZM183.589 209.189L136.777 256H141.166L187.977 209.189H183.589ZM168.229 209.189L121.417 256H125.674L172.485 209.189H168.229ZM114.439 209.189L67.6279 256H71.3655L118.177 209.189H114.439ZM106.789 209.189L59.9771 256H63.6343L110.446 209.189H106.789ZM145.211 209.189L98.3991 256H102.4L149.211 209.189H145.211ZM122.149 209.189L75.3371 256H79.1552L125.967 209.189H122.149ZM129.836 209.189L83.0245 256H86.9157L133.727 209.189H129.836ZM137.509 209.189L90.6971 256H94.6542L141.466 209.189H137.509ZM209.189 209.189H206.665L159.854 256H164.484L256 164.484V159.854L209.189 206.665V209.189ZM234.313 256L256 234.313V229.01L229.01 256H234.313ZM242.103 256L256 242.103V236.69L236.69 256H242.103ZM226.582 256L256 226.56V221.323L221.323 256H226.582ZM249.863 256L256.029 249.834V244.378L244.378 256H249.863ZM256.029 256V252.065L252.058 256H256.029ZM99.0866 209.189L52.2752 256H55.8592L102.671 209.189H99.0866ZM218.8 256L256 218.8V213.643L213.643 256H218.8ZM180.034 256L256 180.005V175.221L175.221 256H180.034ZM187.787 256L256 187.765V182.901L182.901 256H187.787ZM211.068 256L256 211.039V205.956L205.956 256H211.068ZM172.303 256L256 172.244V167.534L167.534 256H172.303ZM203.337 256L256 203.279V198.276L198.268 256H203.337ZM195.577 256L256 195.518V190.588L190.588 256H195.577ZM46.8114 192.307L0 239.119V242.044L46.8114 195.233V192.307ZM46.8114 123.151L0 169.962V172.208L46.8114 125.396V123.151ZM46.8114 100.096L0 146.907V148.926L46.8114 102.115V100.096ZM46.8114 107.783L0 154.595V156.687L46.8114 109.875V107.783ZM46.8114 115.463L0 162.275V164.469L46.8114 117.658V115.463ZM46.8114 138.518L0 185.329V187.721L46.8114 140.91V138.518ZM46.8114 130.831L0 177.642V179.931L46.8114 133.12V130.831ZM46.8114 69.3906L0 116.202V117.921L46.8114 71.1095V69.3906ZM46.8114 146.191L0 193.002V195.474L46.8114 148.663V146.191ZM46.8114 61.6667L0 108.478V110.124L46.8114 63.3125V61.6667ZM46.8114 53.9867L0 100.798V102.4L46.8114 55.5886V53.9867ZM46.8114 77.0341L0 123.845V125.645L46.8114 78.8334V77.0341ZM46.8114 84.7214L0 131.533V133.405L46.8114 86.5938V84.7214ZM46.8114 92.4014L0 139.213V141.166L46.8114 94.3543V92.4014ZM76.0686 209.189L29.2571 256H32.6217L79.4331 209.189H76.0686ZM68.3813 209.189L21.5698 256H24.8613L71.6727 209.189H68.3813ZM46.8114 199.987L0 246.799V249.79L46.8114 202.979V199.987ZM46.8114 153.907L0 200.719V203.264L46.8114 156.453V153.907ZM60.6647 209.189L13.8533 256H17.0715L63.883 209.189H60.6647ZM83.7193 209.189L36.9079 256H40.3456L87.157 209.189H83.7193ZM91.3993 209.189L44.5879 256H48.1061L94.9175 209.189H91.3993ZM52.9774 209.189L6.16594 256H9.31109L56.1225 209.189H52.9774ZM46.8114 161.565L0 208.377V210.995L46.8114 164.184V161.565ZM46.8114 169.253L0 216.064V218.756L46.8114 171.944V169.253ZM46.8114 176.94L0 223.751V226.516L46.8114 179.705V176.94ZM46.8114 184.62L0 231.431V234.277L46.8114 187.465V184.62ZM55.5886 46.8114L102.4 0H100.827L54.016 46.8114H55.5886Z" fill="url(#paint0_linear_326_16)"/>
<defs>
<linearGradient id="paint0_linear_326_16" x1="256.029" y1="256" x2="-4.34836e-08" y2="256" gradientUnits="userSpaceOnUse">
<stop stop-color="#FF007E"/>
<stop offset="1" stop-color="#5708D3"/>
</linearGradient>
</defs>
</svg>
