<svg width="256" height="257" viewBox="0 0 256 257" fill="none" xmlns="http://www.w3.org/2000/svg">
<path d="M106.084 75.1657L74.3154 106.934L75.4273 108.046L107.196 76.2776L106.084 75.1657Z" fill="url(#paint0_linear_326_21)"/>
<path d="M109.768 78.8606L77.9999 110.629L79.1515 111.781L110.92 80.0122L109.768 78.8606Z" fill="url(#paint1_linear_326_21)"/>
<path d="M102.399 71.4856L70.6308 103.254L71.7079 104.331L103.476 72.5627L102.399 71.4856Z" fill="url(#paint2_linear_326_21)"/>
<path d="M91.3384 60.4172L59.5701 92.1855L60.538 93.1535L92.3064 61.3851L91.3384 60.4172Z" fill="url(#paint3_linear_326_21)"/>
<path d="M95.018 64.1154L63.2497 95.8838L64.2573 96.8914L96.0257 65.1231L95.018 64.1154Z" fill="url(#paint4_linear_326_21)"/>
<path d="M98.7026 67.7873L66.9342 99.5557L67.9766 100.598L99.745 68.8297L98.7026 67.7873Z" fill="url(#paint5_linear_326_21)"/>
<path d="M228.329 4.54265L3.69158 229.18L5.05663 230.545L229.694 5.90769L228.329 4.54265Z" fill="url(#paint6_linear_326_21)"/>
<path d="M87.6468 56.7375L55.8785 88.5059L56.8117 89.4391L88.58 57.6707L87.6468 56.7375Z" fill="url(#paint7_linear_326_21)"/>
<path d="M224.637 0.849777L0 225.487L1.3303 226.817L225.967 2.18007L224.637 0.849777Z" fill="url(#paint8_linear_326_21)"/>
<path d="M232.018 8.22773L7.38114 232.865L8.78094 234.265L233.418 9.62752L232.018 8.22773Z" fill="url(#paint9_linear_326_21)"/>
<path d="M120.829 89.9157L89.0606 121.684L90.3165 122.94L122.085 91.1716L120.829 89.9157Z" fill="url(#paint10_linear_326_21)"/>
<path d="M124.521 93.6023L92.7523 125.371L94.0429 126.661L125.811 94.8928L124.521 93.6023Z" fill="url(#paint11_linear_326_21)"/>
<path d="M117.139 86.2307L85.3711 117.999L86.5922 119.22L118.361 87.4518L117.139 86.2307Z" fill="url(#paint12_linear_326_21)"/>
<path d="M113.46 82.5388L81.6915 114.307L82.8779 115.493L114.646 83.7251L113.46 82.5388Z" fill="url(#paint13_linear_326_21)"/>
<path d="M43.399 12.4797L11.6306 44.248L12.1369 44.7544L43.9053 12.986L43.399 12.4797Z" fill="url(#paint14_linear_326_21)"/>
<path d="M47.0835 16.1657L15.3152 47.9341L15.8562 48.4751L47.6246 16.7068L47.0835 16.1657Z" fill="url(#paint15_linear_326_21)"/>
<path d="M50.7701 19.8498L19.0018 51.6182L19.5776 52.194L51.3459 20.4256L50.7701 19.8498Z" fill="url(#paint16_linear_326_21)"/>
<path d="M235.703 11.9221L11.0657 236.559L12.5002 237.994L237.137 13.3566L235.703 11.9221Z" fill="url(#paint17_linear_326_21)"/>
<path d="M36.0178 5.10127L4.24947 36.8696L4.68132 37.3015L36.4497 5.53313L36.0178 5.10127Z" fill="url(#paint18_linear_326_21)"/>
<path d="M32.3333 1.41475L0.564896 33.1831L0.961998 33.5802L32.7304 1.81185L32.3333 1.41475Z" fill="url(#paint19_linear_326_21)"/>
<path d="M39.7074 8.79268L7.939 40.561L8.4056 41.0276L40.174 9.25928L39.7074 8.79268Z" fill="url(#paint20_linear_326_21)"/>
<path d="M54.4597 23.5564L22.6913 55.3247L23.3019 55.9353L55.0702 24.1669L54.4597 23.5564Z" fill="url(#paint21_linear_326_21)"/>
<path d="M72.8966 41.986L41.1282 73.7544L41.9175 74.5436L73.6858 42.7753L72.8966 41.986Z" fill="url(#paint22_linear_326_21)"/>
<path d="M58.1442 27.236L26.3759 59.0044L27.0212 59.6497L58.7895 27.8813L58.1442 27.236Z" fill="url(#paint23_linear_326_21)"/>
<path d="M76.5811 45.6648L44.8128 77.4331L45.6417 78.2621L77.4101 46.4937L76.5811 45.6648Z" fill="url(#paint24_linear_326_21)"/>
<path d="M80.2657 49.3586L48.4974 81.127L49.3611 81.9907L81.1294 50.2223L80.2657 49.3586Z" fill="url(#paint25_linear_326_21)"/>
<path d="M83.9573 53.0388L52.1889 84.8071L53.0874 85.7056L84.8557 53.9372L83.9573 53.0388Z" fill="url(#paint26_linear_326_21)"/>
<path d="M69.205 38.2888L37.4366 70.0571L38.1911 70.8116L69.9595 39.0433L69.205 38.2888Z" fill="url(#paint27_linear_326_21)"/>
<path d="M61.8358 30.9147L30.0675 62.6831L30.7525 63.3681L62.5208 31.5997L61.8358 30.9147Z" fill="url(#paint28_linear_326_21)"/>
<path d="M65.5204 34.6091L33.752 66.3774L34.4718 67.0972L66.2402 35.3288L65.5204 34.6091Z" fill="url(#paint29_linear_326_21)"/>
<path d="M179.829 148.905L148.061 180.673L149.893 182.505L181.661 150.737L179.829 148.905Z" fill="url(#paint30_linear_326_21)"/>
<path d="M216.708 185.783L184.94 217.552L187.129 219.741L218.897 187.972L216.708 185.783Z" fill="url(#paint31_linear_326_21)"/>
<path d="M220.393 189.476L188.624 221.245L190.848 223.468L222.616 191.7L220.393 189.476Z" fill="url(#paint32_linear_326_21)"/>
<path d="M227.764 196.848L195.995 228.616L198.289 230.909L230.057 199.141L227.764 196.848Z" fill="url(#paint33_linear_326_21)"/>
<path d="M224.084 193.156L192.316 224.924L194.574 227.183L226.343 195.414L224.084 193.156Z" fill="url(#paint34_linear_326_21)"/>
<path d="M205.642 174.725L173.874 206.493L175.954 208.573L207.722 176.805L205.642 174.725Z" fill="url(#paint35_linear_326_21)"/>
<path d="M209.327 178.405L177.558 210.173L179.673 212.288L211.441 180.52L209.327 178.405Z" fill="url(#paint36_linear_326_21)"/>
<path d="M213.018 182.098L181.25 213.866L183.404 216.021L215.173 184.252L213.018 182.098Z" fill="url(#paint37_linear_326_21)"/>
<path d="M249.89 218.976L218.122 250.745L220.633 253.256L252.402 221.488L249.89 218.976Z" fill="url(#paint38_linear_326_21)"/>
<path d="M246.206 215.285L214.437 247.054L216.914 249.531L248.682 217.762L246.206 215.285Z" fill="url(#paint39_linear_326_21)"/>
<path d="M201.956 171.033L170.187 202.802L172.232 204.847L204.001 173.078L201.956 171.033Z" fill="url(#paint40_linear_326_21)"/>
<path d="M253.573 222.659L221.805 254.427L224.227 256.85L255.995 225.081L253.573 222.659Z" fill="url(#paint41_linear_326_21)"/>
<path d="M238.829 207.913L207.061 239.681L209.464 242.084L241.232 210.315L238.829 207.913Z" fill="url(#paint42_linear_326_21)"/>
<path d="M235.145 204.226L203.376 235.995L205.744 238.362L237.513 206.594L235.145 204.226Z" fill="url(#paint43_linear_326_21)"/>
<path d="M231.448 200.535L199.68 232.303L202.013 234.636L233.781 202.868L231.448 200.535Z" fill="url(#paint44_linear_326_21)"/>
<path d="M242.514 211.592L210.746 243.361L213.183 245.798L244.951 214.03L242.514 211.592Z" fill="url(#paint45_linear_326_21)"/>
<path d="M183.521 152.602L151.752 184.37L153.619 186.237L185.387 154.468L183.521 152.602Z" fill="url(#paint46_linear_326_21)"/>
<path d="M161.387 130.474L129.619 162.242L131.272 163.895L163.04 132.127L161.387 130.474Z" fill="url(#paint47_linear_326_21)"/>
<path d="M165.079 134.169L133.311 165.937L134.998 167.625L166.767 135.856L165.079 134.169Z" fill="url(#paint48_linear_326_21)"/>
<path d="M198.266 167.348L166.498 199.116L168.508 201.127L200.276 169.358L198.266 167.348Z" fill="url(#paint49_linear_326_21)"/>
<path d="M168.768 137.854L137 169.622L138.723 171.345L170.491 139.576L168.768 137.854Z" fill="url(#paint50_linear_326_21)"/>
<path d="M243.079 19.2951L18.4419 243.932L19.9508 245.441L244.588 20.8041L243.079 19.2951Z" fill="url(#paint51_linear_326_21)"/>
<path d="M246.768 22.9724L22.1314 247.609L23.6751 249.153L248.312 24.5161L246.768 22.9724Z" fill="url(#paint52_linear_326_21)"/>
<path d="M250.455 26.6706L25.818 251.308L27.3965 252.886L252.033 28.2491L250.455 26.6706Z" fill="url(#paint53_linear_326_21)"/>
<path d="M254.14 30.3513L29.5026 254.988L31.1158 256.602L255.753 31.9645L254.14 30.3513Z" fill="url(#paint54_linear_326_21)"/>
<path d="M172.46 141.532L140.692 173.3L142.449 175.057L174.217 143.289L172.46 141.532Z" fill="url(#paint55_linear_326_21)"/>
<path d="M190.89 159.976L159.122 191.745L161.057 193.681L192.826 161.912L190.89 159.976Z" fill="url(#paint56_linear_326_21)"/>
<path d="M194.582 163.655L162.813 195.423L164.784 197.394L196.552 165.626L194.582 163.655Z" fill="url(#paint57_linear_326_21)"/>
<path d="M187.205 156.281L155.437 188.05L157.338 189.951L189.107 158.183L187.205 156.281Z" fill="url(#paint58_linear_326_21)"/>
<path d="M239.394 15.6013L14.7573 240.238L16.2315 241.713L240.869 17.0755L239.394 15.6013Z" fill="url(#paint59_linear_326_21)"/>
<path d="M176.145 145.226L144.376 176.995L146.168 178.787L177.937 147.018L176.145 145.226Z" fill="url(#paint60_linear_326_21)"/>
<defs>
<linearGradient id="paint0_linear_326_21" x1="107.196" y1="76.2776" x2="75.4273" y2="108.046" gradientUnits="userSpaceOnUse">
<stop stop-color="#FF007E"/>
<stop offset="1" stop-color="#5708D3"/>
</linearGradient>
<linearGradient id="paint1_linear_326_21" x1="110.92" y1="80.0122" x2="79.1515" y2="111.781" gradientUnits="userSpaceOnUse">
<stop stop-color="#FF007E"/>
<stop offset="1" stop-color="#5708D3"/>
</linearGradient>
<linearGradient id="paint2_linear_326_21" x1="103.476" y1="72.5627" x2="71.7079" y2="104.331" gradientUnits="userSpaceOnUse">
<stop stop-color="#FF007E"/>
<stop offset="1" stop-color="#5708D3"/>
</linearGradient>
<linearGradient id="paint3_linear_326_21" x1="92.3064" y1="61.3851" x2="60.538" y2="93.1535" gradientUnits="userSpaceOnUse">
<stop stop-color="#FF007E"/>
<stop offset="1" stop-color="#5708D3"/>
</linearGradient>
<linearGradient id="paint4_linear_326_21" x1="96.0257" y1="65.1231" x2="64.2573" y2="96.8914" gradientUnits="userSpaceOnUse">
<stop stop-color="#FF007E"/>
<stop offset="1" stop-color="#5708D3"/>
</linearGradient>
<linearGradient id="paint5_linear_326_21" x1="99.745" y1="68.8297" x2="67.9766" y2="100.598" gradientUnits="userSpaceOnUse">
<stop stop-color="#FF007E"/>
<stop offset="1" stop-color="#5708D3"/>
</linearGradient>
<linearGradient id="paint6_linear_326_21" x1="229.694" y1="5.90769" x2="5.05662" y2="230.545" gradientUnits="userSpaceOnUse">
<stop stop-color="#FF007E"/>
<stop offset="1" stop-color="#5708D3"/>
</linearGradient>
<linearGradient id="paint7_linear_326_21" x1="88.58" y1="57.6707" x2="56.8117" y2="89.4391" gradientUnits="userSpaceOnUse">
<stop stop-color="#FF007E"/>
<stop offset="1" stop-color="#5708D3"/>
</linearGradient>
<linearGradient id="paint8_linear_326_21" x1="225.967" y1="2.18007" x2="1.33029" y2="226.817" gradientUnits="userSpaceOnUse">
<stop stop-color="#FF007E"/>
<stop offset="1" stop-color="#5708D3"/>
</linearGradient>
<linearGradient id="paint9_linear_326_21" x1="233.418" y1="9.62752" x2="8.78093" y2="234.265" gradientUnits="userSpaceOnUse">
<stop stop-color="#FF007E"/>
<stop offset="1" stop-color="#5708D3"/>
</linearGradient>
<linearGradient id="paint10_linear_326_21" x1="122.085" y1="91.1716" x2="90.3165" y2="122.94" gradientUnits="userSpaceOnUse">
<stop stop-color="#FF007E"/>
<stop offset="1" stop-color="#5708D3"/>
</linearGradient>
<linearGradient id="paint11_linear_326_21" x1="125.811" y1="94.8928" x2="94.0428" y2="126.661" gradientUnits="userSpaceOnUse">
<stop stop-color="#FF007E"/>
<stop offset="1" stop-color="#5708D3"/>
</linearGradient>
<linearGradient id="paint12_linear_326_21" x1="118.361" y1="87.4518" x2="86.5922" y2="119.22" gradientUnits="userSpaceOnUse">
<stop stop-color="#FF007E"/>
<stop offset="1" stop-color="#5708D3"/>
</linearGradient>
<linearGradient id="paint13_linear_326_21" x1="114.646" y1="83.7251" x2="82.8779" y2="115.493" gradientUnits="userSpaceOnUse">
<stop stop-color="#FF007E"/>
<stop offset="1" stop-color="#5708D3"/>
</linearGradient>
<linearGradient id="paint14_linear_326_21" x1="43.9053" y1="12.986" x2="12.1369" y2="44.7544" gradientUnits="userSpaceOnUse">
<stop stop-color="#FF007E"/>
<stop offset="1" stop-color="#5708D3"/>
</linearGradient>
<linearGradient id="paint15_linear_326_21" x1="47.6246" y1="16.7068" x2="15.8562" y2="48.4751" gradientUnits="userSpaceOnUse">
<stop stop-color="#FF007E"/>
<stop offset="1" stop-color="#5708D3"/>
</linearGradient>
<linearGradient id="paint16_linear_326_21" x1="51.3459" y1="20.4256" x2="19.5776" y2="52.194" gradientUnits="userSpaceOnUse">
<stop stop-color="#FF007E"/>
<stop offset="1" stop-color="#5708D3"/>
</linearGradient>
<linearGradient id="paint17_linear_326_21" x1="237.137" y1="13.3566" x2="12.5002" y2="237.994" gradientUnits="userSpaceOnUse">
<stop stop-color="#FF007E"/>
<stop offset="1" stop-color="#5708D3"/>
</linearGradient>
<linearGradient id="paint18_linear_326_21" x1="36.4497" y1="5.53313" x2="4.68132" y2="37.3015" gradientUnits="userSpaceOnUse">
<stop stop-color="#FF007E"/>
<stop offset="1" stop-color="#5708D3"/>
</linearGradient>
<linearGradient id="paint19_linear_326_21" x1="32.7304" y1="1.81185" x2="0.961997" y2="33.5802" gradientUnits="userSpaceOnUse">
<stop stop-color="#FF007E"/>
<stop offset="1" stop-color="#5708D3"/>
</linearGradient>
<linearGradient id="paint20_linear_326_21" x1="40.174" y1="9.25928" x2="8.4056" y2="41.0276" gradientUnits="userSpaceOnUse">
<stop stop-color="#FF007E"/>
<stop offset="1" stop-color="#5708D3"/>
</linearGradient>
<linearGradient id="paint21_linear_326_21" x1="55.0702" y1="24.1669" x2="23.3019" y2="55.9353" gradientUnits="userSpaceOnUse">
<stop stop-color="#FF007E"/>
<stop offset="1" stop-color="#5708D3"/>
</linearGradient>
<linearGradient id="paint22_linear_326_21" x1="73.6858" y1="42.7753" x2="41.9175" y2="74.5436" gradientUnits="userSpaceOnUse">
<stop stop-color="#FF007E"/>
<stop offset="1" stop-color="#5708D3"/>
</linearGradient>
<linearGradient id="paint23_linear_326_21" x1="58.7895" y1="27.8813" x2="27.0212" y2="59.6497" gradientUnits="userSpaceOnUse">
<stop stop-color="#FF007E"/>
<stop offset="1" stop-color="#5708D3"/>
</linearGradient>
<linearGradient id="paint24_linear_326_21" x1="77.4101" y1="46.4937" x2="45.6417" y2="78.2621" gradientUnits="userSpaceOnUse">
<stop stop-color="#FF007E"/>
<stop offset="1" stop-color="#5708D3"/>
</linearGradient>
<linearGradient id="paint25_linear_326_21" x1="81.1294" y1="50.2223" x2="49.3611" y2="81.9907" gradientUnits="userSpaceOnUse">
<stop stop-color="#FF007E"/>
<stop offset="1" stop-color="#5708D3"/>
</linearGradient>
<linearGradient id="paint26_linear_326_21" x1="84.8557" y1="53.9372" x2="53.0874" y2="85.7056" gradientUnits="userSpaceOnUse">
<stop stop-color="#FF007E"/>
<stop offset="1" stop-color="#5708D3"/>
</linearGradient>
<linearGradient id="paint27_linear_326_21" x1="69.9595" y1="39.0433" x2="38.1911" y2="70.8116" gradientUnits="userSpaceOnUse">
<stop stop-color="#FF007E"/>
<stop offset="1" stop-color="#5708D3"/>
</linearGradient>
<linearGradient id="paint28_linear_326_21" x1="62.5208" y1="31.5997" x2="30.7525" y2="63.3681" gradientUnits="userSpaceOnUse">
<stop stop-color="#FF007E"/>
<stop offset="1" stop-color="#5708D3"/>
</linearGradient>
<linearGradient id="paint29_linear_326_21" x1="66.2402" y1="35.3288" x2="34.4718" y2="67.0972" gradientUnits="userSpaceOnUse">
<stop stop-color="#FF007E"/>
<stop offset="1" stop-color="#5708D3"/>
</linearGradient>
<linearGradient id="paint30_linear_326_21" x1="181.661" y1="150.737" x2="149.893" y2="182.505" gradientUnits="userSpaceOnUse">
<stop stop-color="#FF007E"/>
<stop offset="1" stop-color="#5708D3"/>
</linearGradient>
<linearGradient id="paint31_linear_326_21" x1="218.897" y1="187.972" x2="187.129" y2="219.741" gradientUnits="userSpaceOnUse">
<stop stop-color="#FF007E"/>
<stop offset="1" stop-color="#5708D3"/>
</linearGradient>
<linearGradient id="paint32_linear_326_21" x1="222.616" y1="191.7" x2="190.848" y2="223.468" gradientUnits="userSpaceOnUse">
<stop stop-color="#FF007E"/>
<stop offset="1" stop-color="#5708D3"/>
</linearGradient>
<linearGradient id="paint33_linear_326_21" x1="230.057" y1="199.141" x2="198.289" y2="230.909" gradientUnits="userSpaceOnUse">
<stop stop-color="#FF007E"/>
<stop offset="1" stop-color="#5708D3"/>
</linearGradient>
<linearGradient id="paint34_linear_326_21" x1="226.343" y1="195.414" x2="194.574" y2="227.183" gradientUnits="userSpaceOnUse">
<stop stop-color="#FF007E"/>
<stop offset="1" stop-color="#5708D3"/>
</linearGradient>
<linearGradient id="paint35_linear_326_21" x1="207.722" y1="176.805" x2="175.954" y2="208.573" gradientUnits="userSpaceOnUse">
<stop stop-color="#FF007E"/>
<stop offset="1" stop-color="#5708D3"/>
</linearGradient>
<linearGradient id="paint36_linear_326_21" x1="211.441" y1="180.52" x2="179.673" y2="212.288" gradientUnits="userSpaceOnUse">
<stop stop-color="#FF007E"/>
<stop offset="1" stop-color="#5708D3"/>
</linearGradient>
<linearGradient id="paint37_linear_326_21" x1="215.173" y1="184.252" x2="183.404" y2="216.02" gradientUnits="userSpaceOnUse">
<stop stop-color="#FF007E"/>
<stop offset="1" stop-color="#5708D3"/>
</linearGradient>
<linearGradient id="paint38_linear_326_21" x1="252.402" y1="221.488" x2="220.633" y2="253.256" gradientUnits="userSpaceOnUse">
<stop stop-color="#FF007E"/>
<stop offset="1" stop-color="#5708D3"/>
</linearGradient>
<linearGradient id="paint39_linear_326_21" x1="248.682" y1="217.762" x2="216.914" y2="249.531" gradientUnits="userSpaceOnUse">
<stop stop-color="#FF007E"/>
<stop offset="1" stop-color="#5708D3"/>
</linearGradient>
<linearGradient id="paint40_linear_326_21" x1="204.001" y1="173.078" x2="172.232" y2="204.847" gradientUnits="userSpaceOnUse">
<stop stop-color="#FF007E"/>
<stop offset="1" stop-color="#5708D3"/>
</linearGradient>
<linearGradient id="paint41_linear_326_21" x1="255.995" y1="225.081" x2="224.227" y2="256.85" gradientUnits="userSpaceOnUse">
<stop stop-color="#FF007E"/>
<stop offset="1" stop-color="#5708D3"/>
</linearGradient>
<linearGradient id="paint42_linear_326_21" x1="241.232" y1="210.315" x2="209.464" y2="242.084" gradientUnits="userSpaceOnUse">
<stop stop-color="#FF007E"/>
<stop offset="1" stop-color="#5708D3"/>
</linearGradient>
<linearGradient id="paint43_linear_326_21" x1="237.513" y1="206.594" x2="205.744" y2="238.362" gradientUnits="userSpaceOnUse">
<stop stop-color="#FF007E"/>
<stop offset="1" stop-color="#5708D3"/>
</linearGradient>
<linearGradient id="paint44_linear_326_21" x1="233.781" y1="202.868" x2="202.013" y2="234.636" gradientUnits="userSpaceOnUse">
<stop stop-color="#FF007E"/>
<stop offset="1" stop-color="#5708D3"/>
</linearGradient>
<linearGradient id="paint45_linear_326_21" x1="244.951" y1="214.03" x2="213.183" y2="245.798" gradientUnits="userSpaceOnUse">
<stop stop-color="#FF007E"/>
<stop offset="1" stop-color="#5708D3"/>
</linearGradient>
<linearGradient id="paint46_linear_326_21" x1="185.387" y1="154.468" x2="153.619" y2="186.237" gradientUnits="userSpaceOnUse">
<stop stop-color="#FF007E"/>
<stop offset="1" stop-color="#5708D3"/>
</linearGradient>
<linearGradient id="paint47_linear_326_21" x1="163.04" y1="132.127" x2="131.272" y2="163.895" gradientUnits="userSpaceOnUse">
<stop stop-color="#FF007E"/>
<stop offset="1" stop-color="#5708D3"/>
</linearGradient>
<linearGradient id="paint48_linear_326_21" x1="166.767" y1="135.856" x2="134.998" y2="167.625" gradientUnits="userSpaceOnUse">
<stop stop-color="#FF007E"/>
<stop offset="1" stop-color="#5708D3"/>
</linearGradient>
<linearGradient id="paint49_linear_326_21" x1="200.276" y1="169.358" x2="168.508" y2="201.127" gradientUnits="userSpaceOnUse">
<stop stop-color="#FF007E"/>
<stop offset="1" stop-color="#5708D3"/>
</linearGradient>
<linearGradient id="paint50_linear_326_21" x1="170.491" y1="139.576" x2="138.723" y2="171.345" gradientUnits="userSpaceOnUse">
<stop stop-color="#FF007E"/>
<stop offset="1" stop-color="#5708D3"/>
</linearGradient>
<linearGradient id="paint51_linear_326_21" x1="244.588" y1="20.8041" x2="19.9508" y2="245.441" gradientUnits="userSpaceOnUse">
<stop stop-color="#FF007E"/>
<stop offset="1" stop-color="#5708D3"/>
</linearGradient>
<linearGradient id="paint52_linear_326_21" x1="248.312" y1="24.5161" x2="23.6751" y2="249.153" gradientUnits="userSpaceOnUse">
<stop stop-color="#FF007E"/>
<stop offset="1" stop-color="#5708D3"/>
</linearGradient>
<linearGradient id="paint53_linear_326_21" x1="252.033" y1="28.2491" x2="27.3965" y2="252.886" gradientUnits="userSpaceOnUse">
<stop stop-color="#FF007E"/>
<stop offset="1" stop-color="#5708D3"/>
</linearGradient>
<linearGradient id="paint54_linear_326_21" x1="255.753" y1="31.9645" x2="31.1158" y2="256.602" gradientUnits="userSpaceOnUse">
<stop stop-color="#FF007E"/>
<stop offset="1" stop-color="#5708D3"/>
</linearGradient>
<linearGradient id="paint55_linear_326_21" x1="174.217" y1="143.289" x2="142.449" y2="175.057" gradientUnits="userSpaceOnUse">
<stop stop-color="#FF007E"/>
<stop offset="1" stop-color="#5708D3"/>
</linearGradient>
<linearGradient id="paint56_linear_326_21" x1="192.826" y1="161.912" x2="161.057" y2="193.681" gradientUnits="userSpaceOnUse">
<stop stop-color="#FF007E"/>
<stop offset="1" stop-color="#5708D3"/>
</linearGradient>
<linearGradient id="paint57_linear_326_21" x1="196.552" y1="165.626" x2="164.784" y2="197.394" gradientUnits="userSpaceOnUse">
<stop stop-color="#FF007E"/>
<stop offset="1" stop-color="#5708D3"/>
</linearGradient>
<linearGradient id="paint58_linear_326_21" x1="189.107" y1="158.183" x2="157.338" y2="189.951" gradientUnits="userSpaceOnUse">
<stop stop-color="#FF007E"/>
<stop offset="1" stop-color="#5708D3"/>
</linearGradient>
<linearGradient id="paint59_linear_326_21" x1="240.869" y1="17.0755" x2="16.2315" y2="241.713" gradientUnits="userSpaceOnUse">
<stop stop-color="#FF007E"/>
<stop offset="1" stop-color="#5708D3"/>
</linearGradient>
<linearGradient id="paint60_linear_326_21" x1="177.937" y1="147.018" x2="146.168" y2="178.787" gradientUnits="userSpaceOnUse">
<stop stop-color="#FF007E"/>
<stop offset="1" stop-color="#5708D3"/>
</linearGradient>
</defs>
</svg>
