<svg width="256" height="256" viewBox="0 0 256 256" fill="none" xmlns="http://www.w3.org/2000/svg">
<path d="M189.872 75.4249L223.035 42.2619C222.537 41.7061 222.032 41.1648 221.528 40.6235L188.401 73.7499C188.899 74.3058 189.389 74.8617 189.872 75.4249ZM178 64.0146L211.251 30.7712C210.725 30.3177 210.198 29.8715 209.664 29.4327L176.347 62.7493C176.903 63.1662 177.452 63.5904 178 64.0146ZM173.517 60.7451L206.994 27.2677L205.385 26.0315L171.805 59.6114C172.383 59.9771 172.954 60.3575 173.517 60.7451ZM182.213 67.562L215.34 34.4357C214.828 33.9529 214.309 33.4702 213.782 32.9728L180.619 66.1358C181.153 66.6258 181.687 67.0866 182.213 67.562ZM199.358 89.2343L233.326 55.2521C232.872 54.5865 232.404 53.9282 231.936 53.2773L198.144 87.04C198.561 87.7714 198.949 88.5029 199.358 89.2343ZM204.2 99.9058L239.309 64.7973C238.885 64.0658 238.446 63.3344 238.007 62.603L203.22 97.3531C203.564 98.1943 203.886 99.0354 204.2 99.8839V99.9058ZM201.94 94.4128L236.405 59.9479C235.966 59.2165 235.513 58.5435 235.059 57.856L200.836 92.0795C201.216 92.8256 201.589 93.6229 201.94 94.3909V94.4128ZM196.476 84.3557L230.064 50.7758C229.588 50.1467 229.113 49.525 228.601 48.9106L195.167 82.3589C195.613 83.0098 196.023 83.6681 196.476 84.3337V84.3557ZM193.309 79.7257L226.633 46.4018C226.15 45.8167 225.66 45.2389 225.17 44.661L191.927 77.9044C192.366 78.5262 192.856 79.1333 193.309 79.7257ZM132.988 46.9577L172.142 7.81166C171.571 7.59954 171.001 7.40206 170.43 7.20457L130.772 46.8553C131.518 46.8773 132.257 46.9138 132.988 46.9577ZM140.025 47.6891L177.737 10.0059C177.174 9.76457 176.611 9.53783 176.04 9.27451L137.911 47.3966C138.62 47.4843 139.323 47.5794 140.025 47.6818V47.6891ZM125.338 46.8553L166.349 5.85143L164.623 5.33211L122.982 46.9577C123.765 46.9138 124.555 46.8773 125.338 46.848V46.8553ZM116.875 47.5867L160.322 4.13989C159.744 3.98629 159.159 3.84731 158.581 3.70834L114.315 47.9744C115.163 47.7989 116.019 47.6745 116.875 47.5429V47.5867ZM146.542 48.9545L183.055 12.4343C182.499 12.1637 181.936 11.9077 181.372 11.6443L144.516 48.501C145.196 48.6181 145.869 48.7643 146.542 48.9253V48.9545ZM158.34 52.6629L193.17 17.8322C192.622 17.5104 192.073 17.1813 191.517 16.8667L156.453 51.9314L158.34 52.6629ZM168.755 57.7829L202.555 23.9835C202.021 23.5959 201.472 23.2521 200.931 22.8352L166.992 56.7808C167.585 57.0514 168.17 57.4025 168.755 57.7829ZM163.708 55.0766L197.954 20.8311L196.315 19.7486L161.88 54.1842C162.494 54.4475 163.109 54.7401 163.708 55.04V55.0766ZM152.627 50.6295L188.204 15.0528C187.655 14.7602 187.099 14.4603 186.544 14.1751L150.704 50.0151C151.333 50.1906 151.984 50.3881 152.627 50.5929V50.6295ZM70.5829 185.403L69.8514 184.635L36.747 217.732C37.259 218.251 37.7637 218.763 38.283 219.268L71.3801 186.171L70.5829 185.403ZM115.566 0.592455L0.592455 115.566C0.533941 116.195 0.47543 116.824 0.42423 117.46L117.453 0.43154L115.566 0.592455ZM106.708 1.76275L1.76275 106.708C1.65303 107.366 1.54332 108.017 1.44092 108.676L108.683 1.46286C108.017 1.536 107.366 1.65303 106.708 1.76275ZM97.0167 3.77417L3.77417 97.0094C3.60595 97.7408 3.4304 98.3991 3.26949 99.0939L99.0866 3.2768C98.3991 3.42309 97.7042 3.59863 97.0167 3.77417ZM123.772 0.0658259L0.0658259 123.772L0 125.616L125.616 0C125.001 0 124.387 0.0219402 123.772 0.0658259ZM54.6597 23.0766L23.0766 54.6597C22.1013 56.0152 21.1749 57.3903 20.2971 58.7849L58.7922 20.2971C57.3928 21.1992 56.0152 22.1257 54.6597 23.0766ZM131.46 0.0365737L0.0438839 131.482C0.0438839 132.089 0.0877725 132.688 0.109715 133.288L133.288 0.109715L131.46 0.0365737ZM206.065 105.743L241.993 69.8149C241.591 69.0249 241.174 68.2423 240.757 67.4597L205.275 102.985C205.568 103.899 205.846 104.821 206.109 105.743H206.065ZM107.191 49.4811L154.002 2.66972L152.247 2.32594L104.243 50.3369C105.238 50.0078 106.211 49.7371 107.191 49.4811ZM73.077 12.3465L12.3685 73.0551C11.9515 73.9328 11.5419 74.8105 11.1397 75.7029L75.7248 11.1177C74.8325 11.5127 73.9547 11.9223 73.077 12.3465ZM86.0891 7.0144L7.0144 86.0818C6.7584 86.8133 6.50971 87.5886 6.28297 88.3419L88.3419 6.26103C87.5886 6.5024 86.8352 6.7584 86.0891 7.0144ZM208.655 118.711L246.879 80.4571C246.528 79.5721 246.148 78.6871 245.789 77.8094L208.216 115.383C208.384 116.509 208.53 117.606 208.655 118.711ZM208.969 133.917L250.88 92.021C250.595 91.0263 250.288 90.0315 249.973 89.0441L209.189 129.836C209.13 131.204 209.064 132.564 208.969 133.917ZM209.159 125.967L248.986 86.1403C248.664 85.1944 248.327 84.2581 247.976 83.3316L208.984 122.324C209.064 123.538 209.13 124.752 209.189 125.967H209.159ZM207.616 111.996L244.56 75.0446C244.18 74.2107 243.792 73.3769 243.397 72.5504L206.95 108.983C207.192 109.985 207.411 110.987 207.616 111.996ZM207.835 142.804L252.489 98.187C252.233 97.1264 251.97 96.0658 251.692 95.0199L208.538 138.174C208.357 139.715 208.123 141.258 207.835 142.804ZM205.21 153.19L253.842 104.594C253.637 103.468 253.411 102.341 253.177 101.23L206.819 147.58C206.351 149.445 205.817 151.333 205.21 153.19ZM138.759 0.446172L0.446172 138.759C0.497372 139.359 0.548573 139.952 0.607087 140.551L140.551 0.607087L138.759 0.446172ZM199.322 166.839L254.91 111.25C254.757 110.043 254.574 108.851 254.384 107.659L203.096 158.954C201.981 161.648 200.721 164.28 199.322 166.839ZM185.424 70.5829L186.156 71.3655L219.253 38.2683C218.748 37.749 218.236 37.237 217.724 36.7323L184.62 69.8368L185.424 70.5829ZM158.954 203.096L107.666 254.384C108.859 254.574 110.051 254.749 111.258 254.903L166.846 199.314C164.287 200.719 161.652 201.981 158.954 203.096ZM129.836 209.189L89.0441 249.98C90.0315 250.295 91.0263 250.602 92.021 250.887L133.91 208.998C132.557 209.064 131.204 209.13 129.836 209.189ZM138.116 208.589L94.9614 251.743C96.0073 252.021 97.0679 252.284 98.1211 252.54L142.775 207.887C141.253 208.121 139.703 208.369 138.116 208.56V208.589ZM92.0357 200.865L57.8121 235.088L59.904 236.434L94.3689 201.969C93.6229 201.589 92.8256 201.216 92.0576 200.836L92.0357 200.865ZM122.302 209.013L83.3316 247.954C84.2581 248.305 85.1944 248.642 86.1403 248.964L125.967 209.189C124.745 209.13 123.538 209.072 122.324 208.984L122.302 209.013ZM102.963 205.305L67.4377 240.83C68.2203 241.247 69.003 241.664 69.7929 242.066L105.721 206.139C104.814 205.846 103.899 205.568 102.985 205.275L102.963 205.305ZM97.3312 203.249L62.5371 238.043C63.2686 238.482 64 238.921 64.7314 239.338L99.84 204.229C99.0354 203.886 98.1943 203.564 97.3531 203.22L97.3312 203.249ZM115.39 208.245L77.8386 245.76C78.7163 246.133 79.6014 246.491 80.4864 246.85L118.711 208.625C117.606 208.53 116.509 208.384 115.412 208.216L115.39 208.245ZM108.983 206.95L72.5431 243.397C73.3696 243.792 74.2034 244.18 75.0373 244.56L111.982 207.616C110.987 207.419 109.985 207.192 108.983 206.95ZM147.529 206.826L101.179 253.177C102.298 253.411 103.424 253.637 104.55 253.842L153.183 205.217C151.325 205.817 149.445 206.358 147.536 206.826H147.529ZM172.398 248.079L248.079 172.398C248.927 170.096 249.712 167.765 250.434 165.405L165.405 250.434C167.775 249.717 170.103 248.932 172.39 248.079H172.398ZM186.222 242.015L242.022 186.214C243.485 183.347 244.843 180.421 246.096 177.437L177.437 246.104C180.414 244.838 183.347 243.485 186.214 242.015H186.222ZM208.457 227.54L227.54 208.457C231.523 203.529 235.139 198.314 238.358 192.856L192.841 238.373C198.309 235.155 203.529 231.534 208.457 227.54ZM161.046 251.677L251.677 161.031C252.204 159.047 252.691 157.047 253.14 155.034L155.063 253.125C157.045 252.687 159.049 252.211 161.031 251.677H161.046ZM255.832 121.585L121.578 255.832C122.953 255.905 124.328 255.941 125.711 255.963L256 125.711C255.941 124.343 255.898 122.953 255.832 121.585ZM129.119 256C130.582 256 132.096 255.949 133.566 255.89L255.861 133.595C255.924 132.133 255.963 130.648 255.978 129.141L129.119 256ZM255.269 114.454L192.731 177.006C190.487 179.97 188.043 182.778 185.417 185.41C182.783 188.034 179.975 190.477 177.013 192.724L114.454 255.269C115.727 255.4 117.007 255.517 118.287 255.612L255.627 118.287C255.532 117.029 255.415 115.727 255.269 114.454ZM151.033 253.923L253.923 151.033C254.237 149.27 254.523 147.493 254.764 145.701L145.701 254.771C147.485 254.537 149.27 254.245 151.033 253.923ZM141.963 255.269L255.269 141.963C255.444 140.361 255.583 138.745 255.7 137.121L137.114 255.664C138.737 255.551 140.354 255.42 141.963 255.269ZM51.9314 156.453L16.8229 191.517C17.1447 192.073 17.4665 192.622 17.7957 193.17L52.6629 158.34C52.3922 157.711 52.1509 157.082 51.9314 156.453ZM47.4185 137.911L9.31109 176.004C9.53783 176.567 9.76457 177.137 10.0425 177.701L47.7184 140.025C47.5794 139.323 47.4843 138.62 47.4039 137.911H47.4185ZM48.4937 144.494L11.6297 181.394C11.8857 181.957 12.149 182.513 12.4123 183.077L48.9253 146.564C48.7717 145.869 48.6181 145.196 48.4791 144.516L48.4937 144.494ZM46.8699 130.75L7.20457 170.423C7.40206 170.993 7.59954 171.571 7.81166 172.134L46.9577 132.988C46.9138 132.25 46.8773 131.511 46.8553 130.772L46.8699 130.75ZM95.2832 53.621L147.456 1.46286C146.864 1.36777 146.271 1.29463 145.679 1.21417L91.4286 55.4496C92.7013 54.8133 93.9813 54.2135 95.2686 53.643L95.2832 53.621ZM50.0078 150.674L14.1678 186.514C14.4603 187.077 14.7529 187.626 15.0455 188.182L50.6222 152.605C50.3881 151.984 50.1906 151.333 50.0078 150.674ZM55.4496 91.4286L1.21417 145.679C1.29463 146.271 1.37509 146.864 1.46286 147.449L53.643 95.2686C54.2135 93.9813 54.8133 92.7013 55.4496 91.4286ZM50.3296 104.258L2.304 152.276C2.41372 152.861 2.52343 153.446 2.64777 154.024L49.4592 107.213C49.7371 106.211 50.0151 105.238 50.3077 104.272L50.3296 104.258ZM47.9671 114.3L3.65714 158.581C3.80343 159.159 3.9424 159.737 4.08868 160.315L47.5355 116.868C47.6745 116.012 47.8062 115.163 47.9451 114.315L47.9671 114.3ZM46.9797 122.968L5.31748 164.623C5.49303 165.2 5.66126 165.778 5.84411 166.349L46.848 125.338C46.8773 124.548 46.9138 123.765 46.9577 122.982L46.9797 122.968ZM66.187 180.604L33.024 213.767C33.4994 214.294 33.9822 214.806 34.4869 215.325L67.6133 182.199C67.0939 181.687 66.6258 181.153 66.165 180.619L66.187 180.604ZM73.7719 188.387L40.6455 221.513L42.2839 223.02L75.4469 189.857C74.8617 189.389 74.3058 188.899 73.7499 188.401L73.7719 188.387ZM87.04 198.144L53.2553 231.929C53.9063 232.397 54.5719 232.858 55.2302 233.318L89.2343 199.358C88.5029 198.949 87.7714 198.561 87.04 198.144ZM77.9044 191.912L44.6537 225.163C45.2315 225.653 45.8094 226.15 46.3945 226.626L79.7257 193.309C79.1333 192.856 78.5262 192.366 77.9264 191.912H77.9044ZM82.3369 195.167L48.8667 228.63C49.4811 229.113 50.1102 229.588 50.7319 230.093L84.3191 196.506C83.6681 196.023 83.0098 195.613 82.3589 195.167H82.3369ZM54.1477 161.88L19.7486 196.308C20.0923 196.857 20.48 197.405 20.8018 197.947L55.0473 163.701C54.7401 163.109 54.4549 162.487 54.1696 161.88H54.1477ZM62.7566 176.347L29.4327 209.664C29.8813 210.2 30.3275 210.727 30.7712 211.244L64.0219 178C63.5904 177.452 63.1662 176.903 62.7566 176.347ZM56.7442 166.985L22.8059 200.931C23.1765 201.472 23.5569 202.013 23.947 202.555L57.7829 168.755C57.4025 168.17 57.0514 167.578 56.7442 166.985ZM59.6114 171.805L26.0389 205.378C26.4485 205.919 26.8507 206.46 27.2677 206.987L60.7451 173.517C60.3575 172.946 59.9771 172.376 59.6114 171.805Z" fill="var(--color-green)"/>
</svg>
