<svg fill="none" xmlns="http://www.w3.org/2000/svg" viewBox="0 0 650 281">
  <mask id="a" style="mask-type:luminance" maskUnits="userSpaceOnUse" x="0" y="0" width="651" height="281">
    <path fill-rule="evenodd" clip-rule="evenodd" d="M92.057.069a10.977 10.977 0 0 1 8.078 2.34c.805.587 1.596 1.198 2.397 1.796l2.908 3.009c5.85 7.422 10.334 15.63 12.426 25.151.841 3.828 1.453 7.715 2.168 11.574a.932.932 0 0 0 .298 1c3.227 10.16 3.688 20.667 3.974 31.194l.053 1.974.017.658.035 1.316c.024.877.05 1.754.077 2.631a81.747 81.747 0 0 1 0 4.852 33.423 33.423 0 0 0 1.659 11.314c2.409 7.588 2.474 15.517 2.42 23.429l-.015 2.156v.539c-.022 3.229-.158 6.459-.241 9.689-.03.36-.026.722.013 1.081.716.135 1.022-.419 1.27-1.013l1.718-1.51c.932 0 1.864 0 1.659-1.463l.105-.888c.438-3.701.879-7.4 2.305-10.872.184-.446.272-1.027.747-1.1.531-.081.7.507.898.937.492 1.078.984 2.157 1.475 3.238a8.263 8.263 0 0 0 .955 2.89c1.173 4.827 2.496 9.614 3.281 14.541a4.158 4.158 0 0 0 .691 2.804v-2.813c.212-4.319.084-8.633-.08-12.947l-.093-2.353c-.151-3.921-.286-7.843-.177-11.767l.029-1.075.04-1.614c.112-4.483.285-8.968 1.475-13.303a29.806 29.806 0 0 1 2.919-6.91c.399-.695.851-.83 1.464-.35.777.297.83-.103.845-.532l.004-.117a1.104 1.104 0 0 1 .087-.461c1.205-1.665 1.356-3.888 2.858-5.474 2.957-3.132 3.54-3.3 6.923-.742a3.17 3.17 0 0 0 1.08 1.566c3.745 7.582 4.701 15.786 4.643 24.191-.054 7.354-.265 14.707-.324 22.062-.059 7.191-.053 14.387 1.239 21.493-.036.468-.196.981.4 1.211.921.068 1.078-.51 1.154-1.105l.018-.156c.016-.195.045-.389.087-.58 1.082-4.151 1.237-8.502 2.081-12.667a183.52 183.52 0 0 0 2.826-22.54c.651-8.502 2.982-16.535 4.622-24.762.014-.53.09-1.055.226-1.567.491-1.024 1.05-2.642 1.942-2.565 1.056.093.661 1.724.684 2.705.207 8.733.276 17.469-.068 26.197-.622 15.988-1.907 31.928-3.198 47.864-.913 11.268-1.583 22.543-1.83 33.85a205.12 205.12 0 0 0 .578 23.032v3.041a3.247 3.247 0 0 0 .883-2.559c1.44-6.524 2.304-13.157 3.109-19.791.545-4.515.586-9.098 1.148-13.608.785-6.304.32-12.669.909-18.935.509-5.415.98-10.871 1.807-16.255.615-4.002.575-8.052 1.234-12.069 1.707-10.392 2.12-20.947 2.683-31.459.306-5.772 1.36-11.455 1.428-17.235.086-7.235 1.726-14.306 1.97-21.523v-.307c0-.364.05-.674.602-.677.884-.005.904.726.986 1.335a2227.2 2227.2 0 0 1 1.903 14.55c.192 1.515.289 3.04.478 5.087a17.443 17.443 0 0 0 1.446-4.475l.335-1.014a81.123 81.123 0 0 1 5.548-12.948c2.133-3.77 4.566-7.214 8.979-8.144l2.305.092c5.544 2.195 7.451 7.408 8.989 12.742 2.418 8.384 3.205 17.136 4.672 25.729.008.295-.103.732.425.405 1.779-.126 1.02 1.82 1.8 2.51l.196 1.035a84.549 84.549 0 0 1 1.619 20.888 19.89 19.89 0 0 0 1.759 8.711 11.836 11.836 0 0 0 1.537-5.953c.06-1.43.311-2.846.746-4.211l.21-.743c.388-1.23.649-2.495.781-3.778.029-.401.238-.85.661-.843.53.01.659.581.881.994 2.476 4.607 3.497 9.717 4.388 14.844.592 3.409.89 6.874 1.319 10.319v3.155a6.846 6.846 0 0 0 .89-3.888c.934-3.778 1.936-7.515 4.591-10.423l.885.04c2.411 7.501 3.411 15.28 4.174 23.125.533 4.04.849 8.106.946 12.18-.101 7.619.695 15.24.019 22.849-.124 1.401-.169 2.731 1.268 3.551a3.774 3.774 0 0 0 4.288-.057 13.572 13.572 0 0 0 4.855-6.205c.49-.402.807-.976.885-1.605 2.596-4.545 4.517-9.085 3.939-14.82a51.942 51.942 0 0 1 .32-10.554l.124-1.178c.207-1.962.414-3.925.519-5.885.346-6.516 2.112-12.776 2.773-19.208a61.926 61.926 0 0 1 2.326-10.761l.358-1.239c.598-2.064 1.198-4.126 1.707-6.214a24.94 24.94 0 0 1 5.288-10.485c1.594-1.81 3.381-2.962 5.796-2.626l1.281.679c3.972 3.512 5.841 8.254 7.391 13.147l.209.668c.347 1.115.681 2.235 1.024 3.347 2.922 9.489 4.308 19.439 7.383 28.885a16.16 16.16 0 0 0 1.272 3.025c1.014 1.775 2.338 1.843 3.284.06 1.084-2.044 1.936-4.232 2.845-6.379.271-.644.54-1.292.806-1.942l.267-.65.269-.649c2.023-4.869 4.232-9.66 8.591-12.898l.899-.266c2.59-.149 4.264 1.356 5.459 3.577 2.082 3.869 2.853 8.161 3.628 12.492 1.635 9.137-1.444 17.026-4.815 24.851l-.294.68-.148.34-.295.679-.737 1.701c-1.247 2.9-2.603 5.747-3.908 8.619l-.521.011.027.12c-.143 1.8.116 3.659 1.631 4.505l.138.072c1.794.884 3.687.4 5.277-1.062 3.019-2.783 5.033-6.357 6.943-9.976 1.014-1.91 2.141-3.731 3.283-5.541l.98-1.551c.489-.777.973-1.557 1.446-2.344a25.576 25.576 0 0 1 4.964-6.092c2.95-2.61 4.814-2.049 6.077 1.727 1.36 4.06 2.509 8.223 4.201 12.124 1.047 2.415 2.489 5.061 5.814 4.663a.737.737 0 0 0 .913-.379c1.785-.745 2.896-2.26 3.969-3.805l.268-.386c2.177-3.141 4.325-6.302 7.243-8.763 2.418-2.04 4.36-2.142 6.961-.227 8.357 6.152 17.738 9.91 27.361 13.105.221.049.446.073.672.072a.834.834 0 0 0 .937.264c1.292.52 2.68.762 4.073.712a.795.795 0 0 0 .945.146c2.548.461 5.156.481 7.711.058a2.233 2.233 0 0 0 1.852-.214 4.03 4.03 0 0 0 2.249-.266.867.867 0 0 0 .942-.213l1.34-.216a.858.858 0 0 0 .948-.237 1.64 1.64 0 0 0 1.328-.276.857.857 0 0 0 .937-.249 856.15 856.15 0 0 0 2.609-.511l3.911-.775c5.65-1.115 11.308-2.179 17.039-2.8 9.514-1.03 19.046-1.654 28.608-1.789.983-.014 1.964-.124 2.95-.19l.461.055a6.422 6.422 0 0 0 3.226-.194c5.156.155 10.306.045 15.452-.287a9.106 9.106 0 0 0 3.226-.039l1.331-.048c3.656.167 7.319.121 10.97-.138 6.22.054 12.439.152 18.653-.237l44.23.018 19.578.184c1.815.317 3.667.358 5.494.12a1.434 1.434 0 0 0 1.329.092l9.145.082 12.734.212a7.37 7.37 0 0 0 3.673.009 2.716 2.716 0 0 0 1.793 0c2.729.386 5.494.439 8.235.158.99 1.547.236 1.71-.717 1.716h-.141l-.358-.005c-5.07-.068-10.14-.142-15.211-.196-.752-.007-1.505.082-2.257.127a7.53 7.53 0 0 0-3.31-.295l-.512.035c-.257.017-.513.032-.768.039-4.286-.087-8.574-.209-12.857-.249-4.517-.042-9.029-.004-13.543 0-2.581-.598-5.184-.276-7.78-.19a16.337 16.337 0 0 1-.374-.038l-.749-.087a10.496 10.496 0 0 0-1.121-.074c-21.504-.01-43.007-.01-64.51 0-.489 0-.979.038-1.467.085l-.978.1-.489.045a59.364 59.364 0 0 0-9.643.02l-19.069.401a11.215 11.215 0 0 0-3.719.055l-9.957.374a8.272 8.272 0 0 1-.351-.024l-.351-.03a3.473 3.473 0 0 0-2.076.272 36.246 36.246 0 0 0-7.24.386 1.553 1.553 0 0 0-1.409.127 14.397 14.397 0 0 0-4.062.303 1.711 1.711 0 0 0-1.403.191 129.995 129.995 0 0 0-22.614 3.667c-4.5 1.214-9.199 1.607-13.808 2.368-.342-.084-.682-.157-.965.159l-8.142.042a.743.743 0 0 0-.951-.171l-2.24-.308a.85.85 0 0 0-.947-.23 103.105 103.105 0 0 1-29.556-13.082c-1.014-.656-1.925-1.575-3.227-1.575a1.073 1.073 0 0 0-1.406-.052c-2.011.204-3.211 1.612-4.372 3.052l-.249.309-.374.461c-2.397 2.892-3.95 6.456-6.569 9.192-2.691 2.814-5.799 2.784-8.24-.264a23.52 23.52 0 0 1-3.854-7.945c-.07-.228-.139-.457-.207-.686l-.202-.688a22.562 22.562 0 0 0-2.371-5.962c-1.475-2.312-2.921-2.523-4.876-.709a22.099 22.099 0 0 0-4.744 6.677l-.599.907-3.276 5.949-.714 1.305-2.246 3.685a3.67 3.67 0 0 0-1.148 1.676c-.263.304-.519.614-.774.922l-.509.623a18.234 18.234 0 0 1-2.771 2.886c-3.205 2.514-6.804 2.097-9.326-1.076l-.325-1.887c.654-.737.403-2.066 1.198-2.711.086-.288.245-.55.461-.76l.122-.134c.19-.188.344-.409.456-.652 3.042-7.738 6.988-15.09 8.875-23.33.818-3.537.968-7.195.443-10.787a.99.99 0 0 0-.191-1.019 26.972 26.972 0 0 0-4.598-11.465c-1.774-2.579-3.492-2.629-5.652-.46a2.144 2.144 0 0 0-.948 1.211c-3.705 5.653-5.878 12.112-8.481 18.345-.537 1.284-.787 2.934-2.633 2.799-1.77-.129-3.311-.543-4.116-2.618a79.477 79.477 0 0 1-2.742-9.694 168.077 168.077 0 0 1-1.117-4.875l-.426-1.956c-.571-2.606-1.166-5.197-1.936-7.708-1.341-4.362-2.055-8.957-3.916-13.139a.926.926 0 0 0-.369-.977c-.553-3.057-2.323-5.516-3.74-8.094-1.787-3.249-4.395-3.483-6.962-.807-2.961 3.087-4.086 7.237-5.255 11.322a5.251 5.251 0 0 0-.836 2.438c-3.092 8.936-4.701 18.241-5.847 27.628l-.209 1.724a153.044 153.044 0 0 0-1.503 22.555l-.039.236a2.499 2.499 0 0 0 .163 1.72 3.176 3.176 0 0 0 .915-1.946c1.907-4.643 3.547-9.44 5.807-13.876 1.698-3.329 3.449-6.765 6.177-9.388 2.24-2.155 4.219-1.964 5.843.751 2.388 3.992 3.222 8.631 4.511 13.07 2.275 7.831 3.39 16.005 5.992 23.743 1.166 3.468.503 6.651-1.02 9.766l-.987 1.595c-1.872 2.747-4.571 3.962-7.559 4.646a.836.836 0 0 0-.944.222 21.49 21.49 0 0 1-6.578-.491l-1.221-.226a43.02 43.02 0 0 0-2.038-.334 4.625 4.625 0 0 1-2.036-1.303 21.912 21.912 0 0 1-6.274-10.203l-.243-1.033-1.157-5.273c-.103-.634.351-1.508-.471-1.815-.308-.114-.474.486-.434.907-1.372 2.565-2.724 5.142-4.121 7.692a20.168 20.168 0 0 1-4.107 4.728l-.887.516c-.11.026-.221.055-.333.083l-.335.092c-1.121.3-2.271.606-3.326.008-2.159-1.224-2.088.231-2.262 1.796-.363 3.281-.845 6.548-1.278 9.82-.093.719-.132 1.562-.898 1.794-1.005.304-1.283-.777-1.579-1.382a60.967 60.967 0 0 1-2.526-5.879c-.2-.545-.417-1.089-.639-1.635l-.268-.654-.271-.655a21.025 21.025 0 0 1-1.811-6.302 163.128 163.128 0 0 0-.933-9.377c-1.259-9.575-.617-19.246-1.493-28.836-.884-9.649-.897-19.419-3.521-28.823-.408-1.462-.957-2.879-1.44-4.315-.336-.671-.635-.714-.887.058l-.125.587-.251 1.173a61.103 61.103 0 0 1-2.912 10.356 1.472 1.472 0 0 0-.057.54v.135c0 .475-.048.943-.849.853-.708-.079-.818-.611-.941-1.132l-.039-.164a2.42 2.42 0 0 0-.099-.313c-.118-.29-.225-.584-.337-.876-.1-.409 0-1.124-.452-1.097-.487.03-.461.687-.387 1.166l-2.757 15.924-.192 1.045c-1.978 7.967-4.037 15.91-6.508 23.722l-.513 1.429c-1.592 3.987-3.489 7.873-4.682 11.992-1.035 3.576-1.17 7.438-1.885 11.134-1.874 9.696-4.026 19.304-9.351 27.678a17.725 17.725 0 0 1-1.068 1.567c-.702.879-1.411 2.655-2.268 2.211-.817-.429-1.205-2.225-1.407-3.489a241.066 241.066 0 0 1-.818-5.626l-.508-3.758a313.594 313.594 0 0 0-.532-3.753c-.102-.687.798-1.299.042-1.954-.849-1.184-1.276.145-1.89.362a15.497 15.497 0 0 1-5.416 1.096l-2.698-1.043c-3.384-2.938-4.384-7.063-5.239-11.262l-.27-1.34-.475-2.357a2.772 2.772 0 0 0-.263-1.785 2.237 2.237 0 0 0-.537 1.815l.007.224v.223c-1.449 9.281-2.655 18.61-4.512 27.811-.092.472-.148.956-.271 1.419-.1.374-.203.845-.651.881-.537.043-.591-.328-.619-.705l-.009-.125c0-.062-.01-.122-.018-.184a106.57 106.57 0 0 1-.892-12.444c-.146-7.002-.206-14.004-.304-21.006.315-6.53.527-13.067.963-19.587 1.724-25.786 4.501-51.501 4.471-77.403 0-.518.019-1.037.042-1.559l.03-.626a15.288 15.288 0 0 0-.334-5.005c-.484.927-.854 1.91-1.101 2.926-2.877 10.943-3.734 22.235-5.021 33.45-1.068 9.305-2.386 18.557-5.051 27.528-.175.59-.153 1.474-.861 1.546-.638.064-.814-.375-.922-.867l-.033-.157-.032-.156a2.842 2.842 0 0 0-.092-.369 59.11 59.11 0 0 1-2.237-12.828 172.192 172.192 0 0 1 .036-20.722l.082-1.882c.041-.941.08-1.882.119-2.823.301-7.541.276-15.035-1.568-22.374-.978-3.88-1.843-7.873-4.352-11.062-1.479-1.88-2.632-1.775-4.036.147a19.629 19.629 0 0 0-2.714 6.097c-.085.287-.177.571-.268.855l-.108.341a6.052 6.052 0 0 0-.159 4.146c2.794 7.59 3.97 15.57 4.486 23.651.815 12.736 1.485 25.481 2.277 38.218a112.033 112.033 0 0 0 2.239 17.022c.553 2.543 1.326 2.818 3.059 1.04 1.151-1.181 1.793-.815 2.397.489.301.651.646 1.28.955 1.924 3.049 6.265 3.636 13.091 4.035 19.962a88.207 88.207 0 0 1-2.396 21.246c-1.689 6.924-3.587 13.896-7.099 20.15-.23.411-.396.863-.592 1.296-.45.373-.754.892-.859 1.467-.201.239-.398.484-.594.73l-.584.737a18.593 18.593 0 0 1-1.858 2.097c-2.517 2.346-5.004 1.976-6.987-.911a18.218 18.218 0 0 1-2.955-7.285 170.437 170.437 0 0 1-2.466-17.67c-.965-15.469-.985-30.942-.922-46.418l.028-5.804.026-5.804a1.63 1.63 0 0 0-.039-.239v-1.455c.57-6.403-.706-12.55-2.148-18.703a30.412 30.412 0 0 1-.553-3.526l-.134-1.19c-.113-.991-.239-1.98-.436-2.948a49.468 49.468 0 0 0-3.074-10.035c-.098-.342-.193-.98-.296-.981-.492-.007-.554.347-.554.725v.268c-1.493 6.744-2.942 13.508-2.822 20.492.154 8.947.205 17.895-.042 26.838-.145 5.287-.567 10.565-.866 15.846-.027.471.068 1.134-.47 1.225-.851.145-.796-.754-1.026-1.298-.243-1.183-.184-2.461-1.277-3.487v3.465c-.71 7.622-1.475 15.239-2.121 22.868-.952 11.24-1.958 22.471-4.138 33.54a60.647 60.647 0 0 1-3.298 10.968c-.932 2.31-2.157 4.799-4.868 4.816-2.711.018-4.182-2.246-5.365-4.606-1.086-2.169-1.346-4.592-1.936-6.91l-.19-3.106-2.32 3.512-4.963 5.651c-1.023 1.16-1.744.988-2.305-.514-2.082-5.545-3.842-11.148-3.334-17.264a6.17 6.17 0 0 0-1.828-5.276c-2.581-2.698-3.503-6.559-4.822-10.125-1.436-3.882-1.87-7.917-2.276-11.966l-.101-1.013c-.068-.675-.137-1.35-.213-2.027-.142-1.271-.213-2.551-.377-4.577-.77 1.967-1.285 3.265-1.788 4.57-2.917 7.56-7.277 13.635-14.499 17.151-2.553 1.243-2.92 4.355-3.306 7.05-.49 3.409-.036 6.783.393 10.154l.11.879c.074.586.143 1.172.203 1.758.09.878.183 1.756.276 2.633l.289 2.632a137.183 137.183 0 0 1 1.117 17.621 62.822 62.822 0 0 1-1.567 11.877c-.284 1.335-1.035 2.863-2.561 3.08-1.364.193-2.446-.52-3.495-1.666a50.497 50.497 0 0 1-6.008-8.771c-.444-1.755-1.29-1.921-2.489-.721-5.715 3.635-12.133 4.563-18.553 5.481a1.316 1.316 0 0 0-1.397.119l-3.608-.025a1.453 1.453 0 0 0-1.402-.125c-2.29-.505-4.592-.962-6.871-1.526-6.225-1.538-10.169-8.673-10.394-15.64-.185-5.613 1.346-10.652 3.245-15.662a56.902 56.902 0 0 1 6.024-11.275c.444-.744.848-1.51 1.212-2.296a4.277 4.277 0 0 0 1.223-1.954l1.614-2.856a178.263 178.263 0 0 0 10.03-19.531c-3.64 1.217-6.647.409-9.489-1.323-1.134-.691-1.444-.287-1.422.962.11 6.221-.238 12.389-1.992 18.381a1.336 1.336 0 0 0-.439.94l-.038.289-.015.092-.875.574c-1.936-3.828-2.258-8.053-2.577-12.239l-.058-.761c-.317-4.76-.31-9.536.024-14.294a4.982 4.982 0 0 0-.607-2.995c-3.519-5.953-5.73-12.495-7.748-19.158a143.293 143.293 0 0 1-5.14-22.076l-.103-.737c-1.04-7.416-2.49-15.137.369-22.54 2.204-5.712.5-11.778 1.83-17.557a78.761 78.761 0 0 1 2.733-9.862c.166-.446.294-.907.44-1.362.47-.597.753-1.32.815-2.076l.614-1.41.636-1.29c3.846-7.772 8.355-14.99 15.026-20.382.81-.654 1.694-1.203 2.543-1.8 1.177-.425 2.342-.897 3.536-1.26.804-.244 1.498-.427.81-1.52a20.473 20.473 0 0 1-.402-8.567c.201-1.392 1.005-2.359 1.58-3.517 3.757-7.577 9.864-12.325 16.72-16.228.126-.09.242-.191.348-.304a.855.855 0 0 0 .922-.423l5.434-2.552a.844.844 0 0 0 .922-.407c2.886-.575 5.208-1.807 6.072-5.185a22.973 22.973 0 0 1 2.626-5.868 1.347 1.347 0 0 0 .539-1.077l5.815-10.125a1.71 1.71 0 0 0 .904-1.556c1.182-2.318 3.218-3.883 4.62-6.022C81.212 3.045 86.459.969 92.058.069Zm-40.21 219.07c-.467-.543-.67-1.517-1.733-1.382 1.298 4.862 2.939 9.582 4.61 14.286l.834 2.351c1.113 3.133 2.213 6.271 3.213 9.447 2.532 8.059 2.569 15.54-3.491 21.994l-.12.13a1.522 1.522 0 0 0-.377 1.981l.38.693.383.692a28.219 28.219 0 0 0 5.745 7.858c1.913 1.678 2.982 1.334 3.81-1.229a27.121 27.121 0 0 0 1.045-7.882 213.816 213.816 0 0 0-1.62-29.96 9.745 9.745 0 0 1-.053-1.166v-.361c.013-1.771.03-3.586-2.348-4.247-.223-.061-.35-.505-.526-.767a26.8 26.8 0 0 1-2.674-5.318c-.65-1.658-1.494-3.278-3.17-3.927a10.132 10.132 0 0 1-3.907-3.193Zm-14.583-19.284a57.609 57.609 0 0 0-5.473 9.484 194.258 194.258 0 0 1-13.994 25.169 45.626 45.626 0 0 0-6.177 13.67c-3.06 11.353 2.102 21.753 12.249 24.116 9.772 2.274 18.932.25 27.509-5.125a1.554 1.554 0 0 0 .669-2.34c-6.391-14.172-9.802-29.282-12.148-44.703-.993-6.51-1.708-13.067-2.635-20.272v.001Zm4.958-6.01c-2.91 2.727-3.864 4.966-3.543 8.078a257.28 257.28 0 0 0 8.064 44.17 169.79 169.79 0 0 0 5.923 17.527c.7 1.719 1.412 1.784 2.576.569a14.8 14.8 0 0 0 3.74-7.337c1.035-4.815-.128-9.355-1.728-13.728-4.022-10.981-7.972-21.984-10.953-33.351-1.384-5.267-2.706-10.555-4.08-15.928Zm84.343-49.981a7.77 7.77 0 0 0-1.651 5.037l-.049 1.382-.146 4.145c-.539 15.195-1.183 30.382-3.384 45.443-2.072 14.181-5.049 28.066-11.778 40.714-.05.092-.1.185-.152.277l-.155.283a3.744 3.744 0 0 0-.61 2.133c.405 4.188.922 8.384 3.066 12.038 1.506 2.564 3.761 2.601 5.602.272a15.676 15.676 0 0 0 2.52-5.65 148.691 148.691 0 0 0 4.176-20.816c1.867-14.251 2.95-28.588 4.099-42.918.321-4.02 1.174-8.038.697-12.069-.6-5.055-1.135-10.113-1.265-15.201-.127-4.986-.028-9.98-.028-14.97l-.942-.1Zm-3.727-47.866a1.874 1.874 0 0 0-2.415.83l-.158.222-.319.445c-.266.369-.532.74-.798 1.114l-.317.447c-2.789 3.954-5.274 8.07-4.675 13.537a303.687 303.687 0 0 1 1.77 35.816c-.07 7.764.017 15.54-1.989 23.098-1.326 4.995-2.569 5.767-6.974 4.699a1.512 1.512 0 0 0-.124.446 129.383 129.383 0 0 1-4.663 39.501c-.175.645-.341 1.29-.504 1.941l-.161.65c-1.074 4.342-2.12 8.736-5.223 12.161a2.307 2.307 0 0 0-.41 1.819l.063 1.198a72.267 72.267 0 0 0 1.373 12.512c.435 1.888.268 4.757 2.04 5.257 1.353.382 2.481-2.235 3.651-3.574 2.928-3.353 5.012-7.002 4.24-11.941a27.335 27.335 0 0 1 .103-5.804 326.202 326.202 0 0 1 16.139-83.232 8.246 8.246 0 0 0 .522-2.334c.138-5.815.216-11.631.313-17.446.83.276.809.873.716 1.456l-.026.159a3.353 3.353 0 0 0-.069.599c.07 4.061.034 8.124.034 12.875a10.192 10.192 0 0 0 2.098-6.344c-.051-5.323-.085-10.646-.145-15.967a106.606 106.606 0 0 0-1.114-15.905 12.931 12.931 0 0 1-.068-.497l-.038-.334a4.518 4.518 0 0 0-.869-2.72v18.336c0 .553-.008.553-.584 1.193 0-1.521.023-3.041-.005-4.564-.102-5.713-.213-11.425-.333-17.137-.025-1.003-.167-2.017-1.081-2.512Zm27.126.169c-.264 1.044-.352 1.338-.411 1.639a229.865 229.865 0 0 0-3.489 27.116c-1.18 15.559-1.969 31.086-.007 46.683a177.91 177.91 0 0 1 1.173 26.381c-.012.503.308 1.318-.422 1.43-.87.135-.808-.79-.895-1.367a80.447 80.447 0 0 1-.353-2.735l-.208-1.828c-.246-2.099-.487-4.198-.722-6.297-.406.265-.484.479-.479.692.304 13.248.456 26.505 1.843 39.696.533 5.08 1.475 10.065 3.719 14.648 1.618 3.31 3.78 3.715 6.377 1.23a22.047 22.047 0 0 0 4.747-7.046 91.058 91.058 0 0 0 8.025-41.09c-.209-5.522-.709-10.978-3.217-15.964-1.067-2.119-1.774-2.229-3.474-.672-2.058 1.886-2.073 1.89-2.765-1.08-2.413-10.415-3.049-21.065-3.564-31.72-.1-2.063-.193-4.126-.277-6.19l-.108-2.475c-.369-8.253-.803-16.5-1.93-24.691l-.147-1.064a73.459 73.459 0 0 0-3.416-15.296Zm-26.631 56.484c-8.798 27.866-14.33 56.389-14.895 85.886 10.397-22.513 12.911-46.588 14.197-70.916l.092-1.759c.045-.88.088-1.76.13-2.641l.083-1.76.041-.881.079-1.762.04-.88.077-1.762.156-3.525ZM63.16 225.389c-.2-2.128-1.827-1.559-2.746-1.323-1.278.326-.226 1.382-.04 2.061.26.916.609 1.803 1.043 2.65.058.116.112.245.169.377l.068.158c.243.553.553 1.085 1.308.817.84-.298.51-1.206.576-2.185-.1-.663-.287-1.604-.378-2.555Zm150.819-30.807c-.475.653-.677.875-.82 1.133-3.459 6.216-7.406 11.998-12.917 16.363-.922.729-.784 1.645-.653 2.61.591 4.31 1.199 8.616 1.774 12.927.018.127.03.261.042.397l.018.205c.06.645.16 1.29.775 1.474 1.05.311 1.291-.899 1.696-1.591 4.446-7.54 6.984-15.878 8.803-24.488.593-2.802 1.591-5.558 1.285-9.03h-.003ZM87.656 147.124c-.157 1.229-.276 2.175-.399 3.118a14.9 14.9 0 0 0-.092 5.036 124.564 124.564 0 0 1-.688 37.781 18.085 18.085 0 0 0-.184 4.576c.032.388.063.777.092 1.167l.184 2.336c.316 3.895.653 7.788 1.214 11.644.75 5.159 1.864 10.272 4.85 14.631.317.714.765 1.578 1.52 1.338.66-.209.475-1.147.33-1.826.512-18.22 2.011-36.354 4.249-54.423 1.179.597.677 1.678.568 2.556-1.92 15.386-2.758 30.857-3.402 46.341-.092 2.292-.013 4.591-.013 7.07 1.851-1.624 2.39-2.519 3.529-6.488 3.964-13.809 6.508-27.829 6.166-42.387-.092-3.914-.981-6.93-3.687-9.595-1.22-1.197-1.785-1.313-2.648.07.008-.152.02-.303.034-.454l.029-.302a4.524 4.524 0 0 0-.565-3.393 127.335 127.335 0 0 1-9.42-15.825l-.065-.164-.128-.331a6.234 6.234 0 0 0-1.474-2.476ZM65.43 223.675a.98.98 0 0 0-.776.108c-1.014.892-.198 1.828-.016 3.008.495-1.15 1.263-1.958.792-3.116Zm-8.39-11.017a36.243 36.243 0 0 0 1.635 8.483c.525 1.725 3.071 2.638 3.86 1.578.64-.859-.209-5.994-1.164-6.241-1.858-.481-2.84-1.987-4.332-3.82h.002Zm11.87-3.444a13.692 13.692 0 0 0-1.08 1.8l-.242.46a8.073 8.073 0 0 1-1.945 2.665c-2.137 1.722-2.374 3.981-1.81 6.513.146.655.028 1.639.97 1.64a1.74 1.74 0 0 0 1.766-1.281 63.884 63.884 0 0 0 2.338-11.796l.002-.001Zm-19.496-34.812c-.239.64-.477 1.28-.713 1.918l-.711 1.918c-1.541 4.156-3.104 8.341-4.95 12.773 2.78-1.464 3.141.053 3.337 2.012.2 2.006.533 4.002.89 5.984.102.57.202 1.141.3 1.713l.221 1.29c.938 5.431 1.936 10.844 4.769 15.657l.194.327a7.817 7.817 0 0 0 4.212 3.884c-3.199-15.982-6.134-31.568-7.549-47.476Zm-32.161 22.203a83.602 83.602 0 0 0 1.254 24.146c.45-.386.746-.919.837-1.504l.038-.184.02-.092c1.091-5.056 1.214-10.194 1.431-15.354.135-3.22-1.38-4.978-3.581-7.014v.002Zm65.847-52.565c-4.927 25.466-9.86 50.974-14.802 76.524.275-.005.548-.052.81-.139 9.827-6.251 14.862-15.911 15.544-27.682.579-9.968-.058-20.027.337-30.043.01-.408-.003-.817-.04-1.224l-.037-.492a6.138 6.138 0 0 1 .103-2.125c1.446-5.034-.198-9.6-1.736-14.272l-.18-.547Zm-28.833 12.253-.074.337c-.568 2.471-1.608 4.74-1.593 7.257.029 13.814.99 27.612 2.877 41.298a14.02 14.02 0 0 0 4.181 8.65c.51.465 1.124 1.105 1.796.737.613-.338.276-1.167.204-1.77-2.293-18.866-4.298-37.773-7.39-56.511l-.001.002Zm139.719-55.356a230.69 230.69 0 0 0-5.392 25.725c-1.951 12.708-2.868 25.52-3.758 38.34l-.232 3.344c-.467 6.687-.95 13.373-1.594 20.041a42.734 42.734 0 0 0 3.234 20.822 9.858 9.858 0 0 0 3.528 4.625c2.634 1.733 4.928.404 7.229-.915 1.39-.796 1.232-1.914.984-3.024l-.092-.402a6.997 6.997 0 0 1-.153-.887c-.584-6.838-1.331-13.66-1.864-20.501a651.63 651.63 0 0 1-1.437-72.414 84.655 84.655 0 0 0-.454-14.761l.001.007ZM62.039 117.051c-1.769 2.918-3.54 5.637-5.108 8.485-1.604 2.913-1.926 6.265-2.387 9.534-.46 3.27-.791 6.568-1.124 9.858a45.098 45.098 0 0 0-.29 9.561c.31-.255.334-.575.474-.818.112-.231.182-.481.208-.737l.027-.184c.082-.543.184-1.044.77-.983.738.076.789.744.79 1.411v.285c-.002.176.008.352.03.527a1584.998 1584.998 0 0 1 7.502 58.307c.01.108.012.216.009.324v.137c0 .391.052.786.606.927 1.866-1.547 2.738-3.805 3.626-6.019 3.872-9.656 5.542-19.928 7.239-30.175 2.279-13.761 3.754-27.639 5.302-41.512a11.432 11.432 0 0 0-1.291-6.726 2.025 2.025 0 0 0-1.114 1.182l-.108.226c-.072.15-.144.297-.226.435a40.68 40.68 0 0 1-4.958 6.599c-1.404 1.534-1.998 1.115-2.543-.705a216.208 216.208 0 0 0-5.623-16.351 9.448 9.448 0 0 0-1.81-3.588Zm156.984-45.85c-3.554-7.002-8.472-7.56-13.536-1.653a24.267 24.267 0 0 0-1.548 2.09 46.413 46.413 0 0 0-5.637 12.103 99.385 99.385 0 0 1-.508 1.512l-.262.756-.263.758a29.124 29.124 0 0 0-2.063 9.305c-.026 5.086-.03 10.175-.085 15.266-.335 30.257.277 60.481 3.155 90.61.05.517.092 1.036.138 1.554l.092 1.039c.134 2.083.439 4.151.913 6.184.305-.064.484-.05.592-.135.363-.29.704-.611 1.047-.928a56.385 56.385 0 0 0 11.699-15.949l.142-.276.287-.553.285-.552a17.278 17.278 0 0 0 2.06-5.954c1.475-12.689 1.928-25.465 3.008-38.186 1.15-13.548 2.813-26.979 7.292-39.825a8.553 8.553 0 0 0 .334-4.266c-.617-3.986-1.035-8.008-1.685-11.988-.082-.5-.162-1-.242-1.499l-.243-1.5c-1.007-6.17-2.131-12.315-4.972-17.914Zm25.665 98.822c0 6.771.434 13.534 1.3 20.248.873 6.25 2.184 12.355 5.007 17.981.277.547.498 1.362 1.205 1.247.737-.12.698-1.005.752-1.598.22-2.409.312-4.83.546-7.236.194-1.992.07-3.697-1.451-5.263a14.758 14.758 0 0 1-2.581-4.791c-2.694-6.573-3.616-13.595-4.779-20.588h.001Zm-200.573 23.44a51.988 51.988 0 0 0 2.543 11.112c.236-3.991-.262-7.788-2.543-11.112Zm245.447-39.533c-1.143-2.01-2.472-2.223-4.092-.673a12.153 12.153 0 0 0-1.837 2.441c-4.764 7.739-7.606 16.491-11.282 24.799a5.137 5.137 0 0 0-.346 2.603c.525 3.917 1.085 7.844 2.643 11.484 2.603 6.081 6.757 9.834 14.196 9.926a15.115 15.115 0 0 0 9.078-4.054 6.973 6.973 0 0 0 2.129-6.766c-2.315-10.611-4.417-21.282-7.437-31.7a36.84 36.84 0 0 0-3.052-8.06Zm-263.288 2.182c-.612.014-.948.521-1.157 1.036-1.648 4.054-3.618 8.007-3.58 12.622.037 4.362.008 8.726.008 13.089h.205c0 4.203-.024 8.406.006 12.608.03 4.146 1.45 6.043 5.242 7.131 4.779 1.369 10.552-3.476 10.079-8.557l-.093-.994-.092-.993a49.334 49.334 0 0 0-1.948-11.303c-2.57-7.755-4.683-15.682-7.545-23.332l-.055-.152-.052-.157c-.16-.503-.356-1.014-1.016-.999l-.002.001Zm-5.869 17.449a105.1 105.1 0 0 0-2.759 17.581c-.249 2.895.307 4.001 2.76 5.821v-23.402Zm17.579.143c-.79 7.02.368 13.957.407 21.005.164-.159.337-.314.511-.467l.21-.184.106-.092.211-.184c1.199-1.02 2.317-2.047 1.963-3.895-1.035-5.41-2.26-10.788-3.408-16.183Zm210.883-35.131c-.628.018-.872.805-1.094 1.413a40.845 40.845 0 0 0-2.276 10.826c-.998 12.353.949 24.282 4.675 35.931a23.938 23.938 0 0 0 3.586 7.647 274.227 274.227 0 0 0-1.232-37.943l-.066-.614-.131-1.229-.065-.615-.132-1.229a70.147 70.147 0 0 0-2.278-12.738c-.174-.568-.274-1.469-.987-1.449ZM7.698 124.741c-.983-.222-1.653.935-2.23 1.774a3.024 3.024 0 0 0-.425 2.513c.294 1.236.54 2.488.806 3.728-1.21-.302-.424-2.216-1.71-2.519-3.894 15.536 5.405 52.603 12.256 60.619.469-3.789.835-7.478 1.4-11.131.58-3.743 1.346-7.452 2.046-11.171.591-3.724.58-7.519-.032-11.24-1.28 2.312-2.305 4.275-3.431 6.165-1.328 2.223-1.781 2.195-3.076-.106-2.12-3.772-2.917-7.951-3.619-12.183l-.208-1.27a201.28 201.28 0 0 0-.14-.848 32.923 32.923 0 0 1-.341-4.246l-.019-.536-.02-.537c-.115-3.132-.368-6.23-2.396-8.93 0-.005.102-.105.157-.161.693.184.712 1.462 1.567 1.257 0-2.948.05-5.826-.032-8.697a4.44 4.44 0 0 1 .083-.777l.028-.184c.099-.678.128-1.342-.664-1.52Zm45.954 6.757c-1.897 1.541-2.95 3.673-5.133 4.294-2.425.688-3.923-.863-5.575-2.727-.978 6.034-2.494 11.592-2.143 17.504a43.85 43.85 0 0 1-2.028 15.992 4.193 4.193 0 0 0-.388 1.858c1.3 6.611 2.673 13.205 4.157 20.459a45.524 45.524 0 0 0 3.827-8.888c.2-.613.414-1.223.632-1.833l.262-.73.132-.369.264-.731a26.372 26.372 0 0 0 1.992-9.096 143.413 143.413 0 0 1 1.48-21.721c.674-4.58 1.631-9.118 2.522-14.012h-.001Zm32.693 29.752c-.6 8.441-1.106 16.834-.344 25.243a87.52 87.52 0 0 0 .345-25.242v-.001Zm140.549-50.684a102.425 102.425 0 0 0-5.015 22.042c-1.606 11.99-2.501 24.066-3.68 36.107-.4 4.08-.553 8.192-1.346 12.227-.105.532-.393 1.452.277 1.712.588.227.776-.226.932-.696l.049-.149c.036-.117.079-.232.129-.345.134-.288.228-.597.341-.896a145.734 145.734 0 0 0 7.921-27.967c.209-1.241.437-2.482.669-3.722l.175-.931.176-.93c.062-.311.12-.621.176-.931l.175-.931c1.382-7.451 2.524-14.94.747-22.684-.887-3.886-1.167-7.932-1.726-11.905v-.001Zm-94.96 47.058-.034.446c-.622 7.607-2.515 15.151-.752 22.858.728-7.747.991-15.531.787-23.309l-.001.005Zm-98.306 11.885 2.186 8.234.566-.131c0-1.607-.03-3.214.006-4.819.061-2.753.078-2.753-2.758-3.279v-.005Zm79.114-57.355c-.117.276-.253.553-.35.838a243.752 243.752 0 0 0-8.402 32.153c-.358 1.887-1.228 3.792-.791 5.713a173.108 173.108 0 0 1 3.441 21.228 2.642 2.642 0 0 0 3.224 2.366 2.633 2.633 0 0 0 1.3-.733 6.096 6.096 0 0 0 1.56-2.901c1.308-4.606 1.61-9.363 1.851-14.124.656-14.871.042-29.77-1.833-44.536v-.004Zm-10.389 43.602c-2.668 7.541-1.913 11.851 2.634 15.109a79.435 79.435 0 0 0-2.634-15.104v-.005Zm-71.484-24.997a42.885 42.885 0 0 1-3.749 3.74 6.962 6.962 0 0 0-2.58 5.387c-.11 2.013.081 4.031.568 5.988 1.628 7.108 4.978 13.479 7.582 20.166.543 1.396 1.787 2.698 3.118 2.272 1.366-.436.83-2.193.607-3.421-1.335-7.362-2.783-14.702-4.033-22.08-.668-3.925-1.009-7.916-1.513-12.052Zm61.489-5.095a149.63 149.63 0 0 0-4.027 16.652 4.056 4.056 0 0 0 .213 2.361c2.818 7.012 6.714 13.328 11.299 20.051.58-3.892.983-7.158 1.587-10.382a9.988 9.988 0 0 0-.207-4.515 168.169 168.169 0 0 0-7.622-22.262c-.29-.685-.362-1.582-1.243-1.905Zm38.986 9.872c-1.628 1.694-3.189 3.302-3.177 5.979.034 7.413.411 14.81.843 22.203.025.417-.133 1.045.972.983.116-3.541.461-7.072.806-10.611l.137-1.416a86.953 86.953 0 0 0 .416-17.138h.003Zm-120.319 3.962c-.957-.388-1.24-.053-1.182.912.424 7.029 1.37 13.952 3.764 20.566.225.62.418 1.523 1.252 1.506.792-.015 1.06-.867 1.347-1.486.205-.441.412-.881.62-1.322l.248-.528c1.936-4.134 3.737-8.239 2.92-12.493 0-2.396-.045-4.008.013-5.62.048-1.312-.146-1.962-1.63-1.474a10.45 10.45 0 0 1-7.354-.062l.002.001Zm70.291-2.144-3.196 24.423c1.582-6.726 2.863-13.509 4.125-20.295a5.813 5.813 0 0 0-.931-4.129l.003.001Zm-58.038 9.29c-1.89 3.839-2.62 10.258-1.601 14.908.897-1.953 1.652-3.745 2.526-5.469 1.827-3.6 1.615-6.041-.925-9.439Zm13.752-24.552c-2.858 3.501-4.919 6.675-4.157 11.591.848 5.473 1.543 10.996 2.334 16.491.42 2.916.943 5.814 1.42 8.72 3.46-12.205 2.663-24.352.404-36.801l-.001-.001Zm47.21 16.417-.03.327c-.259 3.264.999 6.184 1.792 9.571 1.388-3.349.123-5.753-1.002-8.139l-.149-.318a18.679 18.679 0 0 1-.61-1.442l-.001.001Zm25.865-44.682c-.532-2.012-1.459-2.008-2.712-.75-.43.455-.831.938-1.199 1.444-3.887 5.067-6.37 10.935-8.857 16.823l-.467 1.106c-.311.737-.625 1.472-.942 2.204-2.315 5.353-3.12 10.331.318 15.386.034.072.062.148.082.225a162.328 162.328 0 0 1 6.085 17.362c.276-1.117.485-1.78.611-2.46a275.392 275.392 0 0 1 8.273-33.443c.482-1.509 1.517-2.923 1.262-4.596a126.585 126.585 0 0 0-2.453-13.299l-.001-.002ZM21.25 141.356v5.236c.908-2.075 1.458-3.524 0-5.236ZM88 115.051c-1.001 6.139-1.948 11.499-2.723 16.888-.422 2.934.699 5.556 2.04 8.732 1.143-6.053 2.756-11.315 4.148-16.642a2.534 2.534 0 0 0-.184-1.842c-1-2.157-1.988-4.32-3.28-7.136Zm-77.782 9.921c-.86-.108-.72.645-.718 1.155.016 3.391.06 6.783.104 10.174a1.737 1.737 0 0 0 1.216 1.805 12.06 12.06 0 0 0 8.032.179c.928-.295 1.212-.765.7-1.766a40.012 40.012 0 0 0-4.609-7.841c-.654 1.508-1.141 2.764-1.74 3.962-.327.65-.45 1.828-1.41 1.572-.575-.152-.586-.787-.571-1.387l.004-.184v-.354c-.087-2.015-.103-4.034-.172-6.05-.022-.594-.184-1.184-.836-1.265Zm30.257-8.328a6.652 6.652 0 0 0-2.111 6.37c.843 5.114 1.311 10.298 1.935 15.454.09-.259.182-.519.277-.78l.184-.523c.806-2.268 1.599-4.569 1.291-6.692-.638-4.441-1.312-8.871-1.575-13.829h-.001Zm41.992 10.488c-1.223 4.834-1.087 6.985.635 9.706.774-3.412-.536-6.512-.633-9.706h-.002Zm-15.357-19.783c-1.286 2.474-2.349 4.607-3.503 6.692a2.525 2.525 0 0 0-.126 2.472 174.051 174.051 0 0 1 6.597 18.264c.543 1.833 1.299 1.695 2.269.356a60.533 60.533 0 0 0 4.425-7.59 2.053 2.053 0 0 0 .02-2.051c-3.066-5.988-6-12.063-9.682-18.143ZM24.1 102.336c-2.576 11.168-2.384 22.175-.634 33.482 3.941-4.858 4.382-28.918.634-33.482Zm30.796 1.967a4.683 4.683 0 0 0-4.593-.463 4.682 4.682 0 0 0-2.753 3.704c-.854 4.911-1.677 9.829-2.543 14.74-.391 2.217-.93 4.406-1.26 6.634a5.045 5.045 0 0 0 2.053 5.037c1.324.974 2.443.2 3.493-.577l.21-.155.207-.152a12.95 12.95 0 0 0 4.212-5.28c1.426-3.153 1.91-6.605 2.798-9.929.661-2.474 1.304-4.954 1.834-6.968a8.436 8.436 0 0 0-3.66-6.591h.002ZM34.07 74.341a2.452 2.452 0 0 0-3.286-1.121 19.005 19.005 0 0 0-7.619 5.09 66.438 66.438 0 0 0-18.41 43.551 5.68 5.68 0 0 1-.092.715l-.038.212c-.127.711-.217 1.418.369 1.772.849.513 1.788-.54 2.682-.874.759-.284.82-1.014.83-1.742v-.314c0-.173.005-.342.02-.503.385-4.216 1.058-8.337 3.603-11.792.86-1.167 1.894-2.304 3.441-1.737 1.446.531 1.598 2.058 1.649 3.436.15 4.125.175 8.243-1.05 12.245-.585 1.908-.726 3.869.48 5.564a31.64 31.64 0 0 1 3.248 5.353l.018-.197.032-.353c.07-.764.112-1.127.124-1.491.24-7.186.216-14.378 1.106-21.528.778-6.265 1.936-12.4 4.547-18.15.875-1.934 1.642-1.952 2.95-.465a28.382 28.382 0 0 1 4.497 7.514 90.804 90.804 0 0 1 2.885 8.876 9.344 9.344 0 0 0 5.168-8.454c.179-4.36.975-8.767 3.204-12.49 1.277-2.133.83-2.992-.857-4.191-3.54-2.514-6.995-5.192-9.5-8.926Zm-5.448 19.845c-1.083-1.445-2.01-1.396-2.568.378-.064.202-.13.405-.198.607l-.103.304-.206.608-.102.304c-.737 2.231-1.232 4.475.705 6.708.389.607.653 1.285.778 1.995 1.535 5.188 1.526 10.503.951 15.82-.439 4.054-1.087 8.083-1.693 12.492 2.862-2.518 5.087-4.896 4.939-8.983-.134-3.655.217-7.468 2.07-10.528 1.844-3.04 1.25-5.694.36-8.634-1.19-3.928-2.473-7.79-4.933-11.071ZM12.69 126.533c-.672-.11-.574.583-.61.995-.102 1.164-.144 2.335-.21 3.5l.533.078c.345-1.106.716-2.211 1.025-3.332a.922.922 0 0 0-.738-1.241Zm68.082-2.387c-1.962 2.44-2.048 3.317-.48 4.836l.48-4.836Zm4.488-14.439a37.593 37.593 0 0 0-.674 17.146c.113-1.624.383-3.233.809-4.804l.178-.719c.95-3.832 1.939-7.662-.313-11.623Zm-39.087-1.634c-1.808 2.377-3.97 3.925-4.075 6.524-.219 3.903.077 7.818.88 11.643a163.175 163.175 0 0 0 3.195-18.167Zm-31.383 1.021c-.909-.26-1.453.765-1.919 1.428-1.77 2.518-2.457 5.501-2.887 8.538-.545 3.841-.45 3.759 2.74 5.646 1.323.782 1.504.207 1.716-.937a80.405 80.405 0 0 0 1.29-10.07c0-1.019.016-1.583 0-2.147v-.611c-.019-.796-.086-1.602-.945-1.847h.005Zm61.455-20.821c-3.254 2.955-4.793 6.901-6.157 10.956l-.215.645-.107.321-.213.644c-.425 1.285-.853 2.569-1.334 3.824a1.932 1.932 0 0 0 .193 1.624c3.176 6.098 6.346 12.199 9.745 18.739 5.985-12.905 4.603-24.973-1.916-36.753h.004ZM35.12 113.006a25.055 25.055 0 0 0-2.325 11.945c3.847-3.34 4.523-6.899 2.325-11.945Zm113.166-19.9c-.655-.301-.917.452-1.106.921-.36.89-.648 1.807-.861 2.743-1.707 7.628-1.595 15.393-1.428 23.18l.041 1.894.025 1.263.486-5.518.489-5.521a121.755 121.755 0 0 1 2.536-17.465c.125-.515.441-1.216-.182-1.497ZM119.61 48.507c-.057.54-.109 1.08-.172 1.62-.984 8.434-4.978 14.313-14.313 12.058-1.342-.325-1.92.493-2.437 1.58-3.006 6.332-6.002 12.67-9.054 18.98a33.839 33.839 0 0 0-3.431 13.399 96.282 96.282 0 0 1-1.47 12.983c-.627 3.401.762 5.879 2.132 8.536l.21.41c.436.835.825 1.693 1.163 2.572 1.48-4.294 2.653-8.137 4.12-11.849 2.446-6.193 5.143-12.254 10.113-16.731 3.487-3.14 3.687-3.014 4.953 1.587.991 3.612 1.207 7.394 2.244 11.389.578-1.119.955-1.892 1.369-2.643 1.921-3.483 3.746-7.11 7.107-9.264a2.765 2.765 0 0 0 1.456-2.884c-.377-8.959-.582-17.927-1.087-26.876-.286-5.034-.765-10.095-2.904-14.872l.001.005Zm108.874 58.296-.732.1 1.576 12.231.595-.075a45.547 45.547 0 0 1-.23-3.286l-.034-.825a27.143 27.143 0 0 0-1.175-8.15v.005Zm-36.23-29.14c-1.567 7.154-4.109 36.804-3.48 40.126 1.185-5.514 2.01-11.119 3.639-16.444a37.995 37.995 0 0 0 1.106-16.215c-.302-2.388-.3-4.853-1.263-7.472l-.002.004ZM40.253 106.66c-4.655 4.324-4.11 2.816-2.389 10.95 3.227-3.192 2.93-6.903 2.389-10.95Zm25.324-1.669c-2.379 3.527-3.646 6.616-3.303 8.525 3.203-4.848 4.005-6.959 3.303-8.525Zm-18.983-3.065c-4.22 1.604-5.248 3.403-4.497 8.359 2.069-2.646 5.32-4.178 4.498-8.358v-.001Zm17.233.575-3.148 7.414.633.303c.93-2.545 2.695-4.674 3.265-7.399l-.75-.318Zm19.259 2.098v5.15c.878-1.884 1.268-3.224 0-5.15Zm5.172-7.36c-.771 3.962-3.828 7.689-.961 11.984.104-.798.23-1.594.358-2.389l.13-.794c.617-2.89.777-5.859.473-8.798v-.002ZM49.365 85.184c-.415-.086-.944-.248-1.198.298-.192.412.117.76.345 1.078 1.692 2.37 2.388 5.168 3.083 7.982.44 1.778.131 3.133-1.41 4.133a4.276 4.276 0 0 0-1.983 4.683c5.828-2.26 5.828-2.26 11.431 3.92.86-2.179 1.641-4.183 2.443-6.172a2.31 2.31 0 0 0-.036-2.276c-2.472-3.961-4.947-7.93-8.373-11.06a9.37 9.37 0 0 0-4.302-2.586ZM89.82 70.842c-3.866 4.33-6.993 8.651-10.276 12.833-.461.586-.24 1.008.069 1.494 2.037 3.215 2.412 6.89 2.66 10.627a16.007 16.007 0 0 0 2.698 8.216c1.949-11.15 5.775-21.49 4.849-33.173v.003Zm-21.45 29.381c-.763.921-1.923 1.647-1.46 3.379a6.075 6.075 0 0 0 1.46-3.379ZM46.4 86.633c-.85-.216-1.041.772-1.31 1.366-2.148 4.74-2.74 9.829-3.02 15.321 1.232-.83 2.156-1.375 2.849-1.8l.201-.123c2.235-1.382 1.826-1.449 2.017-6.324.092-2.248-.092-4.514-.204-6.764-.025-.596.16-1.5-.533-1.677Zm24.177 4.27a44.387 44.387 0 0 0-5.39 8.823 1.02 1.02 0 0 0 .202 1.305c.32.298.61.032.738-.228.404-.806.857-1.587 1.355-2.339l.268-.413c1.388-2.138 2.81-4.262 2.827-7.149Zm-22.205-1.148v8.712c2.598-2.954 2.42-6.725 0-8.712Zm12.32-50.875c-.122-.283-.346-.207-.554-.078a57.853 57.853 0 0 0-17.515 8.954 26.242 26.242 0 0 0-8.767 10.888c-1.431 3.493-2.102 7.075-.988 10.837.257.868.5 1.71 1.586 1.75 6.914.255 10.701 4.47 12.489 11.231.154.584.253 1.426 1.084 1.29 3.158-.521 5.041 1.61 6.959 3.608l.262.27.13.135a80.844 80.844 0 0 1 8.032 10.105 41.754 41.754 0 0 1 7.535-11.213c.528-.617.791-1.416.733-2.226a78.394 78.394 0 0 0-.223-8.476 57.898 57.898 0 0 0-8.908-25.13 14.502 14.502 0 0 1-1.984-11.523c.048-.145.173-.324.128-.422Zm17.217 46.9a1.807 1.807 0 0 0 .033 1.732c.85 2.195 1.7 4.388 2.555 6.582-.076-3.078-.168-6.072-2.588-8.313Zm-2.819.042a3.679 3.679 0 0 0-2.397 4.07c.725-1.312 2.013-2.255 2.397-4.07Zm27.026-23.4c-.593.03-.917-.048-1.152.074-.384.199-.772.393-1.16.589l-.499.251c-3.761 1.906-7.345 3.987-7.132 9.686a6.787 6.787 0 0 1-.276 1.42 37.78 37.78 0 0 0-.313 11.068l10.532-23.089ZM72.999 78.472v6.112c2.324-.684 2.34-2.088 0-6.112Zm-.807-42.287c-.934-.204-1.683.36-1.768 1.948-.093 1.694-.295 3.38-.41 5.072-.904 13.406 1.924 26.165 5.93 38.713.497 1.552 1.021 1.778 2.029.368A98.065 98.065 0 0 1 89.035 69.13a2.031 2.031 0 0 0 .776-1.67l-.039-.44-.078-.88c-.689-7.62-1.61-15.185-5.478-21.916-2.644-4.593-6.403-7.449-12.023-8.035l-.001-.002Zm-36.409 36.56a1.1 1.1 0 0 0-.83.222c-.322.369-.04.737.215 1.033 2.903 3.372 6.406 5.906 10.065 8.522.183-4.204-5.428-9.474-9.45-9.778ZM92.24 6.281c-2.072-3.298-4.886-3.723-7.664-1.148-.521.472-1.013.974-1.475 1.505-6.492 7.663-9.844 16.91-11.892 26.823-.307 1.49.502 1.578 1.498 1.673 5.135.49 8.9 3.397 11.716 7.808a38.527 38.527 0 0 1 4.635 10.996 63.165 63.165 0 0 1 1.989 13.102 2.004 2.004 0 0 0 1.106-1.857l.012-.165c.007-.108.016-.216.03-.321l.669-5.284c.333-2.642.66-5.284.96-7.931 1.362-11.977 2.198-23.976 1.047-36.034-.31-3.227-.889-6.396-2.631-9.169v.002Zm7.37-2.824c-2.98-2.049-6.132-2.99-9.912-1.635 4.339 3.626 5.93 6.898 6.638 13.33 1.27 11.574-.047 23.055-1.153 34.538-.483 5.018-1.106 10.022-1.713 15.49 2.791-1.835 5.111-3.725 7.924-4.434a3.57 3.57 0 0 0 2.581-2.373 140.975 140.975 0 0 1 2.96-6.541 31.16 31.16 0 0 1 5.942-8.793c1.029-1.02 2.235-1.94 3.66-1.498 1.985.616 1.816-.425 1.614-1.63l-.04-.238-.013-.08a67.051 67.051 0 0 0-9.417-25.46c-2.526-4.037-5.155-7.984-9.07-10.677v.001Zm17.617 40.169c-1.544-.781-2.738.285-3.814 1.341a15.941 15.941 0 0 0-1.535 1.774c-2.865 3.797-4.692 8.251-6.893 12.467l-.057.108c-.231.438-.448.896.263 1.264 2.663 1.37 7.37.531 9.479-1.814 2.837-3.154 3.581-7.149 3.872-11.306v-.134l.006-.27c.033-1.36.029-2.753-1.32-3.436l-.001.006Zm-48.405-7.342c-4.49-.759-8.02 2.652-7.76 7.53.08 1.206.376 2.387.876 3.487a53.583 53.583 0 0 0 4.119 7.354l.698 1.093c.933 1.459 1.86 2.924 2.714 4.445-.167-2.089-.362-4.177-.497-6.265a90.799 90.799 0 0 1 .46-15.962c.01-.08.025-.163.043-.248l.029-.13c.123-.55.255-1.143-.682-1.304ZM79.51 7.892c-7.449 7.877-11.73 17.789-16.28 28.02a46.134 46.134 0 0 1 4.708-.674c1.494-.056 2.053-.786 2.334-2.284a65.691 65.691 0 0 1 9.106-23.489c.248-.387.875-.788.132-1.573Z" fill="#fff"/>
  </mask>
  <g mask="url(#a)">
    <mask id="b" style="mask-type:luminance" maskUnits="userSpaceOnUse" x="-222" y="-1435" width="1094" height="4278">
      <path d="M-221.596 2842.72H871.457v-4276.74H-221.596v4276.74Z" fill="#fff"/>
    </mask>
    <g mask="url(#b)">
      <path d="M.43-.737H650.57v281.474H.43V-.737Z" fill="url(#c)"/>
    </g>
  </g>
  <defs>
    <linearGradient id="c" x1=".43" y1="140" x2="650.569" y2="140" gradientUnits="userSpaceOnUse">
      <stop stop-color="#999"/>
      <stop offset=".452" stop-color="#999"/>
      <stop offset=".557" stop-color="#5708D3"/>
      <stop offset="1" stop-color="#FF007E"/>
    </linearGradient>
  </defs>
</svg>