<svg width="256" height="222" viewBox="0 0 256 222" fill="none" xmlns="http://www.w3.org/2000/svg">
<path d="M157.564 144.106L191.861 109.809L190.53 107.476L156.226 141.773L157.564 144.106ZM106.496 130.033L14.7749 221.755H17.8469L102.4 137.209L106.496 130.033ZM151.91 134.239L186.207 99.9424L184.927 97.7115L150.63 132.016L151.91 134.239ZM149.087 129.309L183.384 95.0053L182.133 92.811L147.829 127.115L149.087 129.309ZM166.034 158.903L200.331 124.606L198.949 122.134L164.645 156.431L166.034 158.903ZM163.211 153.973L197.486 119.654L196.096 117.233L161.829 151.545L163.211 153.973ZM160.38 149.036L194.684 114.739L193.324 112.34L159.027 146.637L160.38 149.036ZM154.726 139.169L189.03 104.872L187.721 102.59L153.424 136.894L154.726 139.169ZM129.302 94.7858L163.599 60.4891L162.538 58.6313L128.241 92.928L129.302 94.7858ZM116.809 112.048L7.09485 221.762H10.0864L112.794 119.047L116.809 112.048ZM146.286 124.372L180.59 90.0754L179.361 87.9324L145.064 122.236L146.286 124.372ZM132.155 99.7083L166.458 65.4117L165.369 63.5099L131.065 97.8066L132.155 99.7083ZM134.985 104.645L169.282 70.3415L168.163 68.3959L133.851 102.693L134.985 104.645ZM143.462 119.442L177.737 85.1456L176.53 83.083L142.234 117.38L143.462 119.442ZM140.61 114.534L174.907 80.2304L173.736 78.1897L139.432 112.486L140.61 114.534ZM168.865 163.855L203.169 129.558L201.706 127.042L167.424 161.346L168.865 163.855ZM137.348 14.6578L93.5643 58.4411L90.5582 63.6928L138.167 16.0841L137.348 14.6578ZM142.943 24.4297L72.9527 94.4201L69.7344 100.03L143.821 25.9511L142.943 24.4297ZM140.149 19.5438L83.2585 76.4343L80.1426 81.8615L140.99 21.0139L140.149 19.5438ZM134.583 9.77188L103.863 40.448L100.937 45.5314L135.314 11.1543L134.583 9.77188ZM171.732 168.77L206.029 134.473L204.566 131.906L170.269 166.203L171.732 168.77ZM131.752 4.88594L114.198 22.4402L111.389 27.3481L132.528 6.20251L131.752 4.88594ZM128.951 0L124.489 4.46171L121.783 9.20868L129.69 1.30194L128.951 0ZM127.115 94.0544L0.789944 220.372L0 221.755H2.32594L123.202 100.879L127.115 94.0544ZM159.737 53.7454L11.1031 202.379L7.31429 209.035L160.775 55.5447L159.737 53.7454ZM174.519 173.7L208.816 139.403L207.353 136.792L173.049 171.088L174.519 173.7ZM156.965 48.8521L21.4089 184.386L17.6933 190.866L157.989 50.6149L156.965 48.8521ZM148.568 34.2235L52.3337 130.406L48.9179 136.368L149.467 35.8181L148.568 34.2235ZM145.766 29.3376L62.6395 112.413L59.3262 118.192L146.644 30.8809L145.766 29.3376ZM154.163 43.9662L31.7147 166.393L28.1015 172.698L155.121 45.6777L154.163 43.9662ZM151.362 39.0802L42.0279 148.4L38.5097 154.536L152.298 40.7479L151.362 39.0802ZM137.801 109.575L172.098 75.2786L170.957 73.2818L136.66 107.579L137.801 109.575ZM226.933 171.015L176.165 221.784H180.802L228.623 173.963L226.933 171.015ZM229.734 175.901L183.852 221.784H188.562L231.424 178.9L229.734 175.901ZM232.536 180.787L191.532 221.747H196.315L234.277 183.786L232.536 180.787ZM224.139 166.159L168.485 221.813H173.041L225.799 169.055L224.139 166.159ZM218.536 156.387L153.117 221.813H157.506L220.16 159.152L218.536 156.387ZM221.338 161.273L160.797 221.813H165.281L222.969 164.125L221.338 161.273ZM96.2121 148.107L22.4841 221.835H25.6L91.9698 155.458L96.2121 148.107ZM240.933 195.489L214.601 221.82H219.611L242.768 198.663L240.933 195.489ZM252.123 215.033L245.321 221.835H250.631L254.062 218.405L252.123 215.033ZM238.131 190.603L206.907 221.835H211.836L239.909 193.66L238.131 190.603ZM249.329 210.147L237.627 221.85H242.834L251.195 213.489L249.329 210.147ZM254.903 219.86L252.987 221.776H256L254.903 219.86ZM246.506 205.232L229.932 221.806H235.088L248.386 208.508L246.506 205.232ZM215.72 151.493L145.408 221.755H149.745L217.3 154.2L215.72 151.493ZM243.705 200.346L222.252 221.806H227.335L245.555 203.579L243.705 200.346ZM235.308 185.717L199.197 221.828H204.069L237.093 188.804L235.308 185.717ZM107.696 174.943L60.8841 221.755H64.3657L111.177 174.943H107.696ZM100.008 174.943L53.1968 221.755H56.6418L103.453 174.943H100.008ZM115.368 174.943L68.5568 221.755H72.1481L118.96 174.943H115.368ZM212.919 146.556L137.728 221.755H141.985L214.469 149.27L212.919 146.556ZM85.8843 166.02L30.1495 221.755H33.3605L81.5689 173.546L85.8843 166.02ZM123.063 174.943L76.2514 221.755H79.9086L126.72 174.943H123.063ZM92.3429 174.943L45.5314 221.755H48.896L95.7074 174.943H92.3429ZM84.6555 174.943L37.8441 221.755H41.1355L87.947 174.943H84.6555ZM161.499 174.943L114.688 221.755H118.725L165.537 174.943H161.499ZM169.179 174.943L122.368 221.755H126.486L173.297 174.943H169.179ZM210.139 141.67L130.041 221.755H134.224L211.646 144.333L210.139 141.67ZM146.139 174.943L99.328 221.755H103.212L150.023 174.943H146.139ZM138.452 174.943L91.6407 221.755H95.4514L142.263 174.943H138.452ZM130.772 174.943L83.9607 221.755H87.6983L134.51 174.943H130.772ZM153.819 174.943L107.008 221.755H110.972L157.784 174.943H153.819Z" fill="url(#paint0_linear_326_19)"/>
<defs>
<linearGradient id="paint0_linear_326_19" x1="256" y1="221.849" x2="-4.34786e-08" y2="221.849" gradientUnits="userSpaceOnUse">
<stop stop-color="#FF007E"/>
<stop offset="1" stop-color="#5708D3"/>
</linearGradient>
</defs>
</svg>
