<svg fill="none" xmlns="http://www.w3.org/2000/svg" viewBox="0 0 668 618">
  <path d="M232.622 618c.3-1.017 1.213-1.526 1.892-2.204 8.498-8.51 17-17.012 25.507-25.505-.469-.795-1.552.131-2.1-.912a39.084 39.084 0 0 1 5.114-5.412c1.84-1.943 3.758-3.794 5.65-5.685 1.892-1.891 3.588-3.573 5.493-5.489-2.31-1.617-5.219-1.044-7.476-2.608 8.82-8.815 17.353-17.916 26.525-26.34 9.172-8.423 17.849-17.564 26.799-26.313 8.951-8.75 17.653-17.603 26.526-26.457h3.744l32.11-32.155h4.801l38.112-37.997h3.144l42.091-42.052h3.223c.221.118.208.248 0 .444-7.49 7.471-15.07 14.838-22.429 22.44-26.238 27.044-53.011 53.553-79.589 80.205-8.024 9.506-17.327 17.76-26.003 26.627-8.677 8.867-17.575 17.381-26.186 26.248-26.095 26.952-52.842 53.461-79.407 79.957a9.214 9.214 0 0 0-2.113 3.143l-5.428.065ZM459.894 0a7.246 7.246 0 0 1-2.14 2.438c-14.861 14.891-30.009 29.508-44.556 44.725-11.104 11.658-22.612 22.884-33.924 34.333-11.312 11.449-22.963 22.754-34.132 34.346-4.331 4.537-8.767 8.997-13.19 13.756-1.527 0-3.184.117-4.828 0-1.644-.117-2.727 1.63-4.488.183 7.828-8.984 17.196-16.482 25.494-25.01 8.298-8.528 17.171-17.225 25.73-25.805l25.533-25.57h1.945l20.654-20.602 2.192-.117c10.072-10.067 20.149-20.142 30.23-30.226.757-.769 1.736-1.369 2.14-2.451h3.34Zm-117.87 577.748h-18.057l4.605-4.59c6.524-6.52 12.904-13.248 19.571-19.559 21.398-20.081 41.413-41.57 62.628-61.82 10.033-9.571 19.727-19.455 29.617-29.156s19.493-19.885 29.605-29.443c22.18-20.928 42.978-43.16 64.989-64.192 10.02-9.584 19.728-19.455 29.617-29.156 9.89-9.702 19.715-19.664 29.579-29.482.665-.665 1.135-1.669 2.609-1.774.118 1.969 0 3.912 0 5.503l7.216-7.211.456.456h1.97l18.645-18.659a5.02 5.02 0 0 1 2.401.131c0 .273.117.691 0 .86-.574.678-1.24 1.304-1.866 1.904-4.175 4.172-8.442 8.267-12.512 12.531-25.586 26.769-52.373 52.327-78.141 78.914-11.965 12.361-24.203 24.436-36.259 36.693-12.056 12.257-24.529 23.979-36.285 36.51-11.273 11.957-23.094 23.353-34.614 35.049-11.521 11.697-23.407 22.898-34.615 34.829-8.35 8.879-17.105 17.355-25.638 26.078-8.533 8.724-17.027 17.095-25.521 25.584Zm134.179-128.842h2.714l44.035-44.008h2.675l9.864-9.858 9.916-9.923 9.929-9.91 9.929-9.923 9.916-9.923 9.929-9.909 9.707-9.715c1.057.783.47 1.578.992 2.36 4.827-4.72 8.976-9.949 13.817-14.526 4.841-4.576 9.472-9.414 14.261-14.212h2.492c10.268-9.284 18.958-19.99 28.965-29.352h3.275l-2.362 2.451c-2.126 2.126-4.292 4.212-6.367 6.39-24.933 25.987-50.885 50.971-76.001 76.801-12.069 12.414-24.359 24.593-36.532 36.915-12.174 12.322-24.856 24.305-36.768 36.94-11.338 11.957-23.081 23.328-34.628 35.063-11.547 11.736-23.485 22.884-34.628 34.815-10.711 11.423-21.997 22.245-32.957 33.394-10.96 11.149-22.037 22.05-33.075 33.107-3.145-.443-6.185 1.147-9.368.639-3.066 1.304-6.263.352-9.342.691-.496-.678.208-.756.391-1.03.275-.349.585-.668.927-.952 22.089-20.863 42.938-42.886 64.806-63.893 10.151-9.766 20.041-19.781 30.087-29.638 10.047-9.858 19.897-19.794 29.774-29.756 1.018-1.108 2.518-1.656 3.627-3.038Zm-84.808 122.061c-6.706 1.056-13.282 3.221-20.132 3.612-.443-.756.261-.809.444-1.095.275-.349.585-.668.926-.952 10.086-10.08 19.898-20.433 30.322-30.147 10.634-9.91 20.694-20.381 31.053-30.564 10.36-10.184 20.211-20.733 30.805-30.591 11.051-10.288 21.476-21.176 32.227-31.738 10.751-10.561 21.176-21.684 32.24-32.011 10.542-9.845 20.524-20.224 30.805-30.33 10.281-10.105 20.497-20.445 30.753-30.668.43-.431.73-1.148 1.787-1.082 1.005 1.942-1.004 3.807-.391 5.737-1.305 1.604.078 3.794-1.409 5.216L609.9 347.29c1.487.209 2.27-.143 3.053.378 0 .287 0 .665-.156.861-.666.743-1.397 1.434-2.114 2.138-13.856 13.861-28 27.383-41.491 41.635-12.16 12.805-24.79 25.088-37.198 37.644-12.408 12.557-25.155 24.632-37.224 37.41-8.833 9.363-18.058 18.255-27.047 27.487-8.99 9.232-18.071 18.151-27.165 27.174-15.448 15.322-30.179 31.295-45.822 46.473-.992.964-1.814 2.164-3.341 2.477ZM51.211 609.29c-1.122-.144-2.127.195-3.144-.313l25.455-25.44c0-1.304-.94-.756-1.24-1.304l22.703-22.688c-.613-.835-1.461 0-2.022-.731 9.85-10.314 20.406-19.95 30.009-30.512v-.313c-.718-.704-1.723.079-2.297-.339l23.773-23.744c-.483-1.513-1.788-1.826-2.14-3.182 20.145-19.989 40.029-40.422 60.905-59.89.913.066 1.161 1.239 1.748 1.396l36.755-36.732h3.249l3.014-3.012c19.371-19.359 38.75-38.719 58.139-58.078.809-.808 1.396-2.112 2.844-1.773a44616.362 44616.362 0 0 1 40.76-40.735h2.244l52.033-52.001a3.577 3.577 0 0 1 2.479.196c0 1.304-1.187 1.825-1.931 2.608-12.656 12.7-25.625 25.087-37.942 38.114-11.886 12.596-24.333 24.618-36.532 36.94-12.2 12.322-24.699 24.136-36.533 36.693-11.456 12.218-23.485 23.823-35.228 35.793-11.743 11.97-23.837 23.471-35.371 35.493-24.49 25.648-50.272 50.006-74.853 75.55-12.46 12.961-25.299 25.544-37.916 38.349-12.617 12.804-25.795 25.244-38.203 38.374-6.758 7.094-13.921 13.9-20.758 21.281Zm535.595-226.376a143.821 143.821 0 0 1-6.367 20.028c-9.577 9.571-19.936 19.363-29.644 29.769-11.964 12.831-24.646 24.918-36.95 37.41-12.304 12.491-24.96 24.475-36.963 37.162-8.063 8.541-16.466 16.729-24.673 25.114-8.207 8.384-16.674 16.703-25.025 25.035-4.044 4.055-4.057 4.199-9.328 5.672-2.297.652-4.345 1.878-6.824 2.178-2.479.3-4.436 1.591-6.707 2.269-1.936.366-3.817.98-5.597 1.825-.43-.965.3-1.134.587-1.421 18.41-18.438 36.598-37.084 55.347-55.156 10.308-9.923 20.354-20.081 30.557-30.095 10.203-10.015 19.897-20.42 30.335-30.121 10.895-10.119 21.137-20.863 31.745-31.295 10.607-10.431 21.045-21.045 31.731-31.477 2.44-2.412 5.101-4.629 7.776-6.897ZM62.327 313.27v-11.813l3.523-3.521c9.799-9.766 19.336-19.728 29.37-29.234 21.828-20.759 42.534-42.626 64.271-63.463 10.438-10.053 20.667-20.406 31.027-30.577 10.36-10.171 20.38-20.863 31.053-30.812 10.973-10.21 21.176-21.176 32.266-31.607h2.609l42.143-42.13h1.892c12.082-12.062 24.373-23.915 36.115-36.276 5.885-6.141 11.887-12.192 17.797-18.255a7.24 7.24 0 0 1 2.805-2.1c.587-.195 1.305-.443 1.762.183.208.73-.327 1.03-.705 1.409-9.629 9.127-18.384 19.206-27.843 28.556-17.666 17.446-35.424 34.815-52.62 52.705-12.239 12.726-24.79 25.074-37.211 37.631-12.421 12.557-25.156 24.606-37.211 37.41-11.039 11.736-22.625 22.858-33.924 34.32-11.299 11.461-23.107 22.571-34.158 34.332-11.325 12.062-23.224 23.471-34.823 35.285-11.6 11.813-23.29 23.327-34.941 34.958-.587.587-1.305 1.056-1.487 2.061a1.382 1.382 0 0 1-1.71.938Zm28.979 233.783h-3.354l34.667-34.594c-.73-1.186-1.852-.221-2.348-1.395a49.862 49.862 0 0 1 4.893-5.124c1.774-1.852 3.614-3.638 5.427-5.438 1.814-1.799 3.497-3.416 5.324-5.215-.757-1.604-2.218-2.504-3.301-3.69a2.21 2.21 0 0 1-.809-2.295c6.445-6.755 13.856-12.896 20.523-19.807 6.667-6.911 13.674-13.718 20.524-20.563h3.262l30.009-29.991h4.514l56.808-56.786 2.297-.13 79.419-79.371h4.019l-2.231 2.191c-12.526 12.517-25.338 24.774-37.486 37.631-11.573 12.27-23.707 23.98-35.541 35.989-11.834 12.009-24.229 23.666-35.815 36.001-11.403 12.127-23.407 23.654-35.071 35.507-11.664 11.852-23.746 23.21-35.111 35.284-11.638 12.374-23.863 24.136-35.776 36.236-11.912 12.101-23.968 23.836-35.71 35.976-3.119 3.142-6.041 6.428-9.133 9.584Zm375.973-142.181h2.975c.404.208.352.3.117.534-29.604 29.339-58.465 59.421-88.109 88.72-25.325 25.049-50.402 50.358-75.675 75.485-2.192 2.178-3.914 4.746-6.197 6.924l-15.827-2.23a6.928 6.928 0 0 1 3.275-3.716 12.742 12.742 0 0 0 2.466-2.047c18.449-18.399 36.716-36.967 55.36-55.157 9.134-8.984 18.41-17.942 27.648-27.082a5.4 5.4 0 0 0 1.513 0c2.871-.848 5.702-1.852 8.599-2.608a4.4 4.4 0 0 0 2.035-1.539 7524.085 7524.085 0 0 0 28.835-28.791 7.71 7.71 0 0 1 3.027-2.399h3.796l46.162-46.094ZM159.752 517.401c-2.074-2.334-4.945-3.559-6.602-6.089 7.829-7.889 15.944-15.752 23.773-23.823 6.093-6.272 12.825-11.866 18.918-18.138 6.093-6.272 12.265-12.296 18.384-18.424 1.135-.196 1.305 1.056 2.153 1.304.108.02.218.02.326 0 .196-.078.377-.188.535-.326l33.767-33.759h4.018l44.727-44.699h2.426l62.811-62.758a5.642 5.642 0 0 1 2.609.104c0 .287.13.704 0 .874-.587.678-1.305 1.303-1.879 1.916-2.831 2.83-5.715 5.607-8.494 8.502-28.038 29.195-57.239 57.243-85.46 86.255-12.695 13.04-25.625 25.844-38.398 38.805-12.774 12.961-25.939 25.466-38.451 38.636-7.933 8.358-16.153 16.43-24.216 24.657-8.063 8.228-16.361 16.391-24.594 24.593h-2.845c-.639-.887.092-1.304.522-1.682l15.97-15.948Zm146.261 75.094h-3.914l13.804-13.783-.391-.665c-1.866 0-3.51-1.03-5.441-.886-1.931.143-3.914 0-5.819 0-.222-1.304.6-1.643 1.109-2.165 13.295-13.3 26.33-26.874 39.99-39.796 9.512-8.984 18.619-18.346 27.961-27.487 9.342-9.14 18.618-18.529 27.869-27.839a45.965 45.965 0 0 1 12.486-8.567 149.605 149.605 0 0 0 15.292-9.127c3.34-2.178 6.419-4.72 9.877-6.729 1.539-.886 2.701-2.451 4.24-3.494a42.172 42.172 0 0 0 6.824-6.116c.339-.365.704-.443 1.409 0l-1.983 1.982c-11.495 11.488-23.29 22.689-34.406 34.542-11.847 12.622-24.334 24.592-36.468 36.914-12.134 12.322-24.698 24.11-36.532 36.693-11.834 12.583-24.203 24.11-35.907 36.523Zm125.268-34.854c0-.613.561-.822.901-1.161 6.354-6.389 12.499-13.039 19.179-19.076 10.947-9.91 21.02-20.681 31.536-31.008 10.516-10.327 20.549-21.058 31.313-31.073 10.151-9.453 19.754-19.441 29.644-29.143 9.89-9.701 19.571-19.559 29.331-29.247.574-.574.952-1.565 2.192-1.382a63.918 63.918 0 0 1-4.75 10.497c-.887 1.656-1.304 3.468-2.244 5.098-2.453 4.081-4.606 8.319-6.837 12.518a9.58 9.58 0 0 1-1.97 2.191c-12.043 12.048-24.385 23.822-36.05 36.223-9.355 9.936-19.166 19.402-28.704 29.13-9.538 9.727-19.206 19.22-28.809 28.843a21.277 21.277 0 0 1-4.631 3.325c-6.276 3.612-12.735 6.819-19.297 9.871-3.354 1.564-6.759 3.051-10.138 4.55-.183.065-.431-.091-.666-.156ZM292.757 441.578h3.393l38.033-38.01h3.027l58.1-58.09h3.353c-4.175 3.911-7.398 8.149-11.208 11.931-18.592 18.411-37.302 36.705-55.464 55.534-10.621 11.005-21.502 21.763-32.24 32.664-10.738 10.901-21.868 21.306-32.306 32.455-10.607 11.344-21.828 22.075-32.71 33.146-10.881 11.07-21.867 21.893-32.801 32.846a9.5 9.5 0 0 0-1.03 1.434c-3.458-2.608-7.333-3.912-10.504-6.702 21.437-20.98 42.052-42.691 63.933-63.071.782.951 2.218.469 2.922 1.304l35.502-35.441Zm10.647-396.762h3.183a.706.706 0 0 1 .222.965c-.652.756-1.396 1.434-2.1 2.139-20.485 20.471-41.243 40.682-61.323 61.506-12.578 13.04-25.482 25.688-38.177 38.584-12.695 12.896-26.029 25.348-38.49 38.596-11.742 12.427-24.046 24.292-36.036 36.51-11.991 12.218-24.36 23.849-36.037 36.25-9.512 10.092-19.571 19.65-29.161 29.638-.757.782-1.488 1.604-2.27 2.465-1.305-2.478.665-4.577.287-6.82-.379-2.243.508-4.251.848-6.52 14.809-14.799 29.552-29.99 44.844-44.62 8.011-7.654 15.8-15.517 23.72-23.263 7.919-7.745 15.774-15.725 23.746-23.692h1.461l43.474-43.447h2.101l43.461-43.434 1.513-.065 54.734-54.792Zm-65.655 550.287h-4.553l26.264-26.248c-3.183-1.369-6.641-1.461-9.59-3.234 24.882-24.775 49.346-49.667 74.945-73.881h8.011l22.702-22.689h3.327l34.706-34.684h3.562c-.104.456-.078.834-.261 1.03-.665.743-1.396 1.434-2.113 2.138l-78.441 78.393c-12.421 13.939-26.095 26.574-39.247 39.848-13.152 13.274-26.277 26.314-39.312 39.327ZM70.691 378.598c5.31-5.294 10.346-10.81 15.904-15.648 3.393-2.999 6.524-6.154 9.786-9.323a20125.224 20125.224 0 0 0 49.163-49.067c.73-.717 1.2-1.917 2.479-1.891.743.509 0 1.304.365 1.669l27.726-27.695h2.961l29.461-29.456h3.001l38.712-38.701a5.218 5.218 0 0 1 2.414.131c0 .273.13.691 0 .86-.666.756-1.396 1.434-2.114 2.152-14.091 14.082-28.456 27.904-42.182 42.325-11.325 11.905-23.068 23.354-34.589 35.037-11.521 11.683-23.485 22.871-34.615 34.802-10.255 10.914-21.045 21.28-31.522 31.96-10.477 10.679-21.32 21.254-31.992 31.881-.444.456-.914.9-1.618 1.604-1.488-3.651-2.035-7.25-3.34-10.64ZM241.246 84.273c1.044-.195 1.605.092 2.062-.417.456-.508 1.096-1.108 1.644-1.669 10.646-10.623 21.28-21.25 31.9-31.881 1.41-1.408 2.858-2.608 5.389-2.034l-2.088 2.086-1.891 1.89c-16.584 16.091-32.214 33.108-48.654 49.394-16.44 16.286-32.906 32.298-48.836 48.949-11.352 11.879-23.094 23.328-34.615 35.037-11.521 11.71-23.538 23.015-34.85 34.985-7.306 7.745-14.887 15.165-22.324 22.766-7.437 7.602-14.94 14.97-22.559 22.559-.926-2.348.483-4.447.548-6.611.066-2.165 1.305-4.186 1.2-6.52 27.165-27.526 55.413-53.983 82.343-81.809h2.844c4.997-4.994 10.059-9.714 14.73-14.8 8.168-8.906 16.832-17.316 25.352-25.948h1.722l46.083-45.977Zm353.976 203.688c.365.218.659.538.846.92.188.381.261.809.211 1.231v9.506l-3.197 3.195c-10.438 10.431-21.241 20.667-31.314 31.464-12.369 13.209-25.429 25.726-38.124 38.596-12.695 12.87-25.73 25.297-38.164 38.362-6.25 6.52-12.747 12.883-18.997 19.455-.496.534-1.018 1.03-1.553 1.564-.417-.56-.443-.964 0-1.304a43.025 43.025 0 0 0 5.415-6.128c2.388-2.869 4.697-5.802 6.85-8.854 2.701-3.846 5.363-7.758 7.828-11.8 2.466-4.042 4.319-7.993 6.42-12.023a12.398 12.398 0 0 1 2.113-3.155c13.648-13.587 26.996-27.487 40.969-40.735 10.438-9.832 20.367-20.081 30.57-30.095s20.041-20.107 30.127-30.199ZM187.256 537.352c-3.275-2.765-7.111-4.408-10.138-7.237 2.61-2.608 4.971-5.216 7.646-7.602 9.642-8.371 18.266-17.799 27.4-26.731 9.133-8.932 17.979-17.929 26.955-26.9.222-.222.483-.417.901-.782a13.424 13.424 0 0 0 4.592 2.777l37.942-38.036h3.849l43.97-43.942h4.044c-10.737 10.718-21.567 20.98-31.731 31.855-11.377 12.179-23.407 23.679-35.084 35.532-11.678 11.853-23.864 23.497-35.385 35.584-7.293 7.733-14.887 15.165-22.324 22.767-7.437 7.602-14.887 14.969-22.637 22.715ZM2.401 504.975c-.81 0-1.67.326-2.401-.287v-.391c8.168-8.789 16.962-16.951 25.299-25.596l-.47-.718 22.938-22.91c-1.057-1.304-2.232-.365-2.884-1.03l38.594-38.635a16.502 16.502 0 0 1-2.087-4.799 117.049 117.049 0 0 1 8.702-8.541 71.786 71.786 0 0 0 5.78-5.294 20051.455 20051.455 0 0 0 43.252-43.173c3.732-3.729 7.242-7.693 11.743-10.875l1.67 7.589 10.164-10.157h3.144c-.339.391-.522.612-.73.834-24.034 25.14-49.163 49.184-73.353 74.168-14.678 15.152-29.696 29.99-44.517 44.933-14.822 14.944-29.866 29.913-44.844 44.882ZM72.883 237.46c-.105-3.104 1.2-5.294 1.97-7.641.77-2.348 1.461-4.747 2.244-7.25 3.914-3.912 7.828-7.967 11.925-11.918 27.1-26.183 53.599-52.953 80.268-79.54 12.069-10.432 22.65-22.519 34.367-33.537h2.544c12.656-12.662 25.364-25.297 37.981-38.023a12.81 12.81 0 0 1 7.006-4.082c.887-.156 1.592-1.303 2.845-.365l-1.749 1.76c-13.23 13.196-26.76 26.132-39.638 39.718-11.977 12.649-24.49 24.775-36.715 37.15-12.225 12.374-24.79 24.292-36.742 36.94-10.698 11.383-21.958 22.245-32.918 33.368-10.96 11.122-22.024 22.062-33.388 33.42Zm150.645 145.362h3.823l47.414-47.372h4.227c-.978.965-1.735 1.695-2.453 2.452-25.103 26.274-51.393 51.388-76.679 77.48-11.743 12.113-23.746 23.979-35.489 35.975-11.743 11.996-23.746 23.771-35.58 35.598-2.845-2.165-4.41-5.451-7.072-7.615v-1.526c20.876-19.285 40.577-40.031 61.114-60.164 1.487.548 1.592 2.608 2.701 3.208l37.994-38.036Zm-19.18 163.462c11.664-11.645 22.859-23.471 34.719-34.516 10.438-9.766 20.198-20.237 30.583-29.99 2.44.704 4.723 2.151 7.463 1.773l27.282-27.239h2.675l40.799-40.761c.509.913 1.488.417 2.192.73.235.183.144.287-.078.509-8.507 8.488-17.223 16.781-25.468 25.518-20.537 21.828-42.326 42.208-63.006 63.775-7.516 7.824-15.214 15.465-22.794 23.21-7.581 7.746-15.409 15.439-23.12 23.158-4.723-1.825-9.642-4.459-11.247-6.167ZM589.507 250.89c1.122.822.391 1.656.796 2.034l18.371-18.359h2.609l22.05-22.089h2.61c9.903-9.388 18.592-19.937 28.873-29.299H668c-4.671 4.668-9.329 8.932-13.543 13.613-11.456 12.687-23.981 24.318-35.959 36.51-11.977 12.192-24.372 23.81-36.024 36.21-11.025 11.736-22.611 22.858-33.923 34.32-11.312 11.461-22.767 22.793-34.171 34.215-1.853 1.852-3.144 4.199-5.219 5.855-.417.326-.652.926-1.305.795-.313-.104-.43-.326-.482-.704-.157-1.121 1.004-1.865.73-3.077a2.612 2.612 0 0 1 .627-2.712c-.34-2.608 1.2-5.099.626-7.655 26.186-27.108 53.716-52.757 80.15-79.657Zm-387.442 89.776h2.844l37.955-37.931h3.392l-2.518 2.464c-8.585 8.58-17.353 16.951-25.716 25.766-23.746 24.957-48.589 48.832-72.792 73.346-6.328 7.732-13.843 14.343-20.797 21.424-6.954 7.08-14 14.03-21.006 21.032l-2.61 2.608a41.612 41.612 0 0 1-5.454-9.91c6.524-6.519 12.748-13.3 19.571-19.376 8.259-7.394 15.788-15.517 23.734-23.223 6.523-6.285 12.76-12.74 19.166-19.09.6-.6 1.031-1.447 2.218-1.708l1.214 2.49 8.389-8.384h2.949l29.461-29.508Zm226.059 42.026h-3.914c10.177-10.08 19.336-20.72 29.761-30.251l-1.475-.692a4.249 4.249 0 0 1 0-.391v-.313l34.145-34.019c-.443-.861-1.513.078-1.97-.704l24.686-24.671v-4.016c8.872-8.867 17.379-17.851 26.408-26.287 15.109-14.096 29.291-29.117 44.243-43.565l1.84 4.668h.496c.104 0 .248 0 .313-.065l15.135-15.126h3.34c-7.828 7.824-15.722 15.178-23.002 23.106-10.882 11.866-22.598 22.897-33.924 34.372-11.325 11.475-22.95 22.415-33.923 34.098-12.93 13.769-26.551 26.822-39.807 40.252-13.257 13.431-26.761 26.783-40.147 40.175-.953.964-2.14 1.799-2.205 3.429Zm-373.56-39.418h-2.779l10.882-10.836a21.152 21.152 0 0 0-.718-9.219l2.923-2.894c11.573-11.566 22.885-23.471 34.797-34.62 10.438-9.805 20.38-20.054 30.57-30.082 10.19-10.027 20.067-20.563 30.583-30.329 7.294-6.781 14.052-14.07 21.398-20.785.469.496.3.9-.144 1.304a66.6 66.6 0 0 0-6.876 9.845c-2.74 4.264-5.036 8.801-7.372 13.3-.55.93-1.246 1.767-2.061 2.477-15.109 15.126-30.505 29.991-45.248 45.43-10.79 11.318-21.998 22.166-32.958 33.367-10.96 11.201-22.024 22.076-32.997 33.042Zm-7.972 139.651h-4.084l35.75-35.675c-.757-.744-1.761 0-2.335-.365l14.991-15.035c-.822-2.608-2.518-4.29-2.753-6.519 12.787-11.488 24.425-24.006 36.611-35.963 5.806-5.698 11.482-11.514 17.262-17.225 4.162-4.094 7.998-8.528 12.76-11.957 1.214 1.174.47 3.26 1.67 4.42l9.133-9.127h3.745l30.661-30.669h2.244c.261.248.17.365 0 .574-2.218 2.191-4.488 4.329-6.615 6.611-20.171 21.606-41.882 41.726-62.288 63.071-11.494 12.036-23.394 23.641-35.058 35.493-11.664 11.853-23.681 23.21-35.098 35.233-5.48 5.763-11.194 11.292-16.596 17.133Zm104.223-204.313c1.148 1.747-1.305 3.403-.326 4.994l19.01-18.972h2.792c12.917-12.909 25.664-25.636 38.059-38.036h2.883c0 .43 0 .821-.156 1.004-.666.756-1.409 1.434-2.114 2.138-16.844 16.847-33.923 33.42-50.48 50.58-24.347 25.309-49.58 49.719-74.227 74.728-4.488 5.79-10.085 10.497-15.135 15.752-.495.535-.848 1.304-2.022 1.304-.744-3.599-1.514-7.25-2.283-10.992 8.61-8.619 16.961-17.551 25.99-25.831 7.92-7.263 15.331-15.035 23.016-22.532 7.685-7.498 15.135-15.087 22.689-22.637l10.634-10.614c.443-.443.782-1.121 1.67-.886Zm313.059-89.255c-1.122-1.121-2.14-2.151-3.21-3.207 19.741-20.707 40.838-40.07 60.918-60.438.796-.234 1.579-.13 2.323-.886 6.158-6.285 12.721-12.205 18.54-18.777 5.819-6.572 12.212-12.192 17.94-18.542h2.114l36.689-36.719h1.618L648.925 2.7a6.019 6.019 0 0 1 2.74.104c0 .287.13.692 0 .874-.666.743-1.396 1.434-2.114 2.139-19.141 19.128-38.516 38.022-57.409 57.438-26.786 27.617-54.277 54.53-81.35 81.861-10.151 11.618-21.593 22.01-32.397 33.002-10.803 10.993-21.88 21.894-32.84 32.86-.809 0-1.67.326-2.414-.274v-.391c6.641-7.185 13.87-13.783 20.733-20.955Zm-315.16 134.332c.705 1.734 0 3.312.378 4.433 4.293-4.29 8.703-8.71 12.761-12.752h4.175c10.36-9.962 19.571-21.02 30.179-30.643h3.183c-6.524 6.52-13.165 12.674-19.232 19.312-11.977 13.117-24.946 25.257-37.394 37.905-12.447 12.648-25.324 24.775-37.472 37.645-13.177 13.978-27.034 27.174-40.473 40.969a77.936 77.936 0 0 0-2.048 2.178h-3.262l18.75-18.699c0-3.338-1.945-5.959-2.415-9.127 2.219-2.217 4.54-4.799 7.124-7.081 10.751-9.466 20.446-20.002 30.636-29.99 10.19-9.988 20.327-20.302 30.517-30.421a53.478 53.478 0 0 1 4.593-3.729Zm137.154 163.213c3.37.472 6.715 1.111 10.021 1.917l19.101-19.089h4.097c-.966.964-1.735 1.695-2.453 2.451-24.647 26.079-50.676 50.853-75.753 76.502-3.366 3.455-6.602 7.041-9.916 10.431-4.384-1.199-8.194-3.546-12.682-5.111 10.738-11.736 22.65-22.167 33.792-33.368 11.143-11.201 22.364-22.31 33.793-33.733Zm-127.212-237.59c-1.305 5.712-3.327 10.432-4.462 15.778-16.231 16.221-32.971 32.416-49.058 49.21-10.582 11.058-21.515 21.75-32.24 32.664-10.725 10.914-21.554 21.593-32.397 32.416h-2.688c-.378-.209-.3-.313-.065-.535 9.133-9.036 18.123-18.085 26.995-26.965.848-3.377-1.083-6.389-.391-9.623 7.972-7.967 15.748-16.273 24.098-23.953 10.438-9.623 20.237-19.898 30.361-29.848 10.125-9.949 19.898-20.08 30.088-29.886 2.975-2.934 6.145-5.776 9.759-9.258Zm145.648 241.15c2.61-.639 4.867.965 7.294.561 2.426-.404 4.605 1.147 7.828.417l-2.231 2.23c-13.622 13.6-27.504 26.952-40.747 40.904-9.616 10.132-19.728 19.755-29.226 29.782a6.619 6.619 0 0 1-5.063-.795 41.497 41.497 0 0 0-6.693-2.347c-.952-.235-1.044-.952-1.944-1.304 3.562-3.156 6.132-6.768 9.877-9.128a11.501 11.501 0 0 0 1.657-1.63 59532.57 59532.57 0 0 0 52.607-52.744c2.101-2.112 4.697-3.586 6.641-5.946ZM593.408 269.25a6936.46 6936.46 0 0 1 1.592 9.583c-1.305 1.304-2.701 2.608-4.006 4.004-25.664 27.095-52.711 52.835-78.78 79.54-3.914 4.016-7.75 8.11-11.651 12.152-.418.431-.731 1.2-1.748.77 1.056-3.208 2.426-6.364 3.392-9.663.783-2.607 1.487-5.372 2.361-8.019a5.712 5.712 0 0 1 1.305-2.451c9.994-9.988 19.728-20.263 30.009-29.873 7.959-7.394 15.474-15.204 23.238-22.767 7.763-7.563 15.435-15.4 23.146-23.106 3.079-3.064 6.132-6.141 9.224-9.193.548-.378.835-1.147 1.918-.977Zm-95.168-23.993c-1.043-2.738-2.087-5.424-3.196-8.345a7.541 7.541 0 0 0 3.366-2.517 59949.379 59949.379 0 0 0 52.907-52.887c2.479-2.478 5.624-4.212 7.646-7.146l.861.548 17.144-17.199 2.962-.157c5.597-5.593 11.338-11.031 16.714-16.82 3.066-3.299 6.119-6.598 9.263-9.819 1.305-1.304 2.793-2.347 4.58-2.034 16.061-15.178 30.518-31.62 46.357-46.76.679.092 1.475-.26 2.245.275 0 .273 0 .678-.157.847-1.305 1.304-2.675 2.608-3.992 4.042-29.892 30.773-60.384 60.946-90.706 91.276-10.294 11.735-21.893 22.31-32.853 33.459-10.96 11.148-22.024 22.128-33.141 33.237Zm-42.678-65.562h-1.304l-4.28-4.433 2.61-2.608 43.708-43.682c2.284-2.282 4.606-4.524 6.837-6.859a80.958 80.958 0 0 1 7.137-6.271c4.789-3.912 8.898-8.554 13.322-12.857 5.675-5.503 11.207-11.149 16.844-16.795h2.022c9.133-9.297 18.723-18.164 27.191-28.047h2.714c15.931-15.035 30.4-31.451 46.292-46.708h2.766c.287.144.248.261 0 .47-19.689 19.559-38.738 39.796-58.583 59.225-8.037 7.823-16.074 15.738-23.837 23.862-25.208 26.352-51.433 51.662-76.98 77.662-2.179 2.243-4.201 4.72-6.459 7.041ZM226.385 460.224c2.884 1.095 4.684 3.612 7.268 4.133l20.745-20.706h3.405c.353.182.287.274.065.508-22.023 23.393-45.287 45.56-67.846 68.431-4.123 5.372-9.303 9.727-13.948 14.604l-1.422 1.434c-3.301-2.542-6.941-4.368-9.798-7.589 1.148-1.147 2.126-2.164 3.157-3.142 19.754-18.842 38.894-38.362 58.374-57.673Zm-114.204 5.841c4.606-4.615 8.938-9.271 13.609-13.547 16.714-15.296 32.044-31.973 48.393-47.62 1.722 1.408 2.413 3.677 3.914 5.281h.717l19.245-19.233h3.81c-3.666 4.12-7.189 8.123-10.999 11.905-14.352 14.187-28.782 28.191-42.665 42.782-9.472 9.962-19.414 19.441-28.834 29.404-1.762-.965-5.167-5.203-7.19-8.972ZM585.28 233.743c.809 2.035 1.761 3.795 1.696 5.425l11.155-11.136.457.548h2.322c0 .404 0 .808-.104.991-.665.743-1.396 1.434-2.114 2.138-15.109 15.113-30.491 29.991-45.274 45.39-19.754 20.602-40.303 40.422-60.279 60.855h-2.87c-.366-.183-.301-.274 0-.509 6.784-6.754 13.556-13.521 20.406-20.38v-9.128c24.242-25.283 49.867-49.132 74.605-74.194Zm-118.079 86.764h-2.61c0-.261-.078-.417 0-.469 7.385-8.306 15.657-15.647 23.342-23.81l-1.305-.6a3.971 3.971 0 0 1 0-.378v-.313l19.871-19.872c.979-1.956-1.004-3.703-.417-5.607 12.395-12.374 24.79-24.67 37.094-37.136 5.049-5.124 10.594-9.688 15.657-14.826 5.062-5.137 10.046-10.092 15.148-15.191l1.865 4.708 11.534-11.736.47.431h2.14c.352.221.221.299.065.547a56.096 56.096 0 0 1-7.359 7.967c-20.08 20.094-40.447 39.862-60.161 60.32-18.241 18.999-37.198 37.123-55.334 55.965Zm152.524-179.499h3.04c.117.13.261.221.248.286-.013.066-.144.157-.222.235-27.152 28.465-55.439 55.809-83.125 83.752-6.798 8.189-14.783 15.243-22.181 22.832-7.397 7.589-14.939 14.956-22.311 22.323h-2.922l11.103-11.083c-.796-2.36-1.474-4.395-2.127-6.364 21.946-21.658 43.174-43.734 65.655-64.662 1.161.17.613 1.839 1.748 2.008l13.948-13.939h2.688c11.546-11.683 23.446-23.131 34.458-35.388Zm-394.736 20.745a14.502 14.502 0 0 0 1.801-1.304c17.731-17.681 35.228-35.623 53.233-52.992 9.733-9.375 19.245-18.959 28.887-28.425 9.642-9.467 19.153-19.26 28.9-28.687 2.166-2.112 4.553-4.068 6.771-6.22h3.132c2.714-1.708 3.914-5.424 7.75-5.307a1.07 1.07 0 0 1-.261 1.37c-9.133 8.592-17.301 18.072-26.186 26.886-19.832 19.664-39.703 39.301-59.209 59.29-6.941 7.12-13.948 14.187-20.876 21.359a18.982 18.982 0 0 1-5.141 3.742 126.382 126.382 0 0 0-17.287 10.653 1.304 1.304 0 0 1-.901.222c-.065-.026-.143-.157-.613-.587ZM618.25 98.93h3.119c.326.234.248.339 0 .56-12.226 12.192-24.725 24.123-36.533 36.667s-23.825 24.162-35.789 36.236c-11.964 12.075-24.307 23.888-36.037 36.25-6.25 6.519-12.734 12.909-18.997 19.467-.6.626-1.226 1.226-2.048 2.048l-4.228-7.25c21.568-20.016 41.752-41.322 62.85-61.95l1.683 2.243 28.9-28.883h1.67l35.41-35.389ZM103.374 453.495c9.577-9.571 18.619-19.103 28.209-28.061 11.99-11.214 23.316-23.08 35.228-34.594 1.396 3.273 3.392 6.22 4.984 9.128l-62.327 62.302c-1.566-.756-1.945-2.816-3.067-4.251-1.122-1.434-1.97-2.934-3.027-4.524Zm207.845-259.823h-2.74c-.391-.221-.313-.312-.078-.534l26.891-26.9 2.231-2.23c-.613-.717-1.448 0-1.957-.626 9.642-10.092 19.975-19.559 29.356-29.834v-.326c-.469-.665-1.304 0-1.905-.548 22.533-23.392 46.527-45.298 69.152-68.717l3.301 1.682c7.671-9.127 16.4-17.068 24.607-25.466h3.366l-2.466 2.452c-2.909 2.907-5.871 5.763-8.729 8.736-26.929 28.178-54.916 55.365-82.394 83.048-9.055 10.509-19.375 19.793-29.069 29.677-9.695 9.884-19.663 19.703-29.566 29.586Zm157.9 15.987h-2.897l8.09-8.085c-1.866-1.095-2.323-2.855-3.68-4.172 20.041-20.498 41.256-39.849 60.945-60.425 1.304-.156 1.487.796 1.983 1.135l27.204-27.174h2.113l36.102-36.093a5.524 5.524 0 0 1 2.61.195c0 .274.091.678-.065.861-.653.743-1.397 1.434-2.101 2.138-13.465 13.457-27.23 26.653-40.316 40.422-11.743 12.414-24.034 24.293-36.024 36.511-11.991 12.218-24.464 24.044-36.259 36.51-5.91 6.141-12.082 11.996-17.705 18.177Zm-33.532-31.908-2.714-.169c1.057-2.126 2.753-3.247 4.084-4.655 1.331-1.408 2.831-2.817 4.266-4.238-1.187-.978-1.878-2.412-3.77-2.712 4.932-5.933 10.907-10.184 15.904-15.439 4.998-5.255 10.217-10.262 15.331-15.373l15.657-15.582h3.171c14.417-13.548 27.53-28.204 41.542-42.052h2.753c15.722-17.251 32.88-33.263 49.176-50.006h3.431c-8.285 8.293-16.491 16.286-24.463 24.566-27.4 28.23-55.387 55.926-83.204 83.778-13.021 14.526-27.595 27.591-41.164 41.882ZM84.599 204.17a45.844 45.844 0 0 1 1.644-4.642c2.284-4.629 4.697-9.127 6.955-13.822a8.491 8.491 0 0 1 1.683-2.295c4.41-4.407 8.572-9.127 13.282-13.156 7.737-6.663 14.352-14.344 21.985-21.293h3.235c13.048-13.235 26.552-26.079 39.025-39.979h2.949l40.147-40.122c1.487.17 2.687-1.043 4.331-1.604-.117 1.056-.743 1.304-1.135 1.747-19.206 19.207-38.672 38.127-57.552 57.66-24.177 25.036-49.097 49.302-73.548 73.959-.926.939-1.278 2.348-3 3.547ZM382.536 48.754c1.07 1.017 2.31.56 3.419.678 8.898-8.901 17.775-17.786 26.629-26.652h3.445l-2.192 2.203c-13.869 13.848-28.013 27.383-41.491 41.648-10.438 10.94-21.202 21.437-31.77 32.181-10.569 10.745-21.385 21.424-31.992 32.025a61.764 61.764 0 0 1-10.06 1.486c27.778-28.517 56.652-55.287 84.012-83.569Zm125.921-35.336c.639 0 1.5-.34 2.205.247.208.77-.327 1.07-.718 1.435-10.908 10.431-20.876 21.71-31.614 32.324-18.658 18.477-37.433 36.862-55.621 55.756-11.638 12.049-23.642 23.719-35.228 35.741-2.766.222-4.866-1.304-7.372-2.073 3.784-3.781 7.177-7.485 10.895-10.836 13.595-12.27 25.964-25.792 39.26-38.492h2.518l34.04-34.033h1.997c13.517-12.987 25.807-27.174 39.638-40.07ZM282.15 135.96c-4.463 1.382-8.429 2.83-13.309 3.912 4.502-4.498 8.298-8.671 12.513-12.335 1.97-1.708 3.914-3.456 5.767-5.294 18.684-18.62 37.185-37.423 56.103-55.835a7663.952 7663.952 0 0 1 20.707-20.145c2.035-.561 3.914.286 5.858.808-.235 1.304-1.305 1.917-2.048 2.608-16.584 16.612-33.467 32.963-49.724 49.889-11.951 12.4-24.294 24.357-35.867 36.392Zm91.514 58.025a1.022 1.022 0 0 1 .287-.899c.418-.352.783-.796 1.187-1.161 6.354-5.828 11.743-12.635 17.993-18.633l-1.488-.535c3.014-3.012 5.937-5.985 8.912-8.892 4.331-4.238 7.828-9.232 12.551-13.04-.365-.769-1.304-1.004-1.37-2.099l1.018-1.03c2.048-2.047 4.123-4.069 6.145-6.142 18.045-18.555 37.094-36.093 55.217-54.53 1.396-.665 1.905.795 2.818 1.069.913.274 1.501 1.226 2.375 1.786-8.99 8.971-18.267 17.656-26.839 26.94-11.168 12.061-23.068 23.366-34.588 35.062-11.521 11.697-23.186 23.106-34.654 34.789-1.814 1.852-3.458 3.912-5.219 5.829a12.806 12.806 0 0 1-2.61 1.812 1.158 1.158 0 0 1-1.735-.326Zm113.434-98.59c1.305.665 2.44.978 3.223 2.373 8.207-9.493 17.183-17.981 25.899-26.822h3.288l-.77.848c-27.491 28.438-55.634 56.225-83.595 84.208-8.115 9.558-17.588 17.798-26.094 26.887h-3.68l23.185-23.171c-.482-1.643-2.283-1.565-3.653-2.543 9.877-10.888 20.876-20.419 31.196-30.746 10.321-10.328 20.576-20.616 31.001-31.034Zm-100.295 66.227h-2.779c-.379-.196-.34-.3-.118-.522 1.736-1.721 3.419-3.494 5.219-5.216 3.849-3.598 6.772-8.032 11.117-11.735-1.449-.848-2.91-.769-3.823-1.721a.94.94 0 0 1 .548-1.095 15.52 15.52 0 0 0 4.188-3.56 51157.286 51157.286 0 0 0 52.659-52.653c2.244-2.256 5.219-3.703 6.785-6.22 1.552-.704 2.4 1.017 3.666.483L477.508 66.2h2.779c.366.182.313.274 0 .508-7.933 7.563-15.083 15.882-22.885 23.588-17.027 16.808-34.067 33.629-50.728 50.854-6.511 6.767-13.243 13.496-19.871 20.472Zm30.1-103.337c1.305 1.004 3.379.665 4.906 2.151L420.1 62.16c-7.568 7.562-15.318 14.93-22.651 22.701-19.988 21.176-41.073 41.244-61.322 62.028-.901 0-1.775.339-2.505-.274v-.391c4.605-5.215 9.876-9.884 14.756-15.099-1.305-.457-2.909.274-3.836-1.448 23.825-23.744 47.649-48.037 72.361-71.39Zm66.985 157.893c-1.304-2.516-3.04-4.264-4.018-6.663 6.015-6.011 11.742-12.374 18.188-18.02 6.445-5.646 12.043-12.048 18.436-17.799h3.196l22.69-22.675c.77 0 1.618-.378 1.983.678l18.671-18.673h3.392l-2.453 2.517c-7.828 7.824-15.97 15.543-23.589 23.653-17.497 18.647-36.024 36.25-53.925 54.479l-2.571 2.503Zm-4.436 315.422c-.261-.417.196-.521.366-.691 11.951-11.97 23.615-24.227 35.958-35.767 11.169-10.431 21.594-21.658 32.762-32.116.431.391.3.783-.078 1.304-3.04 4.199-6.237 8.28-9.303 12.453-1.305 1.799-2.949 3.494-4.332 5.216-2.048 2.607-4.762 4.72-6.458 7.641a7.99 7.99 0 0 1-1.396 1.421c-5.584 5.581-11.117 11.227-16.792 16.729-2.179 2.113-4.502 4.134-6.824 6.09-3.353 2.816-6.745 5.633-10.229 8.293-4.28 3.273-8.703 6.363-13.047 9.519-.131.13-.418-.04-.627-.092Zm-314.22-431.263-46.971 46.941a1.01 1.01 0 0 1 .144-.652c1.174-1.303 2.205-2.607 3.34-3.911 3.914-4.395 7.672-8.932 11.638-13.274 3.719-4.082 7.724-7.824 11.417-11.918 1.487-1.617 3.484-2.608 4.984-4.186a24.345 24.345 0 0 1 4.58-4.133c1.957-1.304 3.509-3.208 5.401-4.695 1.683-1.304 3.653-2.386 4.984-4.172.053-.17.522 0 .483 0Z" fill="url(#a)"/>
  <defs>
    <linearGradient id="a" x1="668" y1="617.999" x2="0" y2="617.999" gradientUnits="userSpaceOnUse">
      <stop stop-color="#FF007E"/>
      <stop offset="1" stop-color="#5708D3"/>
    </linearGradient>
  </defs>
</svg>