<svg version="1" xmlns="http://www.w3.org/2000/svg" width="346.667" height="346.667" viewBox="0 0 260.000000 260.000000"><path d="M12.4 45.1c-1.1.6-2.8 2.3-3.7 3.9C7.1 51.6 7 58.7 7 129.4c0 58 .3 78.2 1.2 80.1 1.4 3.1 5.5 5.5 9.3 5.5 2.6 0 8.4-3.7 75-48.5 16.5-11.1 54.6-36.7 84.7-56.9L232 72.9v113.2L199.1 164c-18.1-12.1-33.2-22-33.5-22-.4 0-4.5 2.6-9.1 5.7-6.9 4.5-8.3 5.9-7.3 6.9.7.7 21.2 14.5 45.5 30.8 28.2 18.9 45.1 29.6 46.7 29.6 4.2 0 7.4-1.8 9.1-4.9 2.2-4.4 2.3-156.6 0-161-1.6-3.1-3.4-4.2-8-4.8-3.6-.5-3.7-.4-66 41.4-25.5 17.2-46.7 31.3-47 31.3-.3 0-25-16.4-55-36.5-55.8-37.4-56.8-37.9-62.1-35.4zm97.9 83.8c.4.5-18.1 13.5-41.3 29l-42 28.2V72.9l41.3 27.7c22.6 15.2 41.6 27.9 42 28.3z"/></svg>