<svg xmlns="http://www.w3.org/2000/svg" height="24" width="24" viewBox="0 0 24 24"><title>multiple 11</title><g stroke-linecap="round" stroke-width="2" fill="none" stroke="#000000" stroke-linejoin="round" class="nc-icon-wrapper"><path d="M4,7L4,7 C2.895,7,2,6.105,2,5v0c0-1.105,0.895-2,2-2h0c1.105,0,2,0.895,2,2v0C6,6.105,5.105,7,4,7z" stroke="#000000"></path> <path d="M6,21H3v-4 l-2,0v-5c0-1.105,0.895-2,2-2h1" stroke="#000000"></path> <path d="M20,7L20,7 c1.105,0,2-0.895,2-2v0c0-1.105-0.895-2-2-2h0c-1.105,0-2,0.895-2,2v0C18,6.105,18.895,7,20,7z" stroke="#000000"></path> <path d="M18,21h3v-4 l2,0v-5c0-1.105-0.895-2-2-2h-1" stroke="#000000"></path> <path d="M12,7L12,7 c-1.657,0-3-1.343-3-3v0c0-1.657,1.343-3,3-3h0c1.657,0,3,1.343,3,3v0C15,5.657,13.657,7,12,7z"></path> <path d="M15,23H9v-6H7v-5 c0-1.105,0.895-2,2-2h6c1.105,0,2,0.895,2,2v6h-2V23z"></path></g></svg>