<svg id="Layer_1" xmlns="http://www.w3.org/2000/svg" viewBox="0 0 32 32"><style>.st0{fill:#2a2b2f}</style><title>social-icons</title><path class="st0" d="M24 11.2c-.6.3-1.2.4-1.9.5.7-.4 1.2-1.1 1.5-1.9-.7.4-1.4.6-2.1.8-.7-.6-1.5-1-2.4-1a3.4 3.4 0 0 0-3.4 3.2c0 .2 0 .5.1.7-2.7-.1-5.2-1.4-6.8-3.5-.3.5-.4 1-.5 1.6 0 1.1.6 2.2 1.5 2.8-.5 0-1.1-.1-1.5-.5 0 1.6 1.1 2.9 2.7 3.2-.3.1-.6.1-.9.1-.2 0-.4 0-.6-.1.5 1.3 1.7 2.2 3.2 2.2-1.2.9-2.7 1.4-4.2 1.4H8c1.5 1 3.3 1.5 5.1 1.5 5.1.1 9.4-4 9.5-9.1v-.6c.6-.2 1.1-.7 1.4-1.3z"/></svg>