<svg xmlns="http://www.w3.org/2000/svg" viewBox="0 0 16 12.6"><defs><style>.a{fill:#fff}</style></defs><title>social-twitter-inverted</title><path class="a" d="M16 1.6a5.92 5.92 0 0 1-1.9.5A3.58 3.58 0 0 0 15.6.2a9 9 0 0 1-2.1.8 3.69 3.69 0 0 0-2.4-1 3.4 3.4 0 0 0-3.4 3.2 1.7 1.7 0 0 0 .1.7A9 9 0 0 1 1 .4 4.28 4.28 0 0 0 .5 2 3.46 3.46 0 0 0 2 4.8a2.1 2.1 0 0 1-1.5-.5 3.22 3.22 0 0 0 2.7 3.2 2.77 2.77 0 0 1-.9.1 1.27 1.27 0 0 1-.6-.1 3.38 3.38 0 0 0 3.2 2.2 7.06 7.06 0 0 1-4.2 1.4H0a9.22 9.22 0 0 0 5.1 1.5 9.35 9.35 0 0 0 9.5-9.1v-.6A2.54 2.54 0 0 0 16 1.6z"/></svg>