<svg width="101" height="48" viewBox="0 0 101 48" fill="none" xmlns="http://www.w3.org/2000/svg">
<g clip-path="url(#clip0_319_705)">
<path d="M0 0H100.077V48H0V0Z" fill="white"/>
<path d="M13.8996 12.417L17.9768 22.9807H21.8687V8.71047H19.0888V18.5329L15.1969 8.71047H11.1197V22.9807H13.8996V12.417ZM29.2819 21.1275C27.6139 21.1275 27.4286 19.4595 27.4286 15.9383C27.4286 12.2317 27.6139 10.7491 29.2819 10.7491C30.2085 10.7491 30.5791 11.4904 30.5791 13.3437H33.3591C33.5444 10.1931 32.2471 8.52515 29.0965 8.52515C24.0927 8.52515 24.0927 12.2317 24.0927 15.9383C24.0927 19.6448 24.0927 23.3514 29.0965 23.3514C31.8764 23.3514 33.3591 22.0541 33.3591 18.3475H30.3938C30.5791 19.2742 30.5791 21.1275 29.2819 21.1275ZM48.7413 19.0889C48.7413 14.641 42.6255 14.8263 42.6255 12.0464C42.6255 11.1197 43.1815 10.5638 44.1081 10.5638C45.4054 10.5638 45.5907 11.6757 45.5907 12.7877H48.556C48.7413 9.82244 47.2587 8.52515 44.2934 8.52515C40.5869 8.52515 39.4749 10.3784 39.4749 12.6024C39.4749 16.8649 45.5907 17.0502 45.5907 19.6448C45.5907 20.5715 45.0347 21.3128 44.1081 21.3128C42.6255 21.1275 42.6255 20.0155 42.6255 18.5329H39.6602C39.4749 20.9421 40.2162 23.1661 43.9228 23.1661C46.1467 23.1661 48.7413 22.7954 48.7413 19.0889ZM53.1892 22.9807H56.1544V11.1197H59.4903V8.71047H49.8533V11.1197H53.1892V22.9807ZM62.6409 8.71047L58.749 22.9807H61.7143L62.4556 19.8302H66.5328L67.2741 22.9807H70.4247L66.5328 8.71047H62.6409ZM63.0116 17.6062L64.3089 11.4904L65.7915 17.6062H63.0116ZM75.7992 22.9807V11.1197H79.1351V8.71047H69.4981V11.1197H72.834V22.9807H75.7992ZM88.5869 20.7568H83.583V16.6796H88.0309V14.4556H83.583V10.9344H88.4015V8.71047H80.6178V22.9807H88.5869V20.7568ZM17.0502 35.0271C17.0502 36.5097 17.0502 38.7336 14.6409 38.7336C12.2317 38.7336 12.2317 36.5097 12.2317 35.0271V27.6139H11.1197V35.7684C11.1197 38.7336 12.7876 39.6603 14.6409 39.6603C16.4942 39.6603 17.9768 38.919 17.9768 35.7684V27.6139H17.0502V35.0271ZM27.4286 37.807L22.7954 27.6139H21.1274V39.2896H22.2394V28.9112L27.0579 39.2896H28.5405V27.6139H27.4286V37.807ZM31.8764 27.6139H32.9884V39.2896H31.8764V27.6139ZM38.9189 37.9923L36.139 27.6139H35.027L38.3629 39.2896H39.6602L42.8108 27.6139H41.8842L38.9189 37.9923ZM45.9614 33.7298H50.0386V32.8031H45.9614V28.5406H50.2239V27.6139H45.0347V39.2896H50.4093V38.363H45.9614V33.7298ZM57.0811 33.1738C58.749 32.8031 58.9344 31.8765 58.9344 30.3939C58.9344 28.3553 58.3784 27.6139 56.1544 27.6139H53.0039V39.2896H53.7452V33.5445H55.7838C58.0077 33.5445 57.6371 35.7684 57.6371 36.3244C57.6371 36.8804 57.6371 38.919 57.8224 39.2896H58.749C58.749 38.919 58.5637 38.363 58.5637 37.9923C58.749 33.7298 58.749 33.5445 57.0811 33.1738ZM55.5985 32.8031H53.7452V28.5406H55.7838C57.0811 28.5406 57.6371 28.9112 57.6371 30.3939C57.8224 32.4325 57.0811 32.8031 55.5985 32.8031ZM64.8649 32.8031C63.5676 31.8765 62.6409 31.8765 62.6409 30.0232C62.6409 28.7259 63.3822 28.1699 64.6795 28.1699C66.3475 28.1699 66.7181 29.0966 66.7181 30.5792H67.8301C67.8301 28.9112 67.2741 27.4286 64.8649 27.4286C63.0116 27.4286 61.7143 28.3553 61.7143 30.3939C61.7143 31.5058 61.8996 32.2472 64.1235 33.7298C65.7915 34.8417 66.9035 35.2124 66.9035 36.8804C66.9035 38.1777 66.1622 38.919 64.8649 38.919C62.8263 38.919 62.6409 37.6217 62.6409 36.3244H61.529C61.3436 38.5483 62.4556 39.8456 64.6795 39.8456C66.7181 39.8456 67.8301 38.7336 67.8301 36.695C67.8301 34.1004 66.3475 33.9151 64.8649 32.8031ZM70.61 27.6139H71.722V39.2896H70.61V27.6139ZM73.9459 28.5406H76.9112V39.2896H77.8378V28.5406H80.8031V27.6139H73.9459V28.5406ZM88.5869 27.6139L85.8069 33.3591L83.027 27.6139H81.9151L85.251 34.4711V39.2896H86.1776V34.4711L89.6988 27.6139H88.5869Z" fill="#1A1A1A"/>
</g>
<defs>
<clipPath id="clip0_319_705">
<rect width="100.077" height="48" fill="white"/>
</clipPath>
</defs>
</svg>
