<svg width="170" height="24" viewBox="0 0 170 24" fill="none" xmlns="http://www.w3.org/2000/svg">
<path d="M70.915 15.0773H81.2955L75.812 6.25264L65.7376 22.1931H61.1467L73.389 3.03905C73.9246 2.2739 74.8173 1.78931 75.7864 1.78931C76.7301 1.78931 77.6228 2.2484 78.1329 2.98803L90.4262 22.1676H85.8353L83.6674 18.597H73.1594L70.915 15.0773ZM118.481 18.648V2.01886H114.605V20.2803C114.605 20.7904 114.809 21.275 115.166 21.632C115.548 22.0146 116.033 22.2186 116.594 22.2186H134.32L136.615 18.648H118.481ZM54.1839 15.6639C57.9586 15.6639 61.0192 12.6288 61.0192 8.85413C61.0192 5.07943 57.9586 2.01886 54.1839 2.01886H37.1722V22.2186H41.0489V5.58953H53.9033C55.7142 5.58953 57.1679 7.0688 57.1679 8.85413C57.1679 10.665 55.7142 12.1187 53.9033 12.1187L42.9363 12.0932L54.541 22.1931H60.1775L52.3985 15.6639H54.1839ZM13.2742 22.1931C7.68867 22.1931 3.17432 17.6788 3.17432 12.0932C3.17432 6.5077 7.68867 1.99336 13.2742 1.99336H25.0064C30.592 1.99336 35.1063 6.5332 35.1063 12.0932C35.1063 17.6788 30.592 22.1931 25.0064 22.1931H13.2742ZM24.7514 18.648C28.3731 18.648 31.2806 15.7404 31.2806 12.1187C31.2806 8.49706 28.3475 5.56403 24.7514 5.56403H13.5293C9.90759 5.56403 7.00003 8.49706 7.00003 12.1187C7.00003 15.7404 9.93309 18.648 13.5293 18.648H24.7514ZM98.5367 22.1931C92.9512 22.1931 88.4368 17.6788 88.4368 12.0932C88.4368 6.5077 92.9767 1.99336 98.5367 1.99336H112.488L110.218 5.56403H98.7918C95.1701 5.56403 92.237 8.49706 92.237 12.1187C92.237 15.7404 95.1701 18.648 98.7918 18.648H112.794L110.498 22.2186H98.5367V22.1931ZM146.052 18.648C143.068 18.648 140.543 16.6586 139.752 13.8786H156.356L158.651 10.3079H139.752C140.518 7.5789 143.068 5.53851 146.052 5.53851H157.453L159.748 1.96784H145.772C140.186 1.96784 135.672 6.5077 135.672 12.0677C135.672 17.6533 140.212 22.1676 145.772 22.1676H157.759L160.054 18.597H146.052V18.648ZM161.84 4.13575C161.84 3.14106 162.63 2.35041 163.625 2.35041C164.62 2.35041 165.41 3.14106 165.41 4.13575C165.41 5.13044 164.62 5.92108 163.625 5.92108C162.63 5.94659 161.84 5.15594 161.84 4.13575ZM163.625 6.43118C164.875 6.43118 165.895 5.411 165.895 4.16126C165.895 2.91153 164.875 1.89133 163.625 1.89133C162.375 1.89133 161.355 2.91153 161.355 4.16126C161.355 5.411 162.375 6.43118 163.625 6.43118ZM163.421 2.8095C163.778 2.8095 163.931 2.83502 164.084 2.88602C164.543 3.03905 164.594 3.42162 164.594 3.60016C164.594 3.62566 164.594 3.70217 164.569 3.80419C164.543 3.90621 164.492 4.08475 164.263 4.23778C164.237 4.26328 164.212 4.26328 164.161 4.31429L164.747 5.35998H164.186L163.676 4.3908H163.319V5.35998H162.809V2.8095H163.421ZM163.599 3.95721C163.752 3.93171 163.931 3.93171 164.007 3.80419C164.058 3.72768 164.084 3.67666 164.084 3.57464C164.084 3.44712 164.007 3.34511 163.88 3.2686C163.778 3.21759 163.65 3.21758 163.421 3.21758H163.268V3.95721H163.599Z" fill="white"/>
</svg>
