<svg width="180" height="40" viewBox="0 0 180 40" fill="none" xmlns="http://www.w3.org/2000/svg">
<g clip-path="url(#clip0_319_659)">
<path d="M55.9733 10.2659H53.5359V29.4241H65.6861V27.0414H55.9733V10.2659Z" fill="white"/>
<path d="M158.638 17.1403L157.016 15.7302L152.354 21.0911L147.734 15.7728L147.692 15.7302L146.069 17.1403L150.925 22.7322L146.105 28.2754L146.069 28.3241L147.692 29.7342L152.354 24.3733L156.973 29.6916L157.016 29.7342L158.638 28.3241L153.782 22.7322L158.602 17.189L158.638 17.1403Z" fill="white"/>
<path d="M126.789 24.0389L113.721 10.2659H113.241V29.4241H115.678V15.6511L128.746 29.4241H129.227V10.2659H126.789V24.0389Z" fill="white"/>
<path d="M163.385 16.0339H161.082V29.424H163.385V16.0339Z" fill="white"/>
<path d="M163.495 10.2659H160.973V12.4236H163.495V10.2659Z" fill="white"/>
<path d="M138.812 15.803C137.912 15.8067 137.023 15.99 136.196 16.3422C135.368 16.6943 134.619 17.2082 133.993 17.8536C133.367 18.499 132.876 19.263 132.549 20.1007C132.222 20.9385 132.066 21.8331 132.089 22.732C132.07 23.6422 132.235 24.5468 132.574 25.3918C132.913 26.2368 133.418 27.0048 134.061 27.65C134.703 28.2951 135.469 28.8041 136.312 29.1465C137.156 29.4889 138.06 29.6577 138.97 29.6428C139.967 29.6592 140.957 29.4756 141.882 29.103C142.807 28.7303 143.648 28.176 144.355 27.4729L142.714 26.0446C141.692 26.971 140.362 27.4844 138.982 27.4851C137.84 27.4968 136.738 27.0703 135.901 26.2935C135.064 25.5168 134.557 24.4488 134.484 23.3094H145.358C145.267 18.526 142.562 15.803 138.812 15.803ZM134.557 21.2733C134.75 20.3288 135.263 19.4799 136.009 18.8698C136.756 18.2597 137.69 17.9257 138.654 17.9242C139.636 17.8481 140.609 18.1539 141.371 18.7778C142.133 19.4017 142.625 20.2956 142.744 21.2733H134.557Z" fill="white"/>
<path d="M171.858 21.7962L170.716 21.395C169.105 20.8298 168.686 20.1794 168.686 19.3589C168.686 18.4228 169.603 17.8819 170.661 17.8819C171.091 17.8776 171.516 17.9693 171.906 18.1501C172.297 18.3309 172.641 18.5964 172.916 18.9273L174.478 17.5719C174.019 17.0053 173.436 16.5513 172.775 16.2448C172.113 15.9382 171.39 15.7871 170.661 15.8032C168.126 15.8032 166.321 17.3592 166.321 19.3649C166.321 20.9756 167.184 22.4465 169.634 23.3279L170.716 23.729C172.357 24.2943 173.08 24.8535 173.08 25.8746C173.08 26.8957 171.968 27.5582 170.606 27.5582C169.965 27.5538 169.333 27.3992 168.762 27.1068C168.191 26.8144 167.697 26.3924 167.318 25.8746L165.677 27.3516C166.261 28.0785 167.002 28.6646 167.844 29.0666C168.685 29.4685 169.607 29.6759 170.539 29.6734C173.578 29.6734 175.463 27.9837 175.463 25.8442C175.475 23.8323 174.223 22.6228 171.858 21.7962Z" fill="white"/>
<path d="M93.1834 17.1403L91.5605 15.7302L86.8986 21.0911L82.2732 15.7728L82.2307 15.7302L80.6078 17.1403L85.4703 22.7322L80.6504 28.2754L80.6078 28.3241L82.2307 29.7342L86.8986 24.3733L91.518 29.6916L91.5605 29.7342L93.1834 28.3241L88.3209 22.7322L93.1409 17.189L93.1834 17.1403Z" fill="white"/>
<path d="M97.9243 16.0339H95.6207V29.424H97.9243V16.0339Z" fill="white"/>
<path d="M98.0337 10.2659H95.5113V12.4236H98.0337V10.2659Z" fill="white"/>
<path d="M73.3505 15.803C72.4513 15.8067 71.5618 15.99 70.7344 16.3422C69.9069 16.6943 69.1581 17.2082 68.532 17.8536C67.9058 18.499 67.4148 19.263 67.0879 20.1007C66.761 20.9385 66.6047 21.8331 66.6282 22.732C66.6099 23.6451 66.7764 24.5524 67.1177 25.3995C67.4589 26.2466 67.9678 27.016 68.6139 27.6614C69.2599 28.3069 70.0297 28.8152 70.8771 29.1556C71.7245 29.4961 72.632 29.6618 73.545 29.6428C74.5412 29.6594 75.5306 29.4759 76.4546 29.1032C77.3786 28.7305 78.2183 28.1761 78.9242 27.4729L77.2892 26.0446C76.262 26.9694 74.9272 27.4786 73.545 27.4729C72.4034 27.4846 71.3008 27.0582 70.4641 26.2814C69.6274 25.5046 69.1203 24.4366 69.0472 23.2973H79.9149C79.8359 18.526 77.1007 15.803 73.3505 15.803ZM69.0959 21.2733C69.29 20.3294 69.8033 19.4811 70.5494 18.8711C71.2955 18.2612 72.2288 17.9268 73.1925 17.9242C74.1711 17.8545 75.1391 18.1631 75.8969 18.7862C76.6546 19.4094 77.1443 20.2996 77.2648 21.2733H69.0959Z" fill="white"/>
<path d="M106.397 21.7961L105.261 21.395C103.644 20.8297 103.224 20.1793 103.224 19.3588C103.224 18.4228 104.148 17.8818 105.206 17.8818C105.636 17.878 106.061 17.9698 106.451 18.1506C106.841 18.3314 107.186 18.5967 107.461 18.9272L109.023 17.5718C108.564 17.0056 107.981 16.5519 107.319 16.2453C106.658 15.9388 105.935 15.7875 105.206 15.8031C102.671 15.8031 100.86 17.3591 100.86 19.3649C100.86 20.9756 101.723 22.4465 104.173 23.3278L105.261 23.7289C106.902 24.2942 107.625 24.8534 107.625 25.8745C107.625 26.8956 106.513 27.5581 105.145 27.5581C104.504 27.5542 103.874 27.3997 103.303 27.1073C102.733 26.8149 102.24 26.3926 101.863 25.8745L100.216 27.3515C100.801 28.0778 101.541 28.6634 102.383 29.0653C103.225 29.4671 104.146 29.6749 105.078 29.6733C108.117 29.6733 110.008 27.9836 110.008 25.8441C110.014 23.8323 108.798 22.6227 106.397 21.7961Z" fill="white"/>
<path d="M177.383 12.4175C176.91 12.4191 176.458 12.6081 176.124 12.943C175.79 13.278 175.602 13.7316 175.602 14.2044C175.604 14.5564 175.709 14.9001 175.906 15.1922C176.102 15.4843 176.381 15.7116 176.706 15.8454C177.032 15.9793 177.389 16.0137 177.735 15.9443C178.08 15.8749 178.396 15.7048 178.645 15.4555C178.893 15.2062 179.062 14.8889 179.13 14.5436C179.199 14.1983 179.163 13.8405 179.028 13.5155C178.893 13.1904 178.665 12.9126 178.372 12.7172C178.079 12.5218 177.735 12.4175 177.383 12.4175ZM177.383 15.7118C176.98 15.7118 176.594 15.5517 176.309 15.2668C176.024 14.9818 175.864 14.5953 175.864 14.1923C175.864 13.7893 176.024 13.4028 176.309 13.1178C176.594 12.8329 176.98 12.6728 177.383 12.6728C177.786 12.6728 178.173 12.8329 178.458 13.1178C178.743 13.4028 178.903 13.7893 178.903 14.1923C178.903 14.5953 178.743 14.9818 178.458 15.2668C178.173 15.5517 177.786 15.7118 177.383 15.7118Z" fill="white"/>
<path d="M178.131 13.7486C178.131 13.3839 177.87 13.1711 177.414 13.1711H176.709V15.1952H177.037V14.3442H177.389L177.851 15.183H178.204L177.724 14.2956C177.848 14.2719 177.958 14.2026 178.034 14.1013C178.109 14 178.144 13.8742 178.131 13.7486ZM177.402 14.0585H177.037V13.4507H177.389C177.681 13.4507 177.809 13.5358 177.809 13.7303C177.809 13.9248 177.687 14.0585 177.402 14.0585Z" fill="white"/>
<path d="M41.9389 6.68579C41.4822 6.71242 41.0529 6.9126 40.739 7.24537C40.4251 7.57813 40.2502 8.01831 40.2502 8.47579C40.2502 8.93327 40.4251 9.37345 40.739 9.70622C41.0529 10.039 41.4822 10.2392 41.9389 10.2658C42.3956 10.2392 42.8249 10.039 43.1388 9.70622C43.4527 9.37345 43.6276 8.93327 43.6276 8.47579C43.6276 8.01831 43.4527 7.57813 43.1388 7.24537C42.8249 6.9126 42.3956 6.71242 41.9389 6.68579ZM41.9389 9.98012C41.7419 9.98098 41.5466 9.94239 41.3647 9.86663C41.1828 9.79088 41.0179 9.67948 40.8797 9.53901C40.7415 9.39855 40.6328 9.23184 40.56 9.04872C40.4872 8.8656 40.4518 8.66977 40.4558 8.47275C40.4429 8.27042 40.4715 8.06757 40.54 7.87674C40.6085 7.68592 40.7155 7.51117 40.8542 7.36328C40.9929 7.2154 41.1604 7.09753 41.3465 7.01695C41.5325 6.93637 41.7331 6.8948 41.9359 6.8948C42.1386 6.8948 42.3392 6.93637 42.5253 7.01695C42.7113 7.09753 42.8789 7.2154 43.0176 7.36328C43.1563 7.51117 43.2632 7.68592 43.3317 7.87674C43.4002 8.06757 43.4289 8.27042 43.4159 8.47275C43.4199 8.66926 43.3847 8.86459 43.3123 9.04731C43.2399 9.23002 43.1317 9.39645 42.9942 9.53684C42.8566 9.67722 42.6924 9.78874 42.5112 9.86486C42.33 9.94098 42.1354 9.98017 41.9389 9.98012Z" fill="white"/>
<path d="M42.7048 8.01712C42.7048 7.65243 42.4434 7.4397 41.9875 7.4397H41.2764V9.45155H41.6107V8.61277H41.9389L42.3948 9.45155H42.7534L42.2732 8.56415C42.401 8.54458 42.5167 8.47722 42.5968 8.37569C42.6769 8.27415 42.7155 8.146 42.7048 8.01712ZM41.9693 8.3271H41.6107V7.71929H41.9389C42.2246 7.71929 42.3522 7.80438 42.3522 7.99888C42.3522 8.19338 42.255 8.3271 41.9693 8.3271Z" fill="white"/>
<path d="M7.5186 17.9061C9.61653 13.7201 13.0341 10.341 17.2436 8.29059C17.7237 8.05962 18.2161 7.84688 18.7084 7.68278C18.7163 7.67962 18.7231 7.67417 18.7278 7.66712C18.7326 7.66008 18.7351 7.65177 18.7351 7.64327C18.7351 7.63476 18.7326 7.62645 18.7278 7.61941C18.7231 7.61237 18.7163 7.60692 18.7084 7.60376C4.03585 10.0472 -2.25499 28.2693 7.53684 36.0675C7.54409 36.0748 7.55393 36.0788 7.56419 36.0788C7.57445 36.0788 7.58429 36.0748 7.59154 36.0675C7.59879 36.0603 7.60287 36.0504 7.60287 36.0402C7.60287 36.0299 7.59879 36.0201 7.59154 36.0128C6.16926 34.0374 2.82023 27.3515 7.5186 17.9061Z" fill="white"/>
<path d="M10.8798 30.0561C10.4968 27.6685 10.4968 25.2351 10.8798 22.8475C11.6369 18.1878 13.8572 13.8899 17.2193 10.5758C17.8291 9.98002 18.4746 9.42183 19.1521 8.90433C19.1571 8.89742 19.16 8.88914 19.1603 8.88059C19.1605 8.87203 19.1582 8.8636 19.1536 8.85637C19.149 8.84915 19.1424 8.84349 19.1345 8.84011C19.1266 8.83674 19.1179 8.83582 19.1095 8.83747C11.4451 12.2594 7.02628 20.8113 7.56115 28.5974C7.87721 32.1531 9.27518 38.7053 16.0705 39.9999C16.0768 39.9961 16.082 39.9908 16.0856 39.9844C16.0892 39.978 16.0911 39.9708 16.0911 39.9634C16.0911 39.9561 16.0892 39.9489 16.0856 39.9425C16.082 39.9361 16.0768 39.9308 16.0705 39.927C13.3718 38.0002 11.3782 33.4842 10.8798 30.0561Z" fill="white"/>
<path d="M1.41011 12.5026C4.86247 7.66439 11.8705 4.39437 18.7388 5.2453C18.7467 5.24215 18.7534 5.2367 18.7582 5.22965C18.763 5.22261 18.7655 5.2143 18.7655 5.2058C18.7655 5.19729 18.763 5.18898 18.7582 5.18194C18.7534 5.1749 18.7467 5.16945 18.7388 5.16629C13.5116 3.64676 8.05955 4.66181 4.72875 7.35441C3.29432 8.50925 2.18811 10.5029 1.34325 12.46C1.32502 12.5026 1.3858 12.539 1.41011 12.5026Z" fill="white"/>
<path d="M18.1553 0.0850818C14.1085 0.464013 10.2671 2.0429 7.12353 4.61935C7.08707 4.64974 7.12353 4.70444 7.17216 4.68013C9.7979 3.17884 13.4083 3.21531 15.5417 3.46451C16.6603 3.59975 17.7647 3.83365 18.8421 4.16349C19.9186 4.50449 20.9622 4.94186 21.9602 5.47028C22.4768 5.7438 22.9752 6.04162 23.4615 6.35769C25.2606 5.56361 27.1607 5.0216 29.108 4.74699C29.1745 4.73543 29.243 4.74728 29.3017 4.78053C29.3605 4.81378 29.4059 4.86636 29.4302 4.92933C29.4441 4.96796 29.4498 5.0091 29.4467 5.05007C29.4437 5.09103 29.432 5.13089 29.4125 5.16704C29.393 5.20318 29.3661 5.2348 29.3335 5.25983C29.301 5.28485 29.2635 5.30272 29.2235 5.31225C28.1899 5.53216 27.174 5.82878 26.1845 6.19966C26.1766 6.20281 26.1698 6.20826 26.165 6.21531C26.1603 6.22235 26.1577 6.23066 26.1577 6.23916C26.1577 6.24767 26.1603 6.25598 26.165 6.26302C26.1698 6.27006 26.1766 6.27551 26.1845 6.27867C27.5797 6.28538 28.9707 6.43405 30.3358 6.72237C30.3954 6.73392 30.45 6.76339 30.4924 6.80684C30.5347 6.85029 30.5628 6.90565 30.5729 6.9655C30.5779 7.00955 30.5728 7.05416 30.5579 7.09594C30.5431 7.13772 30.519 7.17558 30.4873 7.20663C30.4557 7.23769 30.4174 7.26112 30.3753 7.27516C30.3333 7.28919 30.2886 7.29346 30.2446 7.28764C29.0525 7.10445 27.8458 7.03323 26.6403 7.0749C26.6324 7.07806 26.6257 7.08351 26.6209 7.09055C26.6161 7.09759 26.6136 7.1059 26.6136 7.11441C26.6136 7.12291 26.6161 7.13122 26.6209 7.13827C26.6257 7.14531 26.6324 7.15076 26.6403 7.15392C27.2056 7.33018 27.7587 7.52468 28.3057 7.76173C29.3255 8.1814 30.3093 8.6835 31.2475 9.26302C31.2929 9.2888 31.3297 9.32727 31.3535 9.37371C31.3772 9.42015 31.3869 9.47252 31.3812 9.52438C31.3728 9.56486 31.3556 9.60297 31.3307 9.63597C31.3058 9.66897 31.2738 9.69604 31.2372 9.71523C31.2006 9.73441 31.1602 9.74523 31.1189 9.74691C31.0776 9.7486 31.0364 9.7411 30.9983 9.72496C30.0634 9.21234 29.09 8.77338 28.0869 8.41208C27.6675 8.26621 27.236 8.13249 26.8044 8.01093C26.7965 8.01409 26.7898 8.01954 26.785 8.02658C26.7802 8.03362 26.7777 8.04193 26.7777 8.05044C26.7777 8.05894 26.7802 8.06725 26.785 8.0743C26.7898 8.08134 26.7965 8.08679 26.8044 8.08995C27.5085 8.53048 28.1808 9.01996 28.8163 9.55477C29.6601 10.2639 30.4429 11.0426 31.1564 11.8827C31.1904 11.921 31.213 11.968 31.2216 12.0185C31.2302 12.0691 31.2244 12.121 31.205 12.1684C31.1867 12.2127 31.1576 12.2518 31.1202 12.282C31.0829 12.3121 31.0385 12.3324 30.9913 12.3408C30.944 12.3493 30.8954 12.3458 30.8499 12.3305C30.8044 12.3152 30.7635 12.2887 30.7309 12.2534C30.0121 11.4668 29.2294 10.741 28.3908 10.0836C27.8924 9.70064 27.3697 9.34203 26.8348 9.00774C26.826 9.00412 26.8162 9.00356 26.8071 9.00616C26.7979 9.00876 26.7899 9.01436 26.7843 9.02207C26.7786 9.02978 26.7758 9.03915 26.7761 9.04867C26.7765 9.0582 26.78 9.06733 26.7862 9.0746C26.9382 9.23263 27.0901 9.39674 27.236 9.56085C27.9587 10.3986 28.6074 11.2975 29.1749 12.2474C29.7396 13.1973 30.2177 14.1961 30.6032 15.2317C30.6217 15.2807 30.6264 15.3338 30.6168 15.3853C30.6071 15.4367 30.5835 15.4845 30.5485 15.5235C30.5149 15.5585 30.4731 15.5845 30.4269 15.5993C30.3806 15.614 30.3314 15.617 30.2838 15.6079C30.2361 15.5989 30.1914 15.5781 30.1538 15.5474C30.1162 15.5167 30.0868 15.4772 30.0684 15.4323C28.8685 12.4547 26.8783 9.86123 24.3124 7.93191C24.0693 7.75565 23.7046 7.50645 23.5587 7.4092C6.87433 16.6965 12.6546 41.088 24.671 39.8176C29.6289 38.6278 33.9529 35.6058 36.7742 31.3588C39.5954 27.1118 40.705 21.9545 39.8799 16.923C39.0548 11.8915 36.3561 7.35871 32.3262 4.23524C28.2962 1.11177 23.2335 -0.370912 18.1553 0.0850818Z" fill="white"/>
<path d="M3.93861 15.4991C7.77997 9.42096 14.472 6.78914 18.5747 6.38191C18.5826 6.37875 18.5893 6.3733 18.5941 6.36626C18.5989 6.35922 18.6014 6.35091 18.6014 6.3424C18.6014 6.3339 18.5989 6.32558 18.5941 6.31854C18.5893 6.3115 18.5826 6.30605 18.5747 6.30289C16.7921 6.15908 14.9981 6.29235 13.2563 6.69797C11.1754 7.16318 9.19082 7.98578 7.39097 9.12921C5.59246 10.2938 4.01587 11.7695 2.73514 13.4872L2.69259 13.5358C1.48184 15.1805 0.649191 17.0722 0.254133 19.0758C-0.140926 21.0795 -0.0886496 23.1457 0.407228 25.1268C0.522712 25.5887 0.832695 26.5369 1.01504 27.1447C1.01819 27.1526 1.02365 27.1594 1.03069 27.1642C1.03773 27.1689 1.04604 27.1715 1.05455 27.1715C1.06305 27.1715 1.07136 27.1689 1.0784 27.1642C1.08545 27.1594 1.0909 27.1526 1.09405 27.1447C0.652514 23.0497 1.65894 18.9294 3.93861 15.4991Z" fill="white"/>
</g>
<defs>
<clipPath id="clip0_319_659">
<rect width="179.158" height="40" fill="white"/>
</clipPath>
</defs>
</svg>
