<svg width="192" height="40" viewBox="0 0 192 40" fill="none" xmlns="http://www.w3.org/2000/svg">
<path d="M17.9646 30.2656C23.7807 30.2656 28.4956 25.5507 28.4956 19.7346C28.4956 13.9185 23.7807 9.20361 17.9646 9.20361C12.1485 9.20361 7.43362 13.9185 7.43362 19.7346C7.43362 25.5507 12.1485 30.2656 17.9646 30.2656Z" fill="#1A1A1A"/>
<path d="M55.8407 6.28307C51.3274 6.28307 44.4248 4.15918 44.4248 4.15918C44.4248 4.15918 42.9203 8.05299 42.9203 13.3627C42.9203 18.6725 47.3451 32.6548 56.2832 36.1946C56.2832 36.1946 69.0265 28.1415 69.0265 14.0707C69.0265 5.6636 67.7876 4.15918 67.7876 4.15918C67.7876 4.15918 60.354 6.28307 55.8407 6.28307Z" fill="#1A1A1A"/>
<path d="M82.1239 17.1682V1.94699H87.8761C90.6195 1.77 93.3628 2.92044 93.3628 5.92929C93.3628 7.61071 92.2124 8.76115 90.708 9.29212C92.6549 9.7346 94.0708 11.062 94.0708 13.2744C94.0708 16.2833 90.2655 17.4337 87.9646 17.2567H82.1239V17.1682ZM87.9646 8.05318C89.3805 8.05318 90.0885 7.52221 90.0885 6.28327C90.0885 5.04433 89.292 4.51336 87.9646 4.51336H85.3982V8.14168L87.9646 8.05318C87.9646 8.14168 87.9646 8.05318 87.9646 8.05318ZM87.9646 14.6019C89.469 14.6019 90.531 14.3364 90.531 12.5665C90.531 10.7965 89.469 10.5311 87.9646 10.5311H85.3982V14.6019H87.9646ZM99.292 1.94699V17.1682H96.1062V1.94699H99.292ZM108.938 15.8408C108.23 16.8142 107.257 17.4337 105.664 17.4337C104.602 17.4337 102.566 16.6373 102.212 15.1328C102.035 14.5134 102.035 13.8054 102.035 13.4514V6.54876H105.221V12.9204C105.221 14.0709 105.575 15.3983 107.08 15.3983C108.053 15.3983 108.938 14.5134 108.938 12.9204V6.54876H112.124V15.2213C112.124 15.8408 112.212 16.4603 112.212 17.0797H109.027L108.938 15.8408ZM117.699 12.7434C117.699 14.1594 117.876 15.3983 119.558 15.3983C120.619 15.3983 121.239 14.9558 121.504 13.9824H124.336C124.071 16.6373 122.035 17.4337 119.558 17.4337C115.929 17.4337 114.425 15.3983 114.425 11.8585C114.425 8.67265 116.283 6.19478 119.558 6.19478C121.504 6.19478 123.186 6.90274 124.071 8.76115C124.336 9.38062 124.513 10.0001 124.602 10.6196C124.69 11.239 124.69 11.947 124.69 12.655H117.699V12.7434ZM121.416 10.6196C121.416 9.46911 121.062 8.40717 119.558 8.40717C118.142 8.40717 117.788 9.46911 117.699 10.6196H121.416ZM135.398 6.81425C135.398 5.22133 134.425 3.89389 132.478 3.89389C130.177 3.89389 129.558 7.34522 129.558 9.46911C129.558 11.593 130.177 15.0443 132.478 15.0443C134.425 15.0443 135.398 13.7169 135.398 12.124H138.85C138.673 15.9293 135.929 17.3452 132.478 17.3452C128.053 17.3452 126.106 13.8939 126.106 9.38062C126.106 4.95584 128.053 1.41602 132.478 1.41602C136.018 1.41602 138.761 2.83194 138.85 6.63725H135.398V6.81425ZM143.451 6.54876L143.54 8.49566C144.248 6.81425 145.575 6.37177 147.168 6.46026V9.29212H145.752C145.221 9.29212 144.513 9.6461 144.248 10.0886C143.894 10.708 143.805 11.239 143.805 11.947V17.1682H140.619V8.67265C140.619 8.23017 140.531 7.34522 140.531 6.54876H143.451ZM154.071 17.5222C150.619 17.5222 148.496 15.2213 148.496 11.8585C148.496 8.49566 150.531 6.19478 154.071 6.19478C157.522 6.19478 159.646 8.49566 159.646 11.8585C159.646 15.2213 157.522 17.5222 154.071 17.5222ZM154.071 15.3983C156.018 15.3983 156.372 13.5399 156.372 11.8585C156.372 10.1771 156.018 8.31867 154.071 8.31867C152.124 8.31867 151.77 10.1771 151.77 11.8585C151.858 13.5399 152.124 15.3983 154.071 15.3983ZM167.257 9.38062C167.257 8.67265 166.549 8.31867 165.841 8.31867C164.956 8.31867 164.602 8.58416 164.602 9.29212C164.602 10.9735 170.708 10.0001 170.708 13.9824C170.708 16.2833 167.876 17.4337 165.929 17.4337C163.451 17.4337 161.327 16.4603 161.239 14.0709H164.159C164.248 14.8673 164.956 15.3983 165.929 15.3983C166.814 15.3983 167.434 15.0443 167.434 14.2479C167.434 13.3629 165.929 13.0089 165.31 12.9204C163.274 12.478 161.416 11.947 161.416 9.55761C161.416 7.34522 164.071 6.37177 165.929 6.37177C168.142 6.37177 170.088 7.16823 170.177 9.55761H167.257V9.38062ZM177.788 9.38062C177.788 8.67265 177.08 8.31867 176.372 8.31867C175.487 8.31867 175.133 8.58416 175.133 9.29212C175.133 10.9735 181.239 10.0001 181.239 13.9824C181.239 16.2833 178.407 17.4337 176.46 17.4337C173.982 17.4337 171.858 16.4603 171.77 14.0709H174.69C174.779 14.8673 175.487 15.3983 176.46 15.3983C177.345 15.3983 177.965 15.0443 177.965 14.2479C177.965 13.3629 176.46 13.0089 175.841 12.9204C173.805 12.478 171.947 11.947 171.947 9.55761C171.947 7.34522 174.602 6.37177 176.46 6.37177C178.673 6.37177 180.619 7.16823 180.708 9.55761H177.788V9.38062ZM82.1239 37.8762V22.655H87.8761C90.6195 22.478 93.3628 23.6284 93.3628 26.6373C93.3628 28.3187 92.2124 29.4691 90.708 30.0001C92.6549 30.4426 94.0708 31.77 94.0708 33.9824C94.0708 36.9912 90.2655 38.1417 87.9646 37.9647H82.1239V37.8762ZM87.9646 28.7611C89.3805 28.7611 90.0885 28.2302 90.0885 26.9912C90.0885 25.7523 89.292 25.2213 87.9646 25.2213H85.3982V28.8496L87.9646 28.7611ZM87.9646 35.3098C89.469 35.3098 90.531 35.0443 90.531 33.2744C90.531 31.5045 89.469 31.239 87.9646 31.239H85.3982V35.3098H87.9646ZM99.292 22.655V37.8762H96.1062V22.655H99.292ZM108.938 36.5488C108.23 37.5222 107.257 38.1417 105.664 38.1417C104.602 38.1417 102.566 37.3452 102.212 35.7523C102.035 35.1328 102.035 34.4249 102.035 34.0709V27.1682H105.221V33.6284C105.221 34.7788 105.575 36.1063 107.08 36.1063C108.053 36.1063 108.938 35.2213 108.938 33.6284V27.2567H112.124V35.9293C112.124 36.5488 112.212 37.1682 112.212 37.7877H109.027L108.938 36.5488ZM117.699 33.4514C117.699 34.8673 117.876 36.1063 119.558 36.1063C120.619 36.1063 121.239 35.6638 121.504 34.6904H124.336C124.071 37.3452 122.035 38.1417 119.558 38.1417C115.929 38.1417 114.425 36.1063 114.425 32.5665C114.425 29.3806 116.283 26.9027 119.558 26.9027C121.504 26.9027 123.186 27.6107 124.071 29.4691C124.336 30.0886 124.513 30.7081 124.602 31.3275C124.69 31.947 124.69 32.655 124.69 33.3629L117.699 33.4514ZM121.416 31.3275C121.416 30.1771 121.062 29.1151 119.558 29.1151C118.142 29.1151 117.788 30.1771 117.699 31.3275H121.416ZM134.956 26.9912C134.867 25.4868 133.982 24.6903 132.389 24.6903C131.15 24.6903 130 25.3098 130 26.6373C130 28.3187 131.504 28.4957 132.832 28.7611C135.133 29.3806 138.584 30.0001 138.584 33.0974C138.584 36.9027 135.31 38.2302 132.035 38.2302C128.584 38.2302 126.106 36.9027 126.195 33.0089H129.558C129.469 34.6903 130.442 35.8408 132.124 35.8408C133.451 35.8408 135.133 35.3983 135.133 33.8054C135.133 32.0355 132.92 31.8585 131.681 31.5045C129.558 30.9735 126.637 30.0001 126.637 27.2567C126.637 23.8054 129.823 22.2125 133.009 22.2125C135.929 22.2125 138.23 23.8054 138.23 26.9027L134.956 26.9912ZM140.796 37.8762V22.655H143.982V28.5842C144.602 27.6107 145.664 26.9912 147.257 26.9912C148.319 26.9912 150.354 27.7877 150.708 29.2921C150.885 29.9116 150.885 30.6196 150.885 30.9735V37.8762H147.788V31.5045C147.788 30.3541 147.434 29.1151 145.929 29.1151C144.956 29.1151 144.071 30.0001 144.071 31.5045V37.8762H140.796ZM156.991 22.655V25.3983H153.628V22.655H156.991ZM156.814 27.2567V37.8762H153.628V27.2567H156.814ZM162.389 33.4514C162.389 34.8673 162.566 36.1063 164.248 36.1063C165.31 36.1063 165.929 35.6638 166.195 34.6904H169.027C168.761 37.3452 166.726 38.1417 164.248 38.1417C160.619 38.1417 159.115 36.1063 159.115 32.5665C159.115 29.3806 160.973 26.9027 164.248 26.9027C166.195 26.9027 167.876 27.6107 168.761 29.4691C169.027 30.0886 169.204 30.7081 169.292 31.3275C169.381 31.947 169.381 32.655 169.381 33.3629L162.389 33.4514ZM166.018 31.3275C166.018 30.1771 165.664 29.1151 164.159 29.1151C162.743 29.1151 162.389 30.1771 162.301 31.3275H166.018ZM174.425 22.655V37.8762H171.239V22.655H174.425ZM184.513 22.655H187.699V35.8408C187.699 36.5488 187.788 37.2567 187.788 37.9647H184.602C184.602 37.4337 184.513 36.9912 184.513 36.4603C183.805 37.6992 182.655 38.3187 181.239 38.3187C178.142 38.3187 176.637 35.3983 176.637 32.655C176.637 29.8231 178.319 26.9912 181.593 26.9912C182.655 26.9912 183.805 27.6107 184.425 28.4957L184.513 22.655ZM182.212 36.1063C183.894 36.1063 184.513 34.0709 184.513 32.5665C184.513 31.1505 183.982 29.0266 182.212 29.0266C180.177 29.0266 179.911 30.885 179.911 32.5665C179.911 34.1594 180.177 36.1063 182.212 36.1063ZM182.743 17.1682C182.212 17.1682 181.77 16.7257 181.77 16.1948C181.77 15.6638 182.212 15.2213 182.743 15.2213C183.274 15.2213 183.717 15.6638 183.717 16.1948C183.717 16.7257 183.363 17.1682 182.743 17.1682ZM182.743 14.9558C182.124 14.9558 181.593 15.4868 181.593 16.1063C181.593 16.7257 182.124 17.2567 182.743 17.2567C183.363 17.2567 183.894 16.7257 183.894 16.1063C183.894 15.4868 183.363 14.9558 182.743 14.9558Z" fill="white"/>
<path d="M182.743 16.1063H182.478V15.6638H182.832C183.009 15.6638 183.186 15.6638 183.186 15.8408C183.186 16.1063 182.92 16.1063 182.743 16.1063ZM183.363 15.8408C183.363 15.5753 183.274 15.4868 182.92 15.4868H182.301V16.8142H182.478V16.1948H182.743L183.186 16.8142H183.363L183.009 16.1948C183.186 16.1948 183.363 16.1063 183.363 15.8408ZM189.558 37.7877C189.027 37.7877 188.584 37.3452 188.584 36.8142C188.584 36.2833 189.027 35.8408 189.558 35.8408C190.088 35.8408 190.531 36.2833 190.531 36.8142C190.531 37.3452 190.088 37.7877 189.558 37.7877ZM189.558 35.5753C188.938 35.5753 188.407 36.1063 188.407 36.7258C188.407 37.3452 188.938 37.8762 189.558 37.8762C190.177 37.8762 190.708 37.3452 190.708 36.7258C190.708 36.1063 190.177 35.5753 189.558 35.5753Z" fill="white"/>
<path d="M189.469 36.7258H189.204V36.2833H189.558C189.735 36.2833 189.911 36.2833 189.911 36.4603C189.911 36.7258 189.734 36.7258 189.469 36.7258ZM190.177 36.4603C190.177 36.1948 190.088 36.1063 189.734 36.1063H189.115V37.4337H189.292V36.8143H189.558L189.911 37.4337H190.089L189.734 36.8143C190 36.8143 190.177 36.7258 190.177 36.4603ZM33.9823 33.9824C32.8319 33.9824 31.9469 34.8674 31.9469 36.0178C31.9469 37.1683 32.8319 38.0532 33.9823 38.0532C35.0442 38.0532 36.0177 37.1683 36.0177 36.0178C36.0177 34.8674 35.1327 33.9824 33.9823 33.9824ZM33.9823 37.6992C33.0088 37.6992 32.3009 36.9913 32.3009 36.0178C32.3009 35.0444 33.0088 34.3364 33.9823 34.3364C34.9558 34.3364 35.6637 35.0444 35.6637 36.0178C35.6637 36.9913 35.0442 37.6992 33.9823 37.6992Z" fill="white"/>
<path d="M35.0442 35.4867C35.0442 35.0442 34.8673 34.8672 34.2478 34.8672H33.2743V37.1681H33.5398V36.1947H34.0708L34.6903 37.1681H35.0442L34.3363 36.1947C34.7788 36.1062 35.0442 35.9292 35.0442 35.4867ZM33.9823 35.8407H33.5398V35.1327H34.1593C34.4248 35.1327 34.6903 35.1327 34.6903 35.4867C34.7788 35.9292 34.2478 35.8407 33.9823 35.8407ZM18.0531 22.4779C17.9646 22.4779 17.9646 22.4779 17.8761 22.5664L14.5133 27.6991C15.5752 28.1416 16.7257 28.4071 17.9646 28.4071C19.2035 28.4071 20.354 28.1416 21.4159 27.6991L18.0531 22.5664C18.1416 22.4779 18.0531 22.4779 18.0531 22.4779ZM14.7788 18.2301L9.73451 17.7876C9.55752 18.4071 9.46902 19.115 9.46902 19.823C9.46902 21.9469 10.2655 23.8938 11.5044 25.3982L15.0442 18.6726C15.2212 18.4956 15.1327 18.3186 14.7788 18.2301Z" fill="white"/>
<path d="M26.0177 11.77V1.77002H10V11.77H0V27.7877H10V37.7877H26.0177V27.7877H36.0177V11.77H26.0177ZM18.0531 9.91161C22.0354 9.91161 25.4867 12.2125 26.9911 15.6638H19.9115C18.9381 15.6638 18.4956 15.0444 18.4071 14.6019C18.4071 14.0709 18.4956 13.8939 18.9381 13.2744C19.469 12.5665 19.115 11.3275 17.9646 11.239C16.8142 11.239 16.4602 12.5665 16.9912 13.2744C17.4336 13.8939 17.5221 14.0709 17.5221 14.6019C17.5221 15.0444 17.0796 15.6638 16.0177 15.6638H8.93805C10.6195 12.301 14.0708 9.91161 18.0531 9.91161ZM8.14159 19.8231C8.14159 18.5842 8.40708 17.4337 8.76106 16.3718L15.3982 16.9913C16.6372 17.1683 16.8142 18.4072 16.4602 19.1152L11.9469 27.6992C9.64602 25.8408 8.14159 23.009 8.14159 19.8231ZM23.4513 28.1417C21.8584 29.2036 20 29.7346 17.9646 29.7346C15.9292 29.7346 14.0708 29.1152 12.4779 28.1417L17.3451 20.9736C17.6991 20.4426 18.2301 20.5311 18.5841 20.9736L23.4513 28.1417ZM24.1593 27.6107L19.646 19.1152C19.292 18.4072 19.469 17.1683 20.708 16.9913L27.3451 16.3718C27.7876 17.4337 27.9646 18.6727 27.9646 19.8231C27.9646 23.009 26.4602 25.8408 24.1593 27.6107Z" fill="white"/>
<path d="M24.5133 14.2479C23.4513 13.0089 22.0354 12.0355 20.4425 11.593C20.9735 12.3895 20.531 13.5399 20.0885 14.0709C20 14.1594 20.0885 14.2479 20.0885 14.2479H24.5133ZM21.3274 18.2302C20.9735 18.2302 20.9735 18.4072 21.062 18.5842L24.6018 25.3098C25.8407 23.8054 26.6372 21.8585 26.6372 19.7346C26.6372 19.0266 26.5487 18.3187 26.3717 17.6992L21.3274 18.2302ZM15.6637 11.6815C14.0708 12.124 12.6549 13.0974 11.5929 14.3364H16.0177C16.1062 14.3364 16.1062 14.2479 16.0177 14.1594C15.5752 13.5399 15.1327 12.478 15.6637 11.6815Z" fill="white"/>
<path d="M68.2301 1.77002C64.3363 3.71692 60.4425 4.77887 55.9292 4.77887C51.4159 4.77887 47.5221 3.71692 43.6283 1.77002C41.0619 6.81427 40.708 14.9559 42.9204 21.77C45.0442 28.3187 49.2035 34.3364 55.9292 38.0532C62.7434 34.3364 66.8142 28.3187 68.9381 21.77C71.2389 14.9559 70.7965 6.81427 68.2301 1.77002ZM66.4602 20.9736C64.5133 26.5488 61.5929 31.5045 56.0177 34.9559C50.4425 31.5045 47.4336 26.5488 45.5752 20.9736C43.8938 16.0178 43.4513 10.1771 45.3097 5.66382C48.1416 6.63728 49.7345 6.90276 51.2389 7.16825C52.6549 7.43374 53.8938 7.52223 56.0177 7.52223C58.0531 7.52223 59.3805 7.34524 60.7965 7.16825C62.3009 6.90276 63.9823 6.63728 66.7257 5.66382C68.4956 10.1771 68.1416 16.0178 66.4602 20.9736Z" fill="white"/>
<path d="M60.7965 8.40716C59.2035 8.58415 57.5221 8.76114 55.9292 8.76114C54.3363 8.76114 52.7434 8.58415 51.0619 8.40716C49.469 8.14167 47.8761 7.78769 46.1947 7.34521C45.0442 10.708 45.2212 14.9558 46.1947 18.6726C47.8761 25.7523 52.2124 31.1505 55.9292 33.5399C59.7345 31.1505 63.9823 25.7523 65.6637 18.6726C66.5487 14.8673 66.8142 10.708 65.6637 7.34521C63.9823 7.78769 62.4779 8.23017 60.7965 8.40716ZM55.0442 30.2656C54.9558 30.6196 55.1327 30.7965 55.1327 30.9735C55.0442 31.239 54.8673 31.1505 54.7788 30.9735C54.6018 30.708 54.5133 30.5311 54.5133 30.0886C54.4248 29.3806 54.7788 29.1151 54.9557 28.9381C55.1327 28.7611 55.3097 28.6727 55.3097 28.6727L55.3982 29.8231C55.2212 29.8231 55.0442 29.9116 55.0442 30.2656ZM56.5487 31.416C56.5487 31.593 56.4602 31.77 56.1062 31.77C55.8407 31.77 55.6637 31.6815 55.6637 31.3275C55.5752 29.9116 55.5752 27.3452 55.5752 27.3452C55.5752 27.3452 55.9292 27.4337 56.1947 27.6107C56.2832 27.6107 56.4602 27.7877 56.6372 27.9647C56.6372 28.0532 56.7257 28.0532 56.7257 28.1417C56.6372 29.1151 56.5487 30.9735 56.5487 31.416ZM57.6991 28.7611C57.3451 29.0266 56.9911 29.1151 56.9911 29.1151V28.0532C56.9911 28.0532 57.0796 27.9647 57.0796 27.7877C56.9911 27.6107 56.2832 27.0797 55.9292 26.9027C55.4867 26.7257 54.9558 26.5488 54.6018 26.4603C53.7168 26.1063 53.3628 25.3098 53.7168 24.4249C53.8053 24.0709 54.2478 23.8939 54.4248 23.8054C54.6018 23.7169 54.9557 23.6284 54.9557 23.6284L55.0442 24.8673C55.0442 24.8673 54.9558 24.8673 54.8673 25.0443C54.7788 25.2213 54.9558 25.3983 55.0442 25.3983C55.6637 25.6638 56.4602 26.0178 57.0796 26.3718C57.8761 26.8142 58.1416 27.1682 58.1416 27.7877C58.2301 28.2302 57.9646 28.5842 57.6991 28.7611ZM55.4867 23.0089C56.1062 23.0974 56.2832 23.0974 56.8142 23.1859L56.7257 25.6638L56.1947 25.3983L55.6637 25.1328L55.4867 23.0089ZM59.0265 23.5399C58.938 23.9824 58.6726 24.3364 58.2301 24.6019C57.7876 24.8673 57.2566 24.8673 57.2566 24.8673V23.3629C57.2566 23.3629 57.3451 23.3629 57.4336 23.2744C57.5221 23.1859 57.5221 23.0974 57.5221 23.0089C57.5221 22.9204 57.4336 22.8319 57.3451 22.7434C57.1681 22.655 56.9912 22.6549 56.9027 22.6549L54.7788 22.3895C53.5398 22.2125 52.5664 21.416 52.6549 20.1771C52.7434 19.3806 53.5398 19.1151 54.1593 18.8496L54.6018 19.7346C54.6903 20.0886 54.7788 20.2656 54.7788 20.2656C54.7788 20.2656 54.5133 20.3541 54.5133 20.5311C54.5133 20.708 54.7788 20.7965 54.8673 20.7965C55.7522 20.885 56.9911 21.062 57.6106 21.3275C58.0531 21.5045 58.4071 21.6815 58.6726 22.0355C59.0265 22.6549 59.115 23.0974 59.0265 23.5399ZM54.9557 17.7877C54.9557 17.7877 55.2212 17.7877 56.0177 17.8762C56.5487 17.8762 56.9911 18.0532 56.9911 18.0532L56.9027 20.708C56.2832 20.6196 55.9292 20.5311 55.3982 20.4426C55.2212 19.4691 54.9558 19.1151 54.6018 18.4072C54.5133 18.2302 54.6018 18.1417 54.6018 18.1417C54.6903 18.0532 55.0442 17.9647 55.0442 17.9647L54.9557 17.7877ZM57.3451 20.4426C57.3451 20.4426 57.4336 19.2036 57.4336 18.5842C57.7876 18.4957 57.8761 18.1417 57.6991 17.8762C57.6106 17.6992 57.3451 17.6107 57.2566 17.6107C56.5487 17.4337 55.9292 17.4337 55.2212 17.3452C54.6018 17.2567 54.0708 17.1682 53.5398 17.0797C52.3894 16.8142 51.3274 16.1948 50.7965 15.1328C50.177 13.8054 50.708 12.124 52.0354 11.5045C53.0088 10.9735 54.0708 11.062 55.0442 11.5045C55.3982 11.593 55.5752 11.947 55.7522 12.2125C55.8407 12.301 56.0177 12.3895 56.1062 12.5665C56.1947 12.6549 56.0177 12.6549 56.0177 12.6549C55.8407 12.7434 55.0442 12.7434 54.8673 12.6549H53.8053C54.0708 12.8319 54.4248 13.0089 54.7788 13.1859C54.9558 13.2744 55.1327 13.2744 55.3097 13.3629C55.3982 13.3629 55.5752 13.4514 55.5752 13.5399C55.5752 13.6284 55.3982 13.6284 55.2212 13.7169C54.9558 13.8054 54.6018 13.8054 54.2478 13.7169C53.7168 13.6284 53.4513 13.2744 53.0973 13.4514C52.8319 13.6284 52.8319 13.8939 52.9204 14.2479C53.0088 14.7788 53.5398 14.9558 53.9823 15.1328C55.4867 15.6638 57.1681 15.3098 58.5841 16.1063C59.115 16.3718 59.823 16.9912 59.9115 17.6107C60.354 20.0886 57.3451 20.4426 57.3451 20.4426ZM60 12.2125C59.9115 12.478 59.823 12.478 59.646 12.6549C59.292 13.0089 58.7611 13.3629 58.2301 13.8054C57.8761 14.0709 57.6106 14.2479 57.3451 14.6903C57.2566 14.7788 57.1681 14.9558 57.1681 14.9558C56.2832 14.7788 55.4867 14.7788 54.7788 14.6019V13.8939C54.7788 13.8939 55.5752 13.8939 55.6637 13.3629C55.6637 13.3629 55.6637 13.1859 55.5752 13.0974C55.4867 13.0089 55.2212 12.9204 55.1327 12.9204C55.7522 13.0089 56.3717 13.2744 56.9911 13.5399C56.9911 13.4514 56.9027 13.1859 56.9027 13.1859C56.8142 13.0974 56.7257 13.0089 56.4602 12.9204C56.1062 12.8319 55.1327 12.7434 55.1327 12.7434H55.9292C56.1062 12.7434 56.3717 12.6549 56.3717 12.5665C56.4602 12.478 56.3717 12.301 56.1947 12.124L55.9292 11.8585C55.8407 11.6815 55.6637 11.5045 55.5752 11.3275C55.3982 11.062 54.6903 10.7965 54.6903 10.7965C54.6903 10.7965 54.6018 10.3541 54.7788 10.1771C54.8673 10.0001 55.2212 10.0001 55.3097 10.0886C55.7522 10.3541 56.3717 10.6196 56.9911 10.7965C57.1681 10.885 57.1681 10.885 57.1681 11.1505C57.2566 11.593 57.0796 12.2125 57.1681 12.478C57.1681 12.5665 57.3451 12.5665 57.3451 12.5665C57.9646 12.2125 58.3186 11.6815 58.938 11.416C59.3805 11.239 60.177 11.593 60 12.2125ZM68.4071 34.0709C67.3451 34.0709 66.4602 34.9558 66.4602 36.0178C66.4602 37.0797 67.3451 37.9647 68.4071 37.9647C69.469 37.9647 70.354 37.0797 70.354 36.0178C70.354 34.9558 69.469 34.0709 68.4071 34.0709ZM68.4071 37.6992C67.4336 37.6992 66.7257 36.9912 66.7257 36.0178C66.7257 35.0443 67.4336 34.3364 68.4071 34.3364C69.3805 34.3364 70.0885 35.0443 70.0885 36.0178C70.0885 36.9912 69.3805 37.6992 68.4071 37.6992Z" fill="white"/>
<path d="M69.469 35.4868C69.469 35.0443 69.292 34.8673 68.6726 34.8673H67.6991V37.1682H67.9646V36.1948H68.4071L69.0266 37.1682H69.3805L68.6726 36.1948C69.115 36.1063 69.469 35.9293 69.469 35.4868ZM68.4071 35.9293H67.9646V35.2213H68.5841C68.8496 35.2213 69.115 35.2213 69.115 35.5753C69.115 35.9293 68.6726 35.9293 68.4071 35.9293ZM54.0708 11.593C54.2478 11.77 54.2478 11.947 54.5133 11.947C54.6903 11.947 54.7788 11.8585 54.8673 11.77H55.0443C54.7788 11.5045 54.1593 11.5045 53.7168 11.416C53.8938 11.593 53.9823 11.5045 54.0708 11.593Z" fill="white"/>
</svg>
