<svg width="170" height="40" viewBox="0 0 170 40" fill="none" xmlns="http://www.w3.org/2000/svg">
<path d="M44.1379 19.8895C44.6069 22.1516 44.6069 22.3999 44.6069 22.6757C44.6069 26.5378 40.2759 28.6895 34.5655 28.6895C32.3586 28.6895 30.1793 28.4689 28.1104 28.0826C27.7241 27.9999 27.3655 27.9447 26.9793 27.862C26.5931 27.7792 26.2345 27.6964 25.8759 27.5861C25.5173 27.5033 25.1586 27.393 24.8 27.2826C24.6345 27.2275 24.4414 27.1723 24.2759 27.1171C23.9173 27.0068 23.5862 26.8964 23.2276 26.7861C22.869 26.6757 22.5379 26.5378 22.2069 26.4275C21.7104 26.2344 21.2138 26.0413 20.7448 25.8482C20.2759 25.6551 19.8069 25.4344 19.3655 25.2137C13.931 22.593 10.3724 18.9516 10.3724 16.1654C10.3724 15.4757 10.5104 14.7861 10.7862 14.1516C6.15173 14.3447 0.137939 15.1723 0.137939 20.4689C0.137939 29.1585 20.7173 39.862 36.9931 39.862C49.4897 39.862 52.6345 34.2068 52.6345 29.7378C52.6345 26.2344 49.6 22.262 44.1379 19.8895Z" fill="white"/>
<path d="M11.7517 12.1379C11.7517 13.4897 14.5655 16.469 19.2276 18.9793C23.3379 21.1862 28.8827 23.0069 35.1724 23.0345C38.6207 23.0345 43.6138 22.3172 43.6138 18.2069C43.6138 17.9035 43.5862 17.5724 43.531 17.269L41.4896 8.33104C41.0207 6.37242 40.6069 5.46208 37.1586 3.75173C34.4827 2.37242 28.6621 0.137939 26.9241 0.137939C25.2965 0.137939 24.8276 2.2069 22.9241 2.2069C21.0758 2.2069 19.7241 0.662077 17.9862 0.662077C16.331 0.662077 15.2552 1.79311 14.4276 4.11035C14.4276 4.11035 12.1103 10.6483 11.8069 11.6138C11.7517 11.7793 11.7517 11.9724 11.7517 12.1379ZM159.917 25.6C159.917 28.8828 161.903 30.4828 165.49 30.4828C166.593 30.4552 167.697 30.2897 168.772 30.0138V26.2069C168.083 26.4276 167.366 26.5379 166.648 26.5379C165.159 26.5379 164.607 26.069 164.607 24.6897V18.8414H168.91V14.9241H164.607V9.95863L159.917 10.9793V14.9241H156.8V18.8414H159.89L159.917 25.6ZM145.297 25.6828C145.297 24.6621 146.317 24.1655 147.862 24.1655C148.8 24.1655 149.738 24.2759 150.648 24.5241V26.5104C149.738 27.0069 148.745 27.2552 147.724 27.2276C146.207 27.2276 145.297 26.6483 145.297 25.6828ZM146.731 30.5379C148.386 30.5379 149.71 30.1793 150.979 29.3517V30.2897H155.614V20.4414C155.614 16.6897 153.103 14.6483 148.883 14.6483C146.538 14.6483 144.221 15.2 141.71 16.331L143.393 19.7793C145.186 19.0345 146.703 18.5655 148.028 18.5655C149.959 18.5655 150.952 19.3104 150.952 20.8552V21.6C149.821 21.2966 148.634 21.1586 147.476 21.1586C143.531 21.1586 141.159 22.8138 141.159 25.7655C141.159 28.469 143.31 30.5379 146.731 30.5379ZM121.241 30.2897H126.234V22.3172H134.593V30.2621H139.586V9.95863H134.593V17.7655H126.234V9.95863H121.241V30.2897ZM102.234 22.5931C102.234 20.3862 103.972 18.7035 106.262 18.7035C107.448 18.6759 108.607 19.1172 109.517 19.8897V25.2414C108.634 26.069 107.476 26.5104 106.262 26.4828C104 26.4828 102.234 24.8 102.234 22.5931ZM109.572 30.2897H114.207V8.93794L109.517 9.95863V15.7241C108.331 15.0345 106.979 14.7035 105.6 14.7035C101.131 14.7035 97.6276 18.1517 97.6276 22.5655C97.5724 26.869 101.021 30.4 105.324 30.4552H105.462C106.952 30.4552 108.386 29.9862 109.572 29.131V30.2897ZM88.2758 18.4828C89.7655 18.4828 91.0069 19.4483 91.5034 20.9104H85.1034C85.5448 19.3931 86.731 18.4828 88.2758 18.4828ZM80.3586 22.6207C80.3586 27.0897 84 30.5655 88.7172 30.5655C91.3103 30.5655 93.1862 29.8759 95.1172 28.2483L92 25.4897C91.2827 26.2345 90.2069 26.6483 88.9379 26.6483C87.3103 26.7035 85.7931 25.7379 85.1586 24.2207H96.0827V23.0621C96.0827 18.1793 92.8 14.6759 88.331 14.6759C83.9724 14.6207 80.3862 18.0966 80.331 22.4276C80.3586 22.4828 80.3586 22.5379 80.3586 22.6207ZM72.2758 14.2345C73.931 14.2345 74.8689 15.2828 74.8689 16.5241C74.8689 17.7655 73.931 18.8138 72.2758 18.8138H67.3379V14.2345H72.2758ZM62.3448 30.2621H67.3379V22.869H71.1448L74.9793 30.2621H80.5517L76.0827 22.1517C78.4 21.2138 79.9172 18.9517 79.9172 16.4414C79.9172 12.8 77.0483 9.95863 72.7448 9.95863H62.3448V30.2621Z" fill="white"/>
</svg>
