<svg width="115" height="40" viewBox="0 0 115 40" fill="none" xmlns="http://www.w3.org/2000/svg">
<g clip-path="url(#clip0_319_651)">
<path d="M16.32 0.0229451C16.1143 -0.0227692 15.9086 0.0915165 15.8629 0.297231V0.342945L15.3143 4.0458C13.6229 3.63437 11.9086 3.38295 10.1486 3.33723C9.96572 3.33723 9.80572 3.47437 9.78287 3.65723L9.12001 8.02295C7.42858 7.84009 5.73715 7.79437 4.02287 7.86295C3.84001 7.86295 3.70287 8.00009 3.68001 8.18295L1.14387e-05 32.5715C-0.0228457 32.7772 0.114297 32.9601 0.320011 33.0058H0.388583C3.04001 32.9372 16.8457 32.9372 20.8457 39.6115C21.0286 39.9087 21.3714 40.0458 21.7143 39.9544L22.5143 39.7258L23.4514 39.4515C23.7486 39.3829 23.9543 39.1315 24 38.8572L24.0229 38.7887V38.8344C24.0229 38.8344 25.6229 28.2744 27.5429 15.4058C27.5657 15.1772 27.5886 14.9715 27.6114 14.7429C28.8 3.77152 18.5143 0.571517 16.32 0.0229451ZM31.6572 33.6458L35.1086 10.7201C35.1543 10.3544 35.4286 10.0344 35.7943 9.94295L42.6743 7.95437C43.0171 7.86295 43.3829 8.0458 43.4743 8.38866C43.4971 8.48009 43.4972 8.57152 43.4972 8.66295L40.0457 31.6572C39.9086 32.7772 40.3657 33.2115 41.4171 33.2115C41.76 33.2115 42.1257 33.1658 42.4686 33.1201C42.8343 33.0515 43.2 33.3029 43.2686 33.6915C43.2914 33.7601 43.2914 33.8287 43.2686 33.9201L42.56 38.6515C42.4914 39.1087 42.1486 39.4972 41.6914 39.5887C40.5257 39.8858 39.3143 40.0229 38.1029 40.0229C33.3029 40.0001 31.0172 37.7829 31.6572 33.6458ZM73.8286 33.6458L77.2571 10.7201C77.3029 10.3544 77.5771 10.0344 77.9429 9.94295L84.8229 7.95437C85.1657 7.86295 85.5314 8.0458 85.6229 8.38866C85.6457 8.48009 85.6457 8.57152 85.6457 8.66295L82.1943 31.6572C82.0571 32.7772 82.5143 33.2115 83.5657 33.2115C83.9086 33.2115 84.2743 33.1658 84.6171 33.1201C84.9829 33.0515 85.3486 33.3029 85.4171 33.6915C85.44 33.7601 85.44 33.8287 85.4171 33.9201L84.7086 38.6515C84.64 39.1087 84.2971 39.4972 83.84 39.5887C82.6743 39.8858 81.4629 40.0229 80.2514 40.0229C75.4743 40.0001 73.1886 37.7829 73.8286 33.6458ZM72.0686 33.8744L71.3829 38.6744C71.3143 39.1087 70.9943 39.4515 70.5829 39.5429C69.3943 39.8401 68.16 40.0001 66.9486 40.0001C63.84 40.0001 61.8743 38.9715 61.0971 37.2572C59.2229 38.9029 56.4343 40.0001 53.3714 40.0001C47.5886 40.0001 44.3886 36.1372 45.2343 30.4458L47.1086 17.8058C47.1543 17.4629 47.4514 17.2115 47.7943 17.2115H54.4686C54.8571 17.2115 55.1543 17.5315 55.1543 17.8972V17.9887L53.5314 28.9144C53.1429 31.4972 54.24 33.0972 56.64 33.0972C59.0857 33.0972 60.8229 31.5887 61.1657 29.0515L62.8571 17.7829C62.9029 17.4401 63.2 17.1887 63.5429 17.1887H70.24C70.6286 17.1887 70.9257 17.5087 70.9257 17.8744V17.9658L68.9143 31.6115C68.7314 32.6858 69.1886 33.1658 70.2857 33.1658C70.6286 33.1658 70.9486 33.1201 71.2914 33.0744C71.6571 33.0058 72.0229 33.2572 72.0914 33.6229C72.0686 33.7372 72.0686 33.8058 72.0686 33.8744ZM114.286 33.8744L113.554 38.9029C113.509 39.1772 113.303 39.4058 113.029 39.4744C111.749 39.7944 110.446 39.9772 109.143 39.9772C106.034 39.9772 104.069 38.9487 103.291 37.2344C101.417 38.8801 98.6286 39.9772 95.5657 39.9772C89.7829 39.9772 86.5829 36.1144 87.4286 30.4229L89.3029 17.7829C89.3486 17.4401 89.6457 17.1887 89.9886 17.1887H96.6629C97.0514 17.1887 97.3486 17.5087 97.3486 17.8744V17.9658L95.7257 28.8915C95.3371 31.4744 96.4343 33.0744 98.8343 33.0744C101.28 33.0744 103.017 31.5658 103.36 29.0287L105.051 17.7601C105.097 17.4172 105.394 17.1658 105.737 17.1658H112.434C112.823 17.1658 113.12 17.4858 113.12 17.8515V17.9429L111.109 31.5887C110.926 32.6629 111.383 33.1429 112.48 33.1429C112.823 33.1429 113.143 33.0972 113.486 33.0515C113.851 32.9829 114.217 33.2344 114.286 33.6001V33.8744Z" fill="white"/>
<path d="M22.5143 39.7256C19.1543 31.3142 8.48001 28.9371 6.40001 28.5485C6.1943 28.5028 6.05715 28.3199 6.10287 28.1142L9.12001 8.02279C7.42858 7.83993 5.73715 7.79421 4.02287 7.86279C3.84001 7.86279 3.70287 7.99993 3.68001 8.18279L1.14387e-05 32.5714C-0.0228457 32.7771 0.114297 32.9599 0.320011 33.0056H0.388583C3.04001 32.9371 16.8457 32.9371 20.8457 39.6114C21.0286 39.9085 21.3714 40.0456 21.7143 39.9542L22.5143 39.7256Z" fill="#646569"/>
<path d="M27.6114 14.7429C28.8 3.77152 18.5143 0.571517 16.32 0.0229451C16.1143 -0.0227692 15.9086 0.0915165 15.8629 0.297231V0.342945L15.3143 4.0458L14.6057 8.80009L13.4629 16.3658C13.4171 16.5944 13.3943 16.8458 13.3943 17.0744C13.3943 19.8401 15.8171 20.3658 17.0286 20.4572C17.2343 20.4801 17.3943 20.6629 17.3714 20.8687C17.3714 20.9372 17.3486 20.9829 17.3257 21.0287C16.5486 22.3087 14.9714 25.4858 16.8686 27.7715C16.8686 27.7715 23.1771 33.4629 24.0229 38.8344C24.0229 38.8344 25.6229 28.2744 27.5429 15.4058C27.5657 15.1772 27.5886 14.9715 27.6114 14.7429Z" fill="white"/>
<path d="M16.8457 27.7943C14.9714 25.5086 16.5486 22.3086 17.3029 21.0514C17.4171 20.8686 17.3486 20.64 17.1886 20.5257C17.1429 20.5029 17.0743 20.48 17.0286 20.48C15.84 20.3886 13.3943 19.8629 13.3943 17.0972C13.3943 16.8686 13.4171 16.6172 13.4629 16.3886L14.6057 8.82287V8.80002L14.6514 8.45716L15.3143 4.04573C13.6229 3.6343 11.9086 3.38287 10.1486 3.33716C9.96572 3.33716 9.80572 3.4743 9.78286 3.65716L9.12001 8.02287L9.02858 8.57144L6.10286 28.1143C6.08001 28.32 6.21715 28.5029 6.40001 28.5486C8.50286 28.9372 19.1543 31.3372 22.5143 39.7257L23.4514 39.4514C23.7486 39.3829 23.9543 39.1314 24 38.8572C23.1543 33.4857 16.8457 27.7943 16.8457 27.7943ZM24 38.8572L24.1371 38.0114C24.0457 38.56 24 38.8572 24 38.8572Z" fill="#343436"/>
</g>
<defs>
<clipPath id="clip0_319_651">
<rect width="114.286" height="40" fill="white"/>
</clipPath>
</defs>
</svg>
