<svg width="110" height="48" viewBox="0 0 110 48" fill="none" xmlns="http://www.w3.org/2000/svg">
<g clip-path="url(#clip0_319_597)">
<path d="M71.7537 0.711426C71.5896 0.711426 71.4801 0.766158 71.3159 0.875622L67.5394 2.29865C67.1015 2.46285 66.8826 2.57232 66.6637 2.62705C66.4447 2.68178 66.39 2.84598 66.39 3.0649C66.39 3.33856 66.5542 3.50276 66.8279 3.55749C67.1015 3.61222 67.4299 3.77642 67.7583 3.83115C68.0867 3.99535 68.4151 4.15954 68.6887 4.48794C68.9624 4.81633 69.1266 5.30892 69.1266 6.07517V33.6054C69.1266 34.2074 69.0719 34.6453 68.9077 34.919C68.7435 35.1926 68.5793 35.4115 68.3604 35.5757C68.0867 35.7399 67.813 35.8494 67.4846 35.9041C67.1562 35.9589 66.8279 36.0683 66.4447 36.1778C66.1711 36.2325 65.8974 36.342 65.7879 36.4514C65.569 36.5062 65.5143 36.7251 65.5143 36.9988C65.5143 37.2724 65.7332 37.4366 66.0616 37.4914C66.39 37.5461 66.6637 37.5461 66.8826 37.5461C67.3752 37.5461 67.9772 37.4914 68.7435 37.3819C69.5097 37.2724 70.1665 37.2177 70.878 37.2177C71.4801 37.2177 72.0821 37.2724 72.7389 37.3819C73.3957 37.4914 73.943 37.5461 74.5998 37.5461C74.8735 37.5461 75.1471 37.4914 75.4208 37.3819C75.6945 37.2724 75.8587 37.163 75.8587 36.944C75.8587 36.6704 75.6945 36.5062 75.3661 36.4514C75.0377 36.3967 74.7093 36.2873 74.2714 36.1778C73.9978 36.1231 73.7241 35.9589 73.4504 35.6852C73.1768 35.4663 73.0126 35.0284 73.0126 34.3716V26.7091C73.0126 26.4902 73.1768 26.4355 73.4504 26.4355C73.6146 26.4355 73.7241 26.5997 73.943 26.7639L82.2076 34.5358C82.6454 34.9737 82.8096 35.1926 82.8096 35.4115C82.8096 35.6305 82.7549 35.7399 82.536 35.9041C82.317 36.0683 82.0434 36.1231 81.7697 36.1778C81.2771 36.2325 80.894 36.342 80.6203 36.4514C80.3467 36.5062 80.1825 36.7251 80.1825 36.9988C80.1825 37.2724 80.3467 37.4366 80.6203 37.4914C80.894 37.5461 81.2771 37.5461 81.8244 37.5461C82.4812 37.5461 83.138 37.4914 83.7948 37.3819C84.4516 37.2724 85.1631 37.2177 85.8746 37.2177C86.6956 37.2177 87.4618 37.2724 88.1734 37.3819C88.8301 37.4366 89.4869 37.5461 90.089 37.5461C91.0194 37.5461 91.512 37.3272 91.512 36.9988C91.512 36.7798 91.3478 36.6704 91.1836 36.5609C90.9647 36.3967 90.6363 36.2873 90.1984 36.1231C89.7606 35.9589 89.3227 35.7947 88.8301 35.521C88.2828 35.2473 87.7355 34.919 87.1882 34.3716L77.7743 25.724C77.7195 25.6692 77.6101 25.505 77.5006 25.4503C77.3912 25.2861 77.3911 25.1766 77.3911 24.9577C77.3911 24.7935 77.8837 24.4104 78.8142 23.8083C79.7446 23.2063 80.894 22.4948 82.0981 21.7285C83.3022 20.9623 84.5063 20.3055 85.6557 19.6487C86.8051 18.9919 87.5713 18.6088 87.9544 18.4446C88.1734 18.3899 88.3923 18.2804 88.7207 18.1709C89.0491 18.1162 89.3227 17.952 89.5964 17.8973C89.87 17.7331 90.1437 17.6784 90.3626 17.5689C90.5816 17.4047 90.6363 17.2952 90.6363 17.131C90.6363 16.8574 90.4721 16.6385 90.3079 16.5837C90.1437 16.529 89.8153 16.4195 89.6511 16.4195C89.1038 16.4195 88.5018 16.4195 87.7355 16.4743C86.9693 16.529 86.3125 16.529 85.5462 16.529C84.78 16.529 84.1232 16.529 83.3569 16.4743C82.5907 16.4195 81.9339 16.4195 81.3866 16.4195C81.1677 16.4195 81.0582 16.4743 80.8393 16.5837C80.6751 16.7479 80.5656 16.8026 80.5656 17.0216C80.5656 17.2405 80.7298 17.4594 80.894 17.5689C81.0582 17.6784 81.3866 17.8426 81.5508 18.0068C81.8244 18.1709 82.0434 18.2804 82.2076 18.4993C82.3718 18.7183 82.536 18.9919 82.536 19.3203C82.536 19.5392 82.317 19.8129 81.9339 20.1413C81.496 20.4697 81.0035 20.9076 80.3467 21.2907C79.7446 21.7285 79.0331 22.1664 78.2669 22.659C77.5006 23.1516 76.8438 23.5347 76.1323 23.9725C75.4208 24.4104 74.9282 24.6293 74.4356 24.903C73.943 25.1766 73.6694 25.2314 73.6146 25.2314C73.2862 25.2314 73.122 24.9577 73.122 24.3557V1.97026C73.122 1.53241 73.0673 1.31348 72.9031 1.14928C72.7389 0.985086 72.6295 0.930354 72.4653 0.930354L71.7537 0.711426ZM16.4196 3.33856C14.6135 3.33856 13.1357 3.3933 11.7127 3.50276C10.3444 3.66696 8.97608 3.66696 7.60778 3.66696H2.02511C1.86092 3.66696 1.53252 3.66696 1.3136 3.72169C1.09467 3.77642 0.875739 3.88588 0.766275 3.99535C0.656811 4.10481 0.492615 4.26901 0.492615 4.54267C0.492615 4.81633 0.656811 5.03526 0.821007 5.08999C0.985203 5.14472 1.47779 5.25419 2.13458 5.30892C2.46297 5.36365 2.90082 5.36365 3.28395 5.36365C3.66707 5.36365 4.10493 5.41838 4.48805 5.52785C4.87118 5.63731 5.14484 5.69204 5.4185 5.80151C5.69216 5.91097 5.85636 6.1299 5.85636 6.34883V32.0729C5.85636 32.8939 5.80162 33.4959 5.63743 33.9338C5.47323 34.3716 5.30904 34.7 5.09011 34.9737C4.87118 35.1926 4.59752 35.4115 4.26913 35.4663C3.99547 35.521 3.66707 35.6305 3.39341 35.6852C2.57243 35.8494 2.02511 36.0136 1.75145 36.2325C1.47779 36.4514 1.3136 36.6704 1.3136 36.8893C1.3136 37.1082 1.47779 37.3272 1.75145 37.3819C2.02511 37.4366 2.24404 37.4366 2.3535 37.4366C3.01029 37.4366 3.77654 37.3819 4.65225 37.2724C5.52796 37.163 6.45841 37.1082 7.22466 37.1082H20.2509C22.5496 37.1082 24.7936 36.6704 26.8735 35.9589C28.9533 35.1926 30.7047 34.098 32.2919 32.7297C33.8244 31.3614 35.0285 29.7741 35.9042 27.9133C36.78 26.0524 37.2725 24.1367 37.2725 22.1117C37.2725 18.8277 36.7252 15.9817 35.6306 13.6282C34.5359 11.22 33.0582 9.24962 31.1973 7.71713C29.2817 6.18463 27.0924 5.03526 24.5747 4.32374C21.9476 3.72169 19.3204 3.33856 16.4196 3.33856ZM15.2155 4.98053C16.3649 4.98053 17.5143 5.14472 18.8279 5.41838C20.1414 5.69204 21.3455 6.07517 22.6044 6.73195C23.8632 7.38873 25.0673 8.04552 26.2167 8.92123C27.3661 9.79694 28.406 10.8369 29.2817 12.0957C30.1574 13.3545 30.8689 14.6681 31.3615 16.2006C31.9088 17.7331 32.1277 19.4298 32.1277 21.2359C32.1277 23.0421 31.8541 24.7388 31.3615 26.1618C30.8689 27.5849 30.2121 28.8437 29.2817 29.9383C28.4607 31.033 27.4755 31.9087 26.3809 32.6749C25.2862 33.4412 24.2463 34.0432 23.1517 34.5358C22.057 35.0284 21.0171 35.3568 20.0867 35.5757C19.1562 35.7947 18.2258 35.9041 17.5143 35.9041C16.6386 35.9041 15.8176 35.7399 14.9419 35.5757C14.1209 35.3568 13.3546 35.0284 12.6979 34.5358C12.0411 34.0432 11.5485 33.4959 11.1106 32.8391C10.6728 32.1824 10.5086 31.3066 10.5086 30.3762V6.67722C10.5086 6.45829 10.5086 6.23936 10.5633 6.07517C10.618 5.91097 10.7822 5.63731 11.1106 5.52785C11.3843 5.36365 11.8769 5.25419 12.4789 5.08999C13.1904 5.03526 14.0114 4.98053 15.2155 4.98053ZM100.926 15.4891C99.2292 15.4891 97.6967 15.8175 96.4926 16.5837C95.2885 17.35 94.2486 18.2257 93.4276 19.3203C92.6067 20.415 92.0046 21.6191 91.5667 23.0968C91.1289 24.4651 90.9647 25.7787 90.9647 27.0375C90.9647 30.4309 91.7857 33.1675 93.4276 35.1926C95.0696 37.2177 97.3683 38.2029 100.488 38.2029C101.911 38.2029 103.17 37.9839 104.1 37.6008C105.14 37.163 105.961 36.7251 106.563 36.1778C107.22 35.6305 107.713 35.1379 107.986 34.6453C108.26 34.1527 108.424 33.879 108.424 33.8243C108.424 33.5507 108.26 33.3865 107.932 33.3865C107.713 33.3865 107.494 33.5507 107.33 33.7148C107.165 33.879 106.892 34.2074 106.563 34.4811C106.235 34.7548 105.797 35.0284 105.195 35.2473C104.593 35.4663 103.772 35.5757 102.732 35.5757C101.035 35.5757 99.7218 35.3021 98.6272 34.7548C97.5873 34.2074 96.7663 33.5507 96.219 32.6749C95.6717 31.7992 95.2338 30.8688 95.0696 29.7741C94.9054 28.6795 94.7959 27.5301 94.7959 26.3808V25.2314C94.7959 24.903 94.8507 24.6293 94.9054 24.4651H108.26C108.753 24.4651 109.026 24.4104 109.136 24.1915C109.245 24.0273 109.355 23.6989 109.355 23.1516C109.355 22.5495 109.245 21.838 108.917 20.9623C108.588 20.0866 108.151 19.2656 107.494 18.4446C106.837 17.6236 105.961 16.9121 104.867 16.3101C103.772 15.708 102.404 15.4891 100.926 15.4891ZM40.0092 16.4195C39.5713 16.4195 39.2429 16.4195 39.0787 16.4743C38.805 16.529 38.6409 16.6932 38.6409 16.9121C38.6409 17.131 38.805 17.2405 38.9692 17.35C39.1334 17.4594 39.626 17.5689 40.2828 17.7878C40.6112 17.8426 40.9396 17.952 41.3227 18.0615C41.7058 18.1709 41.87 18.3899 41.87 18.8277V30.4857C41.87 31.635 41.9248 32.7297 42.1437 33.6601C42.3626 34.5906 42.691 35.4663 43.1836 36.1231C43.6762 36.7798 44.333 37.3272 45.2634 37.7103C46.1939 38.0934 47.1791 38.2576 48.4926 38.2576C49.5873 38.2576 50.5724 38.0387 51.4482 37.765C52.3239 37.4914 53.0354 36.9988 53.6922 36.6156C54.2942 36.1778 54.8415 35.7947 55.2794 35.521C55.7173 35.1926 55.9362 35.0284 56.2098 35.0284C56.4835 35.0284 56.6477 35.2473 56.6477 35.6852V36.8893C56.6477 37.163 56.6477 37.3819 56.7024 37.4914C56.7572 37.6008 56.8666 37.765 57.0308 37.765C57.3045 37.765 57.9613 37.6008 59.1106 37.4366C60.26 37.2724 61.683 36.944 63.7081 36.6704C64.146 36.6156 64.3649 36.5062 64.5291 36.4514C64.6933 36.3967 64.8028 36.2325 64.8028 36.0136C64.8028 35.7399 64.5838 35.521 64.2007 35.521C63.7629 35.4663 63.0513 35.4663 62.0114 35.4663C61.7378 35.4663 61.4641 35.4115 61.1357 35.2473C60.8073 35.0831 60.5884 34.7548 60.5884 34.1527C60.5884 31.3614 60.6431 28.6248 60.7526 25.8882C60.8621 23.1516 60.9168 20.3602 60.9168 17.6236C60.9168 17.131 60.7526 16.8026 60.4789 16.6932C60.2053 16.5837 59.9316 16.4743 59.8222 16.4743C59.2748 16.4743 58.7275 16.4743 58.1802 16.529C57.6329 16.5837 57.0856 16.5837 56.5382 16.5837C56.0456 16.5837 55.6078 16.5837 55.1699 16.529C54.6773 16.4743 54.2942 16.4743 53.8016 16.4743C53.528 16.4743 53.2543 16.4743 52.9807 16.529C52.707 16.5837 52.5428 16.7479 52.5428 16.8574C52.5428 17.0763 52.7617 17.2952 53.1448 17.4047C53.528 17.5142 53.9111 17.6784 54.0753 17.7331C54.7321 17.952 55.2247 18.0615 55.6078 18.1709C55.9909 18.2804 56.2098 18.3899 56.4288 18.4446C56.6477 18.4993 56.7572 18.6088 56.8666 18.7183C56.9761 18.8277 56.9214 18.9372 56.9214 19.1561C56.9214 21.1265 56.9214 23.0421 56.8666 25.0672C56.8119 26.9828 56.8119 28.9532 56.8119 30.9782C56.8119 31.5256 56.7572 32.0729 56.593 32.6749C56.4288 33.277 56.1551 33.7696 55.772 34.2622C55.3889 34.7548 54.6773 35.0831 53.8564 35.3568C52.9806 35.6305 51.7765 35.7947 50.2988 35.7947C48.9305 35.7947 47.8906 35.521 47.1243 34.919C46.3581 34.3169 45.9749 33.4959 45.9749 32.3465C45.9749 29.8836 45.9749 27.4754 46.0297 25.0125C46.0297 22.6042 46.0844 20.1413 46.0844 17.6784C46.0844 17.2405 46.0297 17.0216 45.9202 16.8574C45.8107 16.6932 45.5918 16.6385 45.2634 16.6385C44.8256 16.6385 44.4424 16.6385 44.0593 16.6932C43.6762 16.7479 43.2383 16.7479 42.8552 16.7479C42.4721 16.7479 42.0342 16.7479 41.7058 16.6932C41.3775 16.6385 40.447 16.4195 40.0092 16.4195ZM101.692 16.8026C102.842 16.8026 103.827 17.131 104.593 17.7331C105.359 18.3351 105.742 19.1561 105.742 20.1413C105.742 20.6339 105.688 21.0717 105.523 21.3454C105.359 21.6738 105.086 21.9475 104.702 22.1664C104.265 22.3853 103.772 22.4948 103.006 22.659C102.239 22.7137 101.309 22.8232 100.16 22.8232H97.4231C96.7663 22.8232 96.3284 22.7684 96 22.7684C95.6716 22.7137 95.5075 22.7137 95.4527 22.6042C95.398 22.4948 95.398 22.44 95.398 22.3306C95.398 21.8927 95.5075 21.4001 95.8359 20.7434C96.1642 20.0866 96.4926 19.5392 97.04 18.9372C97.5873 18.3351 98.1893 17.8426 99.0103 17.4047C99.8313 17.0216 100.707 16.8026 101.692 16.8026ZM73.6146 41.4868C72.52 41.4868 71.6443 42.0888 71.6443 43.1288C71.6443 44.2234 72.2463 44.4971 73.5052 44.9349C74.5451 45.2086 74.8735 45.4822 74.8735 45.8654C74.8735 46.4127 74.4356 46.7411 73.6694 46.7411C73.122 46.7411 72.52 46.4674 72.0821 46.0843L71.4801 46.6863C71.9727 47.2884 72.6842 47.6168 73.6146 47.6168C75.1471 47.6168 75.8039 46.8505 75.8039 45.8106C75.8039 44.716 75.0377 44.3876 73.8883 44.0045C72.8484 43.7308 72.5747 43.5119 72.5747 43.074C72.5747 42.6362 72.8484 42.3078 73.6146 42.3078C74.2167 42.3078 74.6545 42.5267 74.9829 42.8551L75.585 42.253C75.0377 41.7605 74.4356 41.4868 73.6146 41.4868ZM4.37859 41.5963V45.0991C4.37859 46.7411 5.14484 47.6715 6.6226 47.6715C8.10037 47.6715 8.86662 46.7958 8.86662 45.0991V41.5963H7.99091V45.0991C7.99091 46.1938 7.55305 46.7411 6.6226 46.7411C5.74689 46.7411 5.2543 46.139 5.2543 45.0444V41.5963H4.37859ZM28.4607 41.5963V47.5621H29.3364V41.5963H28.4607ZM83.0833 41.5963V47.5621H83.959V41.5963H83.0833ZM102.239 41.5963L104.374 45.2086V47.5073H105.25V45.2086L107.384 41.5963H106.344L105.359 43.2382C105.14 43.6761 104.867 44.1687 104.757 44.3876C104.702 44.1687 104.319 43.5666 104.155 43.2382L103.17 41.5963H102.239ZM16.3649 41.5963V47.5621H17.2406V43.1288C17.2954 43.293 17.5143 43.6213 17.6785 43.895L20.0867 47.6715H20.9077V41.651H20.032V46.139C19.9772 45.9748 19.7036 45.537 19.5394 45.318L17.2954 41.7057L16.3649 41.5963ZM36.561 41.5963L38.6409 47.5621H39.5713L41.5964 41.5963H40.6659L39.4071 45.318C39.2429 45.6464 39.1334 46.1938 39.0787 46.4127C39.024 46.1938 38.8598 45.6464 38.7503 45.318L37.4915 41.5963H36.561ZM48.7115 41.5963V47.5621H52.6523V46.6863H49.5873V44.8255H51.284V43.9497H49.5873V42.4172H52.5428V41.5415L48.7115 41.5963ZM59.8769 41.5963V47.5621H60.7526V45.2633H62.1209L63.2703 47.5621H64.3102L63.1061 45.0991C63.9271 44.8802 64.4196 44.2781 64.4196 43.4024C64.4196 42.1983 63.5439 41.5963 62.504 41.5963H59.8769ZM91.1289 41.5963V42.472H92.8256V47.5073H93.7013V42.472H95.398V41.5963H91.1289ZM60.7526 42.4172H62.4493C63.0513 42.4172 63.4892 42.7456 63.4892 43.3477C63.4892 43.9497 63.0513 44.2781 62.4493 44.2781H60.7526V42.4172Z" fill="white"/>
</g>
<defs>
<clipPath id="clip0_319_597">
<rect width="109.902" height="48" fill="white"/>
</clipPath>
</defs>
</svg>
