<svg width="115" height="48" viewBox="0 0 115 48" fill="none" xmlns="http://www.w3.org/2000/svg">
<path d="M98.2726 20.9675C96.3633 21.4077 91.3208 21.6522 91.3208 21.6522L90.7006 23.6414C90.7006 23.6414 93.1974 23.4294 95.0252 23.6088C95.0252 23.6088 95.6126 23.5598 95.6779 24.2609C95.7106 24.9783 95.629 25.7283 95.629 25.7283C95.629 25.7283 95.58 26.1685 94.9762 26.2827C94.2745 26.3968 89.542 26.6088 89.542 26.6088L88.775 29.1848C88.775 29.1848 88.4976 29.7718 89.134 29.6088C89.7215 29.4457 94.6825 28.5001 95.3352 28.6305C96.0206 28.7935 96.8039 29.7392 96.5755 30.587C96.3144 31.6142 91.3534 34.7772 88.3507 34.5653C88.3507 34.5653 86.7678 34.6631 85.4459 32.5272C84.1731 30.4892 85.8866 26.6577 85.8866 26.6577C85.8866 26.6577 85.1196 24.8642 85.6907 24.212C85.6907 24.212 86.0171 23.9348 86.9962 23.8533L88.2202 21.3425C88.2202 21.3425 86.8331 21.424 86.0171 20.4131C85.2664 19.4348 85.2012 19.0109 85.7887 18.7501C86.4088 18.424 92.153 17.3968 96.1022 17.5272C96.1022 17.5272 97.4893 17.3642 98.7132 19.7609C98.7132 19.7609 99.2681 20.7392 98.2726 20.9675ZM83.3898 30.6196C82.9002 31.8098 81.5457 33.0653 79.9138 32.299C78.2493 31.5164 75.6219 26.1685 75.6219 26.1685C75.6219 26.1685 74.6428 24.1794 74.447 24.2446C74.447 24.2446 74.2348 23.8533 74.1206 26.0381C73.9574 28.2066 74.1532 32.4294 73.2557 33.0979C72.4398 33.7501 71.4606 33.4729 70.9058 32.7066C70.4489 31.9403 70.253 30.0979 70.5141 26.8859C70.8079 23.674 71.5422 20.2501 72.4724 19.1903C73.4515 18.1142 74.2348 18.8968 74.5286 19.1903C74.5286 19.1903 75.7851 20.3316 77.9066 23.7066L78.2656 24.3261C78.2656 24.3261 80.1913 27.5381 80.3871 27.5218C80.3871 27.5218 80.5503 27.6848 80.6808 27.5544C80.8766 27.5055 80.8114 26.462 80.8114 26.462C80.8114 26.462 80.4524 22.9892 78.6573 17.1196C78.6573 17.1196 78.3962 16.3696 78.5757 15.6522C78.7389 15.0001 79.4406 15.3261 79.4406 15.3261C79.4406 15.3261 82.1495 16.6305 83.4714 21.0327C84.7769 25.4348 83.8957 29.4294 83.3898 30.6196ZM70.1062 19.3207C69.845 19.7772 69.7308 20.4131 68.6048 20.5925C68.6048 20.5925 57.6711 21.3588 57.1326 22.1251C57.1326 22.1251 56.7736 22.5816 57.3611 22.6957C57.9812 22.8261 60.4617 23.1522 61.6366 23.2175C62.9095 23.2175 67.1851 23.2501 68.7517 25.174C68.7517 25.174 69.6492 26.087 69.6166 28.1577C69.5839 30.2772 69.2086 31.0272 68.3763 31.7935C67.5114 32.5109 60.1026 35.837 55.3212 30.7501C55.3212 30.7501 53.1345 28.3044 56.0882 26.4457C56.0882 26.4457 58.2096 25.1414 63.6439 26.6577C63.6439 26.6577 65.2757 27.2446 65.2105 27.8479C65.1126 28.5001 63.856 29.1522 62.0283 29.1196C60.2658 29.0707 58.9603 28.2229 59.2214 28.3696C59.4662 28.4511 57.3121 27.3261 56.643 28.0925C55.9903 28.8098 56.1535 29.2338 56.8062 29.674C58.4381 30.6196 64.8515 30.2772 66.7608 28.1414C66.7608 28.1414 67.5278 27.2772 66.3691 26.5761C65.2268 25.924 61.8977 25.5164 60.6085 25.4675C59.3846 25.4022 54.799 25.4675 54.1136 24.2772C54.1136 24.2772 53.4608 23.4294 54.1789 21.1142C54.9295 18.6685 60.2658 17.7229 62.5831 17.5272C62.5831 17.5272 68.9475 17.2664 70.1388 18.5707C70.1388 18.5707 70.302 18.8642 70.1062 19.3207ZM52.0574 33.6522C51.2904 34.2229 49.6585 33.9783 49.1853 33.3261C48.7283 32.7555 48.5652 30.5055 48.6468 26.9675C48.761 23.3479 48.8099 18.9131 49.6259 18.1957C50.4418 17.4946 50.9314 18.1142 51.2578 18.587C51.5842 19.0761 52.0085 19.6142 52.0737 20.7392C52.1716 21.8805 52.4491 27.7501 52.4491 27.7501C52.4491 27.7501 52.8081 33.0979 52.0737 33.6522H52.0574ZM53.6893 14.5761C51.4373 15.3425 49.9033 15.0979 48.5978 14.5272C48.0266 15.5544 47.6839 15.8642 47.2596 15.9294C46.6069 15.9946 46.0357 14.9511 45.9541 14.6251C45.8236 14.3805 45.5135 13.9403 45.8889 12.9457C44.616 11.8044 44.5181 10.2718 44.7465 9.24463C45.0403 8.03811 47.1944 3.5055 53.7219 2.96745C53.7219 2.96745 56.9205 2.73919 57.4753 4.43484H57.5732C57.5732 4.43484 60.6738 4.43484 60.6085 7.20658C60.6085 9.97832 57.1816 13.4348 53.6893 14.6251V14.5761ZM56.5941 6.68484C54.5379 7.01093 51.372 9.75006 49.8544 12.0164C52.188 12.4403 56.2677 12.2772 58.0954 8.59245C58.0954 8.59245 58.9603 6.27724 56.5941 6.68484ZM47.5697 8.47832C46.9169 9.53811 46.8843 10.174 47.1944 10.5979C47.9614 9.45658 49.3158 7.66311 51.3557 6.26093C49.7891 6.42398 48.4672 7.07615 47.5697 8.47832ZM103.168 33.5381C101.667 37.2229 100.394 40.9566 99.6598 46.549C99.6598 46.549 99.4966 47.6414 98.599 47.2827C97.7015 46.9566 96.2328 45.4892 95.9064 43.4185C95.58 40.712 96.7876 36.1468 99.2518 30.8968C98.5337 29.7555 98.0279 28.0598 98.4358 25.6794C98.4358 25.6794 99.0886 21.2772 103.495 17.299C103.495 17.299 104.017 16.8588 104.311 17.0055C104.67 17.1685 104.523 18.5707 104.229 19.2881C103.968 19.9729 102.01 23.3642 102.01 23.3642C102.01 23.3642 100.786 25.6794 101.128 27.4892C103.446 23.9348 108.717 16.7283 111.981 19.0109C114.053 20.4783 114.053 25.2066 112.503 27.9457C111.279 30.1142 107.819 34.5979 103.201 33.5544L103.168 33.5381ZM109.99 22.4675C108.782 23.7718 106.628 26.2501 104.931 29.6088C106.726 29.4131 108.472 28.4185 109.01 27.9131C109.875 27.1468 111.866 25.0761 111.556 22.337C111.556 22.337 111.36 20.9022 109.99 22.4675ZM36.8808 35.462C31.1039 37.2229 25.6534 36.4077 22.6833 35.6251C22.6017 36.8316 22.4712 37.337 22.2753 37.5327C22.0469 37.7935 20.1539 38.8696 19.1095 37.337C18.6525 36.6033 18.4241 35.2827 18.2935 34.0761C11.6028 31.0435 8.50217 26.5761 8.40425 26.4131C8.24106 26.2501 6.7234 24.6685 8.24106 22.712C9.66081 20.9511 14.3607 19.174 18.571 18.4729C18.7341 14.8859 19.1258 12.1142 19.6317 10.8914C20.2355 9.42398 21.0025 10.7283 21.6879 11.7066C22.2427 12.4403 22.5854 15.587 22.618 18.0979C25.3596 17.9675 27.0242 18.1631 30.0758 18.7501C34.0903 19.4348 36.7666 21.4892 36.5544 23.8044C36.3586 26.087 34.2698 27.0327 33.4538 27.0979C32.6379 27.1631 31.3324 26.5598 31.3324 26.5598C30.4185 26.1359 31.2508 25.7446 32.3115 25.2881C33.4865 24.7175 33.2254 24.1468 33.2254 24.1468C32.8011 22.8425 27.5953 21.9783 22.4222 21.9783C22.4222 24.8316 22.5365 29.5598 22.618 32.3153C26.2409 33.0001 28.9498 32.8533 28.9498 32.8533C28.9498 32.8533 42.1681 32.4783 42.5435 24.049C42.9514 15.6033 29.3251 7.51637 19.289 4.97289C9.26916 2.34789 3.59017 4.20658 3.1006 4.45115C2.56207 4.71202 3.05164 4.80984 3.05164 4.80984C3.05164 4.80984 3.59017 4.89137 4.5693 5.21745C5.54844 5.54354 4.76513 6.03267 4.76513 6.03267C3.05164 6.61963 1.14233 6.27724 0.76699 5.49463C0.391655 4.72832 1.01177 4.02724 1.74613 3.00006C2.43152 1.94028 3.21483 1.97289 3.21483 1.97289C15.6172 -2.34776 30.7612 5.3968 30.7612 5.3968C44.926 12.5381 47.3412 20.9348 47.0801 24.1957C46.8517 27.4077 45.6114 32.837 36.8808 35.462ZM9.62817 23.8044C8.22474 24.4566 9.20388 25.5001 9.20388 25.5001C11.8475 28.3207 15.0787 30.0979 18.1793 31.2066C18.5383 26.3153 18.5057 24.5707 18.5057 22.1088C13.7079 22.4348 10.9337 23.2175 9.62817 23.8044Z" fill="white"/>
</svg>
