<svg width="60" height="48" viewBox="0 0 60 48" fill="none" xmlns="http://www.w3.org/2000/svg">
<g clip-path="url(#clip0_319_691)">
<path d="M59.0342 14.0359C58.9786 12.9241 58.8674 11.7846 58.6728 10.6728C58.4505 8.86624 57.4499 4.33584 53.2253 2.55704C53.1141 2.50145 53.0307 2.47365 52.9195 2.44586C51.0851 1.63984 49.0284 1.27852 47.055 1.00058C42.7192 0.416908 38.4111 0.166763 34.0753 0.0555877H32.9357C31.3515 0 30.1286 0 29.5727 0C28.989 0 27.7939 0 26.2096 0.0277939H25.0701C20.7342 0.166763 16.4262 0.416908 12.0903 1.00058C10.117 1.25072 8.06022 1.61204 6.22583 2.44586C6.11465 2.47365 6.03127 2.52924 5.92009 2.55704C1.66763 4.33584 0.694848 8.86624 0.444704 10.6728C0.250147 11.7846 0.166765 12.9241 0.0833835 14.0359C-0.0833797 16.7597 -0.027792 19.4835 0.0833835 22.2073V22.4852C0.138971 23.7915 0.222353 25.1257 0.305734 26.4876C0.611467 30.1841 1.05617 33.9085 1.94557 37.4939C2.22351 38.6613 2.61262 39.8286 3.11291 40.9126C3.47423 41.8298 3.89114 42.5524 4.33584 43.0805C5.14187 44.0533 6.17024 44.8037 7.36538 45.4152C7.58773 45.5263 7.78228 45.6375 8.00463 45.7209C11.3677 47.2496 15.231 47.3885 18.872 47.6109C22.4297 47.8332 26.0151 47.9722 29.6005 47.9722C33.1859 47.9444 36.7713 47.8332 40.3289 47.6109C43.9699 47.3885 47.8332 47.2496 51.1963 45.7209C51.4186 45.6097 51.6132 45.5263 51.8356 45.4152C53.0307 44.8037 54.0591 44.0533 54.8651 43.0805C55.3098 42.5524 55.6989 41.802 56.088 40.9126C56.5883 39.8286 56.9496 38.6613 57.2554 37.4939C58.1448 33.9363 58.5895 30.2397 58.8396 26.5709C58.9508 25.1812 59.0342 23.7915 59.0898 22.4574V22.1239C59.1453 19.4279 59.1731 16.7319 59.0342 14.0359ZM29.5727 44.7759H20.9844C20.9288 44.7481 20.901 44.6925 20.901 44.6091C20.901 44.5258 20.9288 44.4424 20.9288 44.4146C20.9844 44.2478 21.0122 44.0533 21.0678 43.8865C21.5125 42.4412 22.652 38.8002 22.652 38.8002C22.6798 38.7446 22.6798 38.6891 22.7076 38.6335C22.8466 38.2166 23.0133 37.7441 23.2357 37.2438C23.6526 36.2432 24.3474 35.4928 24.9033 35.1314C25.209 34.9369 25.5704 34.7701 25.9317 34.6589C26.1262 34.6034 26.3208 34.5756 26.5431 34.52C26.9045 34.4366 27.3214 34.381 27.7105 34.3254C28.2386 34.2976 28.85 34.2698 29.5449 34.2698C30.2397 34.2698 30.8512 34.2698 31.3793 34.3254C31.7962 34.381 32.1853 34.4366 32.5466 34.52C32.769 34.5756 32.9635 34.6034 33.1581 34.6589C33.5472 34.7701 33.8807 34.9369 34.1865 35.1314C34.7423 35.4928 35.465 36.2432 35.8541 37.2438C36.0486 37.7441 36.2154 38.1888 36.3822 38.6057C36.41 38.6613 36.41 38.7169 36.4378 38.7724C36.4378 38.7724 37.5773 42.469 38.022 43.9143C38.0776 44.0811 38.1054 44.2478 38.161 44.4146C38.161 44.4424 38.1888 44.5536 38.1888 44.6091C38.1888 44.6925 38.161 44.7203 38.1054 44.7759H29.5727ZM40.6346 3.08512C41.1627 3.1685 41.5796 3.19629 41.8576 3.22409C42.0243 3.25188 42.1355 3.27968 42.2189 3.30747H42.2467C42.3856 3.36306 42.4412 3.44644 42.4412 3.55761C42.3301 4.00232 42.1355 4.75275 41.9131 5.66995C40.857 9.64447 39.7174 14.3416 38.6335 18.2328C37.9108 20.762 36.938 23.8193 35.7985 25.5981C34.9647 26.7099 33.8807 27.5715 32.4076 27.9328C31.6294 28.044 30.74 28.0718 29.5727 28.0718C28.4331 28.0718 27.5159 28.044 26.7377 27.9328C25.2646 27.5993 24.1807 26.7655 23.3746 25.6537L23.3468 25.6259C22.2073 23.8471 21.2067 20.7342 20.4841 18.205C19.4279 14.3138 18.2884 9.64447 17.2322 5.72554C16.9821 4.78054 16.7875 4.03011 16.6763 3.58541C16.6763 3.44644 16.7319 3.36306 16.8709 3.33526H16.8987C16.9821 3.30747 17.0932 3.27968 17.26 3.25188C17.5379 3.22409 17.927 3.19629 18.4551 3.11291C18.5941 3.08512 18.7053 3.08512 18.8442 3.05732C19.3445 3.02953 19.956 2.97394 20.7064 2.94615C21.0122 2.94615 21.3179 2.91836 21.6514 2.91836C26.2096 2.77939 29.3781 2.75159 29.5449 2.7238C29.7116 2.7238 32.8801 2.75159 37.4383 2.91836C37.7719 2.91836 38.1054 2.94615 38.3833 2.94615C39.1338 2.97394 39.7452 3.02953 40.2455 3.05732C40.3845 3.05732 40.5235 3.08512 40.6346 3.08512ZM7.81008 41.7186C7.50434 41.3851 7.17082 40.9959 6.83729 40.4957C6.64274 40.1899 6.47597 39.8842 6.337 39.5507C5.36422 37.4661 5.03069 34.9091 4.75275 32.6856C4.75275 32.5744 4.72496 32.4632 4.72496 32.3799C4.69716 32.1853 4.66937 31.9907 4.64158 31.824C4.00232 27.238 3.80776 22.5686 3.86335 17.9548C3.89114 14.5918 3.66879 10.3671 5.50319 7.33758C5.61436 7.14302 5.75333 6.94847 5.8923 6.75391C5.8923 6.72611 5.92009 6.72612 5.92009 6.69832C6.00348 6.61494 6.05906 6.50376 6.14245 6.42038L6.17024 6.39259L6.22583 6.337L6.28141 6.28141L6.44818 6.11465C6.69832 5.86451 6.97626 5.66995 7.2542 5.47539C7.78228 5.11407 8.39375 4.86393 9.00521 4.64158C9.67227 4.39143 10.3393 4.19687 11.0064 4.00232C11.2565 4.00232 11.4233 4.11349 11.5067 4.28025C11.5067 4.5304 11.4789 5.53098 11.5067 7.30979V9.56109C11.5067 9.92241 11.5345 10.2837 11.5345 10.6728V10.7562C11.5345 10.923 11.5345 11.0898 11.5622 11.2565V11.3677C11.5622 11.5622 11.59 11.729 11.59 11.9236V11.9792C11.59 12.2015 11.6178 12.4239 11.6178 12.6462V12.7018C11.6178 12.8964 11.6456 13.0909 11.6456 13.2855V13.4522C11.6456 13.619 11.6734 13.7858 11.6734 13.9525V14.1471C11.6734 14.3416 11.7012 14.5362 11.7012 14.7307V14.9531C11.7012 15.1754 11.729 15.37 11.729 15.5924C11.729 15.6757 11.729 15.7869 11.7568 15.8981C11.7568 16.0649 11.7846 16.2038 11.7846 16.3706C11.7846 16.4818 11.7846 16.5929 11.8124 16.7041C11.8124 16.8431 11.8402 17.0098 11.8402 17.1766C11.8402 17.2878 11.868 17.399 11.868 17.5101C11.868 17.6769 11.8958 17.8159 11.8958 17.9826C11.8958 18.0938 11.9236 18.2328 11.9236 18.344C11.9236 18.5107 11.9514 18.6497 11.9514 18.8164C11.9514 18.9276 11.9792 19.0666 11.9792 19.1778C11.9792 19.3445 12.007 19.5391 12.007 19.7336C12.007 19.8448 12.0347 19.956 12.0347 20.0394C12.0625 20.3451 12.0903 20.623 12.0903 20.9288C12.0903 20.9844 12.0903 21.0677 12.1181 21.1233C12.1737 21.7904 12.2293 22.4852 12.2849 23.2079C12.2849 23.3746 12.3127 23.5136 12.3127 23.6804C12.3405 23.9305 12.3683 24.1807 12.3683 24.403C12.3961 24.6532 12.4239 24.9311 12.4517 25.1812C12.4794 25.348 12.4794 25.487 12.5072 25.6537C12.535 25.9595 12.5628 26.293 12.5906 26.5987C12.5906 26.6543 12.5906 26.7099 12.6184 26.7655C12.6462 26.9323 12.6462 27.1268 12.674 27.2936C12.674 27.4047 12.7018 27.4881 12.7018 27.5993C13.0909 32.5466 13.5634 37.4939 14.1749 42.4134C14.2305 42.9137 14.2583 43.2472 14.286 43.4696C14.286 43.9699 14.0081 44.22 13.5634 44.2756C13.2021 44.2478 12.5906 44.1644 11.868 43.9699C10.3393 43.414 8.50492 42.2745 7.81008 41.7186ZM45.5263 44.2478C45.0816 44.1922 44.8037 43.9421 44.8037 43.4418C44.8315 43.2195 44.8593 42.8859 44.9149 42.3578C45.5264 37.4383 45.9988 32.5188 46.388 27.5993C46.388 27.4881 46.4158 27.3492 46.4158 27.2102C46.4435 27.0434 46.4435 26.9045 46.4713 26.7377C46.4713 26.6821 46.4713 26.6265 46.4991 26.5709L46.5825 25.6537C46.6103 25.487 46.6103 25.3202 46.6381 25.1534C46.6659 24.9311 46.6659 24.7087 46.6937 24.4864C46.7215 24.1807 46.7493 23.9027 46.7771 23.6248C46.7771 23.4858 46.8049 23.3746 46.8049 23.2357C46.8605 22.513 46.916 21.8182 46.9716 21.1511C46.9716 21.0677 46.9716 20.9844 46.9994 20.9288C47.055 20.2339 47.1106 19.5669 47.1384 18.8998V18.7331C47.1662 18.3162 47.194 17.927 47.2218 17.5379V17.4268C47.2496 17.2044 47.2496 17.0098 47.2496 16.7875V16.7597C47.2774 16.3428 47.3052 15.9259 47.333 15.5368V15.4534C47.333 15.2588 47.3607 15.0643 47.3607 14.8697V14.8419V14.7585C47.3607 14.5918 47.3885 14.425 47.3885 14.2583V14.0915C47.3885 13.9525 47.3885 13.8135 47.4163 13.6746V13.4522C47.4163 13.3411 47.4163 13.2299 47.4441 13.1187V12.8408V12.5628C47.4441 12.4517 47.4441 12.3405 47.4719 12.2293V12.0347C47.4719 11.8958 47.4719 11.7846 47.4997 11.6456V11.5345C47.4997 11.3955 47.4997 11.2565 47.5275 11.1175V11.062C47.5275 10.8952 47.5275 10.7562 47.5553 10.5895C47.6943 6.8095 47.6387 4.64158 47.6387 4.30805C47.7499 4.14129 47.8888 4.03011 48.139 4.03011C48.806 4.22467 49.4731 4.41922 50.1401 4.66937C50.7516 4.89172 51.3631 5.16966 51.8911 5.50318C52.1691 5.69774 52.447 5.8923 52.6972 6.14244L52.8639 6.30921C52.8639 6.337 52.8917 6.337 52.8917 6.36479L52.9473 6.42038C53.0307 6.50376 53.1141 6.61494 53.1975 6.72612C53.1975 6.75391 53.2253 6.75391 53.2253 6.7817C55.4766 9.83903 55.2264 14.3972 55.2542 17.9826C55.3098 22.5964 55.0874 27.2936 54.476 31.8518C54.4482 32.0185 54.4204 32.1853 54.4204 32.3799C54.3926 32.491 54.3926 32.63 54.3648 32.769C54.2814 33.1859 54.2258 33.575 54.1424 33.9085C54.0591 34.3532 53.6144 36.7435 53.5588 36.9936C53.3364 37.9386 52.9195 39.2449 52.7805 39.6063C52.6138 39.9398 52.447 40.2733 52.2525 40.579C51.9467 41.0515 51.5854 41.4407 51.2797 41.7742C50.6126 42.3301 48.7504 43.4696 47.194 44.0255C46.4991 44.1367 45.8877 44.2478 45.5263 44.2478Z" fill="white"/>
</g>
<defs>
<clipPath id="clip0_319_691">
<rect width="59.1175" height="48" fill="white"/>
</clipPath>
</defs>
</svg>
