<svg width="64" height="64" viewBox="0 0 64 64" fill="none" xmlns="http://www.w3.org/2000/svg">
<g clip-path="url(#clip0_319_644)">
<path d="M17.0367 14.5886L19.285 18.1858C19.7846 18.9852 20.2842 19.7846 20.7838 20.6339C20.9337 20.8837 21.1835 21.5332 21.4832 21.733V15.1382C21.4832 15.0383 21.4333 14.7885 21.4832 14.7385C21.5332 14.6386 21.4832 14.6885 21.6831 14.6885C21.9829 14.6386 22.2826 14.6885 22.5824 14.6885C22.8322 14.6885 23.2818 14.5886 23.5316 14.6885C23.7315 14.7385 23.6815 14.7885 23.6815 15.0882V24.381C23.6815 24.5808 23.7814 25.0804 23.6815 25.2803C23.5816 25.4302 22.8822 25.3302 22.6823 25.3302H21.6831C21.5832 25.3302 21.4333 25.3802 21.3833 25.3302C21.1835 25.2303 21.0336 24.7307 20.8837 24.5808C20.0843 23.2818 19.285 22.0328 18.4856 20.7338C18.1359 20.1343 17.7861 19.5847 17.3864 18.9852C17.2865 18.7853 17.0867 18.3857 16.8868 18.2358V24.281C16.8868 24.5309 16.9868 24.9305 16.8868 25.1304C16.8369 25.3302 16.9368 25.2803 16.637 25.2803H15.1382C14.9883 25.2803 14.7885 25.3302 14.6886 25.2303C14.6386 25.1304 14.6886 24.7807 14.6886 24.6807V15.1882C14.6886 15.1382 14.6386 14.7885 14.6886 14.7385C14.7885 14.6386 15.5379 14.7385 15.6878 14.7385C16.1374 14.5886 16.5871 14.5886 17.0367 14.5886ZM21.4832 41.4177C20.6839 40.1187 18.7854 39.9188 17.6862 40.9181C16.5371 41.9173 16.3872 43.7658 16.737 45.1647C17.0867 46.6636 18.2358 47.6628 19.7846 47.4629C20.4341 47.413 20.9836 47.1132 21.3334 46.5636C21.5332 46.3138 21.6331 46.0141 21.733 45.7143C21.783 45.5644 21.783 45.1647 21.9329 45.1148C22.0328 45.0648 22.2826 45.1148 22.3825 45.1148H24.1312C23.9313 47.2131 22.6323 48.9618 20.484 49.3115C18.4856 49.6612 16.3872 48.9618 15.2381 47.2631C14.139 45.6144 13.9891 43.2662 14.7385 41.4177C15.5379 39.5191 17.3365 38.37 19.3849 38.3201C21.6831 38.2701 23.7814 39.719 24.0313 42.1171H22.6823C22.4825 42.1171 22.1327 42.1671 21.9329 42.1171H21.783C21.6831 42.0672 21.5832 41.5675 21.4832 41.4177C21.6331 41.6175 21.3334 41.2178 21.4832 41.4177ZM24.4809 30.776H21.1335C21.0336 30.776 20.7338 30.8259 20.6839 30.776C20.6339 30.726 20.5839 30.5761 20.5839 30.4762C20.3841 29.8767 20.1843 29.2272 19.9844 28.6277C19.8345 28.128 19.6347 27.6284 19.4848 27.1288L18.4356 30.2764C18.3857 30.3763 18.3857 30.6761 18.2857 30.726C18.2358 30.776 18.0359 30.726 17.986 30.726H14.4387L17.1366 32.6745C17.4364 32.9243 17.5363 32.8743 17.4364 33.2241C17.2366 33.8236 17.0367 34.4731 16.8369 35.0726C16.687 35.5722 16.4871 36.0718 16.3373 36.5714L19.0352 34.623C19.3349 34.3732 19.3349 34.2732 19.6846 34.523C20.1843 34.9227 20.7338 35.2725 21.2334 35.6722C21.6831 35.9719 22.0828 36.2717 22.5324 36.6214L21.4832 33.4739C21.4333 33.3739 21.3334 33.1241 21.3334 33.0242C21.3334 32.9743 21.5332 32.8743 21.5832 32.8244C22.0828 32.4247 22.6323 32.075 23.132 31.6753C23.6316 31.3755 24.0313 31.0757 24.4809 30.776Z" fill="white"/>
<path d="M32.025 0C14.3388 0 0 14.3388 0 32.025C0 49.7112 14.3388 64.05 32.025 64.05C49.7112 64.05 64.05 49.7112 64.05 32.025C64.05 14.3388 49.7112 0 32.025 0ZM31.975 60.203C16.4372 60.203 3.79703 47.5628 3.79703 32.025C3.79703 16.4871 16.4372 3.84699 31.975 3.84699C47.5129 3.84699 60.153 16.4871 60.153 32.025H32.025L31.975 60.203L33.6237 60.153C33.0742 60.203 32.5246 60.203 31.975 60.203Z" fill="white"/>
<path opacity="0.5" d="M33.6237 3.84692H32.025V31.9749H60.153C60.153 16.9367 48.4122 4.69626 33.6237 3.84692Z" fill="white"/>
</g>
<defs>
<clipPath id="clip0_319_644">
<rect width="64" height="64" fill="white"/>
</clipPath>
</defs>
</svg>
