<svg width="183" height="40" viewBox="0 0 183 40" fill="none" xmlns="http://www.w3.org/2000/svg">
<g clip-path="url(#clip0_319_605)">
<path d="M181.364 23.8461C178.951 23.8461 165.699 23.8811 165.594 23.8811C165.245 23.8811 165 23.6363 165 23.3216C165 23.1818 165.035 23.1118 165.14 23.0419C165.245 23.0069 165.455 22.937 165.839 22.8671C166.434 22.7971 166.888 22.6223 167.168 22.3426C167.483 22.0978 167.692 21.6783 167.832 21.1887C167.972 20.6643 168.042 19.3706 168.042 17.2377C168.077 15.1398 168.077 12.6223 168.077 9.68525C168.077 8.5314 168.007 7.69224 167.832 7.16777C167.657 6.64329 167.413 6.25868 167.098 6.01392C166.783 5.76917 166.329 5.62931 165.769 5.59434C165.35 5.55938 165.175 5.41952 165.175 5.1398C165.175 4.86007 165.42 4.72021 165.874 4.72021L170.524 4.75518H173.601C174.056 4.75518 174.406 4.72021 174.545 4.72021C174.93 4.72021 175.14 4.86007 175.14 5.1398C175.14 5.27966 175.07 5.38455 174.93 5.45448C174.79 5.52441 174.476 5.59434 173.986 5.66427C173.357 5.7342 172.902 5.90903 172.657 6.15378C172.413 6.39854 172.238 6.81812 172.133 7.37756C172.028 7.97196 171.993 9.26567 171.993 11.3286V19.93C171.993 21.2587 172.133 22.0279 172.343 22.3076C172.587 22.5524 173.007 22.6922 173.636 22.6922C175.175 22.6922 176.329 22.5873 177.098 22.3426C177.867 22.0978 178.566 21.6783 179.266 21.0489C179.965 20.4195 180.699 19.3706 181.469 17.8671C181.608 17.5524 181.783 17.4125 181.958 17.4125C182.203 17.4125 182.343 17.5524 182.343 17.8321C182.343 18.4615 182.028 20.4195 181.364 23.7762V23.8461ZM113.392 6.01392C112.552 5.38455 111.259 4.96497 109.51 4.79014C108.846 4.72021 99.3007 4.79014 99.3007 4.79014C98.7063 4.79014 98.3916 4.89504 98.3916 5.20973C98.3916 5.48945 98.5664 5.62931 98.8811 5.62931C99.6154 5.62931 100.14 5.80413 100.42 6.18875C100.699 6.5384 100.874 7.02791 100.874 7.62231V17.6223C100.874 19.7202 100.804 21.0139 100.699 21.5034C100.594 21.9929 100.455 22.4125 100.21 22.5873C100 22.7971 99.6154 22.902 99.0909 23.0069C98.5664 23.0769 98.3217 23.2167 98.3217 23.4265C98.3217 23.7062 98.4615 23.8111 98.7762 23.8111H106.853C107.413 23.8111 107.657 23.7062 107.657 23.4615C107.657 23.2866 107.587 23.1818 107.483 23.1118C107.378 23.0419 107.098 23.0069 106.643 23.0069C105.979 22.972 105.49 22.7971 105.175 22.4825C104.86 22.1328 104.685 21.3286 104.685 20.2097V14.8251C105.594 14.8601 106.399 14.895 107.063 14.895C109.895 14.895 111.923 14.4055 113.147 13.4615C114.406 12.5174 115 11.2587 115 9.68525C115.14 8.11182 114.545 6.88805 113.392 6.01392ZM109.441 12.5174C108.706 13.4265 107.552 13.8811 106.049 13.8811C105.769 13.8811 105.35 13.8461 104.79 13.8111V5.94399C105.734 5.76917 106.469 5.69924 106.993 5.69924C108.007 5.69924 108.846 6.01392 109.545 6.57336C110.245 7.16777 110.594 8.04189 110.594 9.2307C110.559 10.5244 110.21 11.6083 109.441 12.5174Z" fill="white"/>
<path d="M129.336 15.3496C128.357 14.5104 126.888 13.8461 124.965 13.4615C128.287 12.4825 129.93 10.909 129.93 8.67126C129.93 7.37756 129.406 6.36357 128.392 5.59434C127.343 4.82511 125.979 4.72021 124.231 4.72021C123.636 4.72021 114.965 4.75518 114.72 4.82511C114.51 4.86008 114.371 4.99993 114.371 5.20973C114.371 5.34959 114.441 5.48945 114.545 5.52441C114.65 5.59434 114.895 5.62931 115.28 5.66427C115.699 5.69924 116.014 5.76917 116.224 5.90903C116.434 6.04889 116.608 6.29364 116.713 6.64329C116.818 6.99294 116.923 7.79714 116.958 9.02091C116.993 10.2447 117.028 11.888 117.028 13.951L116.923 20.5244C116.923 21.1887 116.853 21.6783 116.678 21.9929C116.504 22.3076 116.294 22.5174 116.014 22.6223C115.734 22.7622 115.315 22.8321 114.72 22.937C114.441 22.972 114.301 23.1818 114.301 23.3915C114.301 23.6713 114.476 23.8111 114.86 23.8111C115.035 23.8111 122.168 23.7762 122.622 23.7762C124.58 23.7762 126.084 23.6363 127.133 23.3216C128.182 23.0419 129.021 22.3426 129.755 21.4685C130.455 20.5943 130.839 19.6153 130.839 18.5314C130.769 17.2727 130.28 16.2237 129.336 15.3496ZM121.049 5.76917C121.818 5.48945 122.483 5.55938 123.042 5.55938C123.811 5.55938 124.476 5.66427 125.07 6.29364C125.629 6.88805 125.944 7.8321 125.944 9.05588C125.944 11.8531 124.336 13.2517 121.084 13.2517C121.014 11.1538 120.979 9.65028 120.979 8.77616C120.944 7.72721 120.979 6.71322 121.049 5.76917ZM125.524 21.6433C124.86 22.3776 123.846 22.7272 122.483 22.7272C121.713 22.7272 121.294 22.5873 121.154 22.3426C121.014 22.0978 120.944 21.0839 120.944 19.3356C120.944 18.0069 120.979 16.3636 121.049 14.3706C121.573 14.3356 122.028 14.3006 122.308 14.3006C123.741 14.3006 124.79 14.7202 125.49 15.5244C126.189 16.3286 126.538 17.3776 126.538 18.6363C126.538 19.895 126.224 20.909 125.524 21.6433Z" fill="white"/>
<path d="M147.133 18.8462C146.958 18.8462 146.783 19.0211 146.608 19.3358C145.49 21.6085 143.112 22.7623 139.511 22.7623C138.531 22.7623 137.797 22.6225 137.413 22.3777C136.993 22.133 136.748 21.7833 136.678 21.3987C136.608 20.9791 136.573 19.7204 136.573 17.5525C136.573 17.063 136.608 16.0141 136.643 14.4057C138.112 14.4057 139.161 14.6504 139.825 15.105C140.49 15.5595 140.944 16.2239 141.119 17.098C141.224 17.5875 141.399 17.8672 141.608 17.8672C141.923 17.8672 142.063 17.7274 142.063 17.4826C142.063 17.4127 142.063 17.3427 142.028 17.2379C141.958 16.9232 141.923 16.5386 141.923 16.119C141.923 13.1819 141.993 11.4337 142.098 10.8393C142.133 10.7693 142.133 10.6644 142.133 10.6295C142.133 10.4197 141.993 10.2798 141.748 10.2798C141.538 10.2798 141.399 10.4197 141.294 10.7344C141.259 10.9092 141.049 11.2938 140.699 11.8882C140.35 12.4826 139.93 12.8672 139.441 13.077C138.951 13.2518 138.357 13.3567 137.692 13.3567H136.608C136.573 12.5525 136.573 11.9931 136.573 11.6434C136.573 9.65044 136.643 7.83226 136.818 6.15394C137.622 6.01408 138.427 5.94415 139.301 5.94415C140.839 5.94415 141.993 6.15394 142.797 6.60849C143.601 7.06303 144.51 8.00709 145.49 9.40569C145.664 9.68541 145.839 9.7903 145.979 9.7903C146.259 9.7903 146.364 9.65044 146.364 9.37072C146.084 7.90219 145.769 6.22387 145.455 4.75534L130.594 4.72037C130.245 4.72037 130.07 4.96513 130.07 5.24485C130.07 5.45464 130.21 5.5945 130.524 5.62946C131.259 5.73436 131.748 5.87422 132.028 6.08401C132.308 6.2938 132.448 6.67842 132.517 7.23786C132.587 7.7973 132.622 9.33576 132.622 11.8183L132.552 19.091C132.552 20.6295 132.378 21.6434 132.063 22.133C131.748 22.6225 131.119 22.8672 130.21 22.8672C129.86 22.8672 129.685 23.0071 129.685 23.2518C129.685 23.5665 129.895 23.7064 130.35 23.7064C130.455 23.7064 139.93 23.7414 141.364 23.7414H146.504L147.413 19.6854C147.483 19.4407 147.483 19.2658 147.483 19.091C147.517 18.9511 147.378 18.8462 147.133 18.8462ZM165 17.7973C165 17.5176 164.86 17.3777 164.615 17.3777C164.441 17.3777 164.266 17.5176 164.126 17.8323C163.357 19.3008 162.622 20.3847 161.923 21.0141C161.224 21.6434 160.524 22.063 159.755 22.3078C158.986 22.5525 157.832 22.6574 156.294 22.6574C155.664 22.6574 155.245 22.5176 155 22.2728C154.755 22.0281 154.65 21.2239 154.65 19.8952V11.3288C154.65 9.30079 154.685 7.97212 154.79 7.37772C154.895 6.78331 155.07 6.3987 155.315 6.15394C155.559 5.90918 156.014 5.76932 156.643 5.66443C157.168 5.5945 157.483 5.52457 157.587 5.45464C157.727 5.38471 157.797 5.27981 157.797 5.13995C157.797 4.86023 157.587 4.72037 157.203 4.72037C157.028 4.72037 156.713 4.75534 156.259 4.75534H153.182L148.531 4.72037C148.077 4.72037 147.832 4.86023 147.832 5.13995C147.832 5.41967 148.042 5.55953 148.427 5.5945C148.986 5.62946 149.441 5.76932 149.755 6.01408C150.07 6.25884 150.315 6.64345 150.49 7.16793C150.664 7.6924 150.734 8.53156 150.734 9.68541C150.734 12.5875 150.734 15.105 150.699 17.2379C150.664 19.3358 150.594 20.6644 150.49 21.1889C150.35 21.7134 150.14 22.098 149.825 22.3428C149.511 22.5875 149.056 22.7623 148.497 22.8672C148.147 22.9372 147.902 22.9721 147.797 23.0421C147.692 23.077 147.657 23.1819 147.657 23.3218C147.657 23.6015 147.867 23.8812 148.252 23.8812C148.357 23.8812 161.608 23.8462 164.021 23.8462V23.7414C164.685 20.3847 165 18.4267 165 17.7973ZM55.1049 18.9511C55.1049 18.6365 54.965 18.4966 54.6504 18.4966C54.4755 18.4966 54.3007 18.6365 54.0909 18.9162C52.4825 21.2588 50.6993 22.4127 48.7762 22.4127C46.993 22.4127 45.4895 21.6085 44.3007 20.0001C43.1119 18.3917 42.4825 16.2239 42.4825 13.4966C42.4825 11.9232 42.6923 10.5246 43.1119 9.40569C43.5315 8.25184 44.1259 7.37772 44.9301 6.71338C45.6993 6.04905 46.6434 5.73436 47.7972 5.73436C49.3357 5.73436 50.5944 6.32877 51.6084 7.55254C52.6224 8.77632 53.3217 9.8952 53.7063 10.8742C53.8112 11.1889 53.986 11.3288 54.1958 11.3288C54.5105 11.3288 54.6504 11.1539 54.6504 10.7693L54.6154 10.2099L54.3357 5.80429C54.3007 5.31478 54.2657 5.03506 54.1958 4.93016C54.1259 4.82527 54.021 4.7903 53.8112 4.7903C53.6364 4.7903 53.4266 4.96513 53.1818 5.34974C52.972 5.66443 52.7622 5.90919 52.5524 6.18891C50.6294 5.13995 48.7413 4.61548 46.8531 4.61548C44.1958 4.61548 42.028 5.5945 40.2797 7.55254C38.5315 9.51058 37.6923 11.8183 37.6923 14.4756C37.6923 17.133 38.5664 19.4057 40.2797 21.2239C41.993 23.0421 44.3357 23.9511 47.3077 23.9511C49.5455 23.9511 51.3986 23.2868 52.9021 21.9232C54.3357 20.5595 55.1049 19.5805 55.1049 18.9511ZM73.7413 22.133C73.8112 22.063 73.8811 21.9581 73.9161 21.8882V21.8532C73.8811 21.9232 73.8112 22.0281 73.7413 22.133ZM75.6294 8.56653V8.53156V8.56653Z" fill="white"/>
<path d="M96.6084 23.077C95.7692 23.042 95.1748 22.5176 94.7902 21.9581C94.4056 21.3987 94.2308 20.4197 94.2308 18.9861V12.063C94.2308 9.23084 94.4056 7.44763 94.7203 6.71336C95.0699 5.97909 95.7692 5.62944 96.8182 5.62944C97.1329 5.62944 97.2727 5.48958 97.2727 5.24483C97.2727 4.93014 97.0629 4.79028 96.6783 4.79028H90.035C88.8461 8.00707 86.993 12.4476 84.6503 17.7273C84.5804 17.5176 84.1958 16.8532 83.5664 15.7343C82.7622 14.3008 82.028 12.9022 81.3986 11.6085C80.7692 10.3148 80.1049 9.02105 79.4406 7.76231C78.7762 6.50357 78.2517 5.38469 78.007 4.82525L71.7832 4.86021C71.4336 4.86021 71.2587 5.00007 71.2587 5.24483C71.2587 5.48958 71.3986 5.66441 71.7133 5.73434C72.5524 5.90916 73.1469 6.11895 73.4965 6.4686C73.8461 6.78329 74.0909 7.23784 74.1958 7.83224C74.3007 8.42665 74.3357 9.65042 74.3357 11.4686L74.2657 19.5455C74.2657 20.0001 74.2308 20.3847 74.1958 20.7343C74.1259 21.2238 74.021 21.6085 73.8811 21.8882V21.9231C73.8462 21.9931 73.7762 22.098 73.7063 22.1679H73.6713C73.3217 22.5525 72.7972 22.7623 72.2378 22.7623C71.6783 22.7623 71.1538 22.5176 70.8042 22.1679H70.7692C70.7343 22.098 70.6643 22.063 70.6294 21.9931C70.2447 21.4336 69.5105 19.8252 68.4615 17.1329C66.1888 11.3287 64.6154 7.51756 63.3566 4.82525L61.8881 5.20986C59.5804 10.8392 58.1468 14.4756 56.958 17.7973C56.4336 19.2658 55.979 20.3497 55.6294 21.0141C55.2448 21.6784 54.8951 22.1329 54.5804 22.3777C54.2657 22.6224 53.8112 22.8672 53.2517 23.042C53.007 23.112 52.9021 23.2518 52.9021 23.4616C52.9021 23.7413 53.0769 23.8812 53.4266 23.8812C53.5315 23.8812 58.8112 23.8462 58.951 23.8462C59.3357 23.8462 59.5455 23.7064 59.5455 23.4616C59.5455 23.2169 59.3706 23.077 59.0909 23.042C58.7413 22.9371 58.4266 22.7623 58.1119 22.5525C57.6923 22.2728 57.5175 21.8532 57.5175 21.3637C57.5175 20.6644 58.007 19.0211 58.7762 16.8532H64.2308C64.6154 17.6924 65 18.6015 65.3496 19.6155C65.6993 20.6294 65.8741 21.3287 65.8741 21.7134C65.8741 22.5176 65.2797 23.0071 64.1259 23.112C63.8112 23.1469 63.6713 23.2518 63.6713 23.4616C63.6713 23.7413 63.8811 23.8812 64.3357 23.8812C64.5804 23.8812 72.2378 23.9162 72.4475 23.9162H77.972C78.2517 23.9162 78.4266 23.8113 78.4266 23.5665C78.4266 23.3917 78.3217 23.2868 78.1119 23.2169C77.1678 23.077 76.6084 22.6924 76.3986 22.1679C76.1538 21.6085 76.0489 20.2798 76.0489 18.1819C76.0489 14.5805 76.0839 11.6434 76.1189 9.3707C80.1049 17.098 82.4475 22.1329 83.1119 23.5665C83.1818 23.7064 83.3217 23.9511 83.3217 23.9511C83.3217 23.9511 84.1259 23.9511 84.1259 23.9162H84.4406C84.4406 23.9162 87.8671 14.6854 90.3846 8.70637V13.5315L90.2098 19.7204C90.2098 20.5595 90.1399 21.1889 90.035 21.6434C89.9301 22.063 89.7552 22.3777 89.5454 22.5176C89.3357 22.6924 88.986 22.9022 88.4615 22.9721C87.972 23.042 87.7273 23.1819 87.7273 23.4266C87.7273 23.5665 87.7622 23.8113 88.007 23.8113H96.958C97.1329 23.7064 97.2028 23.6015 97.2028 23.4616C97.2378 23.2169 97.028 23.077 96.6084 23.077ZM59.2308 15.6294L61.4336 9.82525C61.7133 10.5245 62.0979 11.4336 62.5524 12.5525C63.1119 13.8462 63.5315 14.8602 63.7762 15.5945L59.2308 15.6294ZM75.6294 8.56651V8.53154C75.6643 8.53154 75.6643 8.56651 75.6294 8.56651ZM62.2727 34.2658C62.2727 34.8252 62.1678 35.3497 61.993 35.8043C61.7832 36.2588 61.5385 36.6434 61.1888 36.9581C60.8392 37.2728 60.4545 37.5176 60 37.6924C59.5455 37.8672 59.021 37.9371 58.4965 37.9371C57.972 37.9371 57.4475 37.8672 56.993 37.6924C56.5385 37.5176 56.1189 37.2728 55.8042 36.9581C55.4545 36.6434 55.2098 36.2588 55 35.8043C54.8252 35.3497 54.7203 34.8252 54.7203 34.2658V28.3218H56.3986V34.2308C56.3986 34.4756 56.4336 34.7204 56.5035 34.9651C56.5734 35.2099 56.6783 35.4546 56.8531 35.6644C57.028 35.8742 57.2378 36.049 57.5175 36.1889C57.7972 36.3287 58.1119 36.3987 58.5315 36.3987C58.9161 36.3987 59.2657 36.3287 59.5455 36.1889C59.8252 36.049 60.035 35.8742 60.2098 35.6644C60.3846 35.4546 60.4895 35.2099 60.5594 34.9651C60.6294 34.7204 60.6643 34.4756 60.6643 34.2308V28.3218H62.3427V34.2658H62.2727ZM68.3217 28.3218H70.5594L75.1049 35.3148H75.1399V28.3218H76.8182V37.7623H74.6853L70.035 30.5245H70V37.7623H68.3217V28.3218ZM82.8671 28.3218H84.5455V37.7623H82.8671V28.3218ZM89.5105 28.3218H91.4685L94.021 35.4546L96.6783 28.3218H98.4965L94.6853 37.7623H93.2168L89.5105 28.3218ZM103.496 28.3218H109.755V29.8252H105.175V32.1679H109.51V33.6714H105.175V36.2238H110V37.7623H103.496V28.3218ZM115.629 28.3218H118.916C119.371 28.3218 119.79 28.3567 120.245 28.4616C120.664 28.5315 121.049 28.7064 121.364 28.8812C121.678 29.091 121.958 29.3707 122.133 29.7204C122.343 30.07 122.413 30.4896 122.413 31.049C122.413 31.7483 122.238 32.3078 121.853 32.7623C121.469 33.2169 120.944 33.4966 120.245 33.6015L122.762 37.7623H120.734L118.531 33.7413H117.308V37.7623H115.629V28.3218ZM118.636 32.3078C118.881 32.3078 119.126 32.3078 119.371 32.2728C119.615 32.2378 119.825 32.2029 120.035 32.098C120.245 32.028 120.385 31.8882 120.524 31.7134C120.664 31.5385 120.699 31.2938 120.699 30.9791C120.699 30.6994 120.629 30.4896 120.524 30.3148C120.42 30.1399 120.245 30.035 120.07 29.9301C119.895 29.8602 119.685 29.7903 119.441 29.7553C119.196 29.7204 118.986 29.7204 118.776 29.7204H117.308V32.2728L118.636 32.3078ZM132.657 30.3497C132.483 30.105 132.238 29.8952 131.958 29.7903C131.643 29.6854 131.364 29.6155 131.014 29.6155C130.804 29.6155 130.629 29.6504 130.455 29.6854C130.28 29.7204 130.105 29.7903 129.965 29.8952C129.825 30.0001 129.685 30.105 129.615 30.2798C129.51 30.4197 129.476 30.6294 129.476 30.8392C129.476 31.1539 129.58 31.3987 129.825 31.5735C130.035 31.7483 130.315 31.8882 130.664 32.028C130.979 32.1679 131.364 32.2728 131.748 32.3777C132.133 32.4826 132.483 32.6574 132.832 32.8672C133.147 33.077 133.427 33.3567 133.671 33.6714C133.881 34.0211 134.021 34.4406 134.021 35.0001C134.021 35.4896 133.916 35.9441 133.741 36.3287C133.566 36.7134 133.287 37.028 132.972 37.2728C132.657 37.5176 132.308 37.6924 131.888 37.8322C131.469 37.9721 131.014 38.0071 130.559 38.0071C129.965 38.0071 129.406 37.9022 128.881 37.7273C128.357 37.5176 127.867 37.2029 127.483 36.7483L128.741 35.5245C128.951 35.8392 129.231 36.084 129.545 36.2588C129.895 36.4336 130.245 36.5036 130.594 36.5036C130.804 36.5036 130.979 36.4686 131.189 36.4336C131.399 36.3637 131.573 36.2938 131.713 36.1889C131.888 36.084 131.993 35.9441 132.098 35.7693C132.203 35.5945 132.238 35.4197 132.238 35.2099C132.238 34.8602 132.133 34.5805 131.888 34.4057C131.678 34.2308 131.399 34.056 131.049 33.9162C130.734 33.7763 130.35 33.6714 129.965 33.5665C129.58 33.4616 129.231 33.2868 128.881 33.077C128.566 32.8672 128.287 32.6225 128.042 32.2728C127.832 31.9232 127.692 31.5036 127.692 30.9441C127.692 30.4546 127.797 30.035 128.007 29.6854C128.217 29.3357 128.462 29.0211 128.776 28.8113C129.091 28.5665 129.476 28.3917 129.895 28.2868C130.315 28.1819 130.734 28.112 131.189 28.112C131.678 28.112 132.168 28.1819 132.622 28.3218C133.077 28.4616 133.496 28.7064 133.881 29.056L132.657 30.3497ZM139.615 28.3218H141.294V37.7623H139.615V28.3218ZM149.301 29.8252H146.399V28.3218H153.881V29.8252H150.979V37.7623H149.301V29.8252ZM161.329 33.7064L157.762 28.3218H159.895L162.203 32.063L164.545 28.3218H166.538L163.007 33.7064V37.7623H161.329V33.7064ZM17.9371 6.85322H21.5035L22.7622 9.93014V14.1259L22.3077 14.0211V9.82525L21.3986 7.72735L20.5245 9.16091V13.6015L20.1399 13.4966L17.1329 7.9721L17.9371 6.85322ZM24.1958 19.2658C24.1958 18.9861 24.4406 18.7413 24.7203 18.7413C25 18.7413 25.2447 18.9861 25.2447 19.2658V23.6015L24.1608 23.6364L24.1958 19.2658ZM17.5874 17.9371C18.007 17.9371 18.3566 18.2868 18.3916 18.7064V23.8462L16.8182 23.9162V18.7064C16.8182 18.2868 17.1678 17.9371 17.5874 17.9371ZM21.4685 18.3567C22.2028 18.3567 22.7622 18.9511 22.7622 19.6504V25.2798L20.1399 25.4896V19.6504C20.1748 18.9511 20.7343 18.3567 21.4685 18.3567Z" fill="white"/>
<path d="M29.5455 5.87413C29.4056 5.83916 28.1119 5.45455 26.2238 5.03497C24.7902 4.68531 22.5874 4.26573 20.1748 3.95105L21.0839 5.62937C21.2587 5.66434 21.4336 5.6993 21.6434 5.6993L21.7832 5.73427C24.6853 6.18881 27.1678 6.81818 28.3916 7.13287L28.6014 7.2028V25.6993C28.6014 27.5524 27.7972 29.3007 26.4685 30.3497L26.4336 30.3846C26.1888 30.5944 25.9091 30.8042 25.6643 30.979L25.3147 31.2238V30.4895C25.3147 29.8951 24.8252 29.4056 24.2308 29.4056C23.6364 29.4056 23.1469 29.8951 23.1119 30.4895V32.7273L19.8951 34.9301V32.0979C19.8951 31.2587 19.2308 30.5944 18.3916 30.5944C17.5524 30.5944 16.8881 31.2587 16.8881 32.0979V36.993L15.1399 38.1818V29.4056L26.5734 27.3427V26.6783L15.1049 28.0769V15.5245L26.8182 17.3776V16.3636L15.1049 13.6364L16.014 0.594406V0L12.9371 1.57343V2.0979L10.3846 6.85315H8.63636L7.37762 9.93007V12.2378L5.97902 14.5804L3.25175 15.8042V17.3427L3.81119 17.4126V18.4266L2.93706 18.5315L2.83217 18.6364V19.3357L3.67133 19.8951L3.81119 30.5245C3.74126 30.4545 3.67133 30.3846 3.6014 30.3497L3.56643 30.3147C2.23776 29.2657 1.43357 27.5175 1.43357 25.6643V7.2028L1.64336 7.13287C3.00699 6.78322 6.53846 5.90909 10.3846 5.45455L11.2238 3.81119C5.66434 4.33566 0.664336 5.8042 0.41958 5.87413L0 6.04895V25.6993C0 28.007 1.01399 30.2098 2.69231 31.5385C2.97203 31.7832 3.28671 32.028 3.6014 32.2378L15.035 40L15.6643 39.5804L26.4685 32.2378C26.7832 32.028 27.0979 31.7832 27.3776 31.5385C29.0559 30.1748 30.0699 28.007 30.0699 25.6993V6.04895L29.5455 5.87413ZM6.53846 23.6713L5.45455 23.6364V19.2657C5.45455 18.951 5.6993 18.7063 6.01399 18.7063C6.32867 18.7063 6.57343 18.951 6.57343 19.2657V23.6713H6.53846ZM9.3007 34.2657L8.00699 33.3916V30.5944C8.00699 30.2448 8.28671 29.9301 8.67133 29.9301C9.02098 29.9301 9.33566 30.2098 9.33566 30.5944L9.3007 34.2657ZM9.3007 23.7762L8.00699 23.7063V19.021C8.00699 18.6713 8.28671 18.3566 8.67133 18.3566C9.02098 18.3566 9.33566 18.6364 9.33566 19.021L9.3007 23.7762ZM12.5524 36.5035L11.049 35.4895V31.3287C11.049 30.9091 11.3986 30.5594 11.8182 30.5594C12.2378 30.5594 12.5874 30.9091 12.5874 31.3287V36.5035H12.5524ZM12.5524 23.8811L11.049 23.8112V18.7762C11.049 18.3566 11.3986 18.007 11.8182 18.007C12.2378 18.007 12.5874 18.3566 12.5874 18.7762V23.8811H12.5524ZM10.035 13.4965V9.02098L9.05594 7.34266H12.5874L13.0769 7.97203L10.035 13.4965Z" fill="white"/>
</g>
<defs>
<clipPath id="clip0_319_605">
<rect width="182.343" height="40" fill="white"/>
</clipPath>
</defs>
</svg>
