<svg width="32" height="31" viewBox="0 0 32 31" fill="none" xmlns="http://www.w3.org/2000/svg">
<g clip-path="url(#clip0_456_2351)">
<path d="M16.0337 0.0673384L16.0202 0.0538707V0.0134677L15.9933 0.0269354L15.9663 0V0.040403L15.9528 0.0269354V0.0538707L0 15.6494L6.31916 24.592L11.1966 23.4742L15.9933 30.208L20.7899 23.4742L25.6674 24.592L29.5882 19.0433L32 15.636L16.0337 0.0673384ZM15.5082 1.89894L13.3255 22.3159L9.06779 16.5114L15.5082 1.89894ZM8.86569 16.2151L6.18442 12.5653L15.4947 1.18516L8.86569 16.2151ZM13.2312 22.7065L11.3314 23.1375L8.12463 18.6393L8.91958 16.8346L13.2312 22.7065ZM15.9394 0.902334L15.9933 0.794593L16.0472 0.902334L18.2973 22.8546H18.2838L16.0741 26.1138L13.6893 22.8412L15.9394 0.902334ZM18.6611 22.3159L16.4783 1.89894L22.9187 16.5114L18.6611 22.3159ZM23.0535 16.8211L23.8484 18.6258L20.6417 23.124L18.7419 22.693L23.0535 16.8211ZM16.5053 1.18516L25.8156 12.5653L23.1343 16.2151L16.5053 1.18516ZM6.45389 24.2553L0.404211 15.6898L14.4842 1.93935L5.79368 12.5519L8.71747 16.5383L7.77432 18.6662L11.008 23.2048L6.45389 24.2553ZM15.9933 29.6962L11.52 23.4203L13.4333 22.9759L13.4602 23.0163L13.4333 23.0297L16.0741 26.6525L18.5263 23.0297L18.4994 23.0163L18.5263 22.9759L20.4396 23.4203L15.9933 29.6962ZM29.3322 18.8817L25.5326 24.2553L20.9785 23.2048L24.2122 18.6662L23.2691 16.5383L26.1928 12.5519L17.5023 1.92588L31.5823 15.6764L29.3322 18.8817Z" fill="url(#paint0_linear_456_2351)"/>
<path d="M16.0337 0.0673384V0.040403M16.0337 0.0673384L16.0202 0.0538707V0.0134677L15.9933 0.0269354L15.9663 0V0.040403L15.9528 0.0269354V0.0538707L0 15.6494L6.31916 24.592L11.1966 23.4742L15.9933 30.208L20.7899 23.4742L25.6674 24.592L29.5882 19.0433L32 15.636L16.0337 0.0673384ZM15.5082 1.89894L13.3255 22.3159L9.06779 16.5114L15.5082 1.89894ZM8.86568 16.2151L6.18442 12.5653L15.4947 1.18516L8.86568 16.2151ZM13.2312 22.7065L11.3314 23.1375L8.12463 18.6393L8.91958 16.8346L13.2312 22.7065ZM15.9394 0.902334L15.9933 0.794593L16.0472 0.902334L18.2973 22.8546H18.2838L16.0741 26.1138L13.6893 22.8412L15.9394 0.902334ZM18.6611 22.3159L16.4783 1.89894L22.9187 16.5114L18.6611 22.3159ZM23.0535 16.8211L23.8484 18.6258L20.6417 23.124L18.7419 22.693L23.0535 16.8211ZM16.5053 1.18516L25.8156 12.5653L23.1343 16.2151L16.5053 1.18516ZM6.45389 24.2553L0.404211 15.6898L14.4842 1.93935L5.79368 12.5519L8.71747 16.5383L7.77432 18.6662L11.008 23.2048L6.45389 24.2553ZM15.9933 29.6962L11.52 23.4203L13.4333 22.9759L13.4602 23.0163L13.4333 23.0297L16.0741 26.6525L18.5263 23.0297L18.4994 23.0163L18.5263 22.9759L20.4396 23.4203L15.9933 29.6962ZM29.3322 18.8817L25.5326 24.2553L20.9785 23.2048L24.2122 18.6662L23.2691 16.5383L26.1928 12.5519L17.5023 1.92588L31.5823 15.6764L29.3322 18.8817Z" stroke="url(#paint1_linear_456_2351)" stroke-width="0.75"/>
</g>
<defs>
<linearGradient id="paint0_linear_456_2351" x1="1599.32" y1="95.2313" x2="1599.32" y2="3032.05" gradientUnits="userSpaceOnUse">
<stop stop-color="#54EEFF"/>
<stop offset="1" stop-color="#1C75BC"/>
</linearGradient>
<linearGradient id="paint1_linear_456_2351" x1="1599.32" y1="95.2313" x2="1599.32" y2="3032.05" gradientUnits="userSpaceOnUse">
<stop stop-color="#54EEFF"/>
<stop offset="1" stop-color="#1C75BC"/>
</linearGradient>
<clipPath id="clip0_456_2351">
<rect width="32" height="30.208" fill="white"/>
</clipPath>
</defs>
</svg>
