<svg width="32" height="31" viewBox="0 0 32 31" fill="none" xmlns="http://www.w3.org/2000/svg">
<g clip-path="url(#clip0_456_2348)">
<path d="M19.882 14.6686L18.5018 15.8226L18.2251 2.12277L12.5499 2.90843V2.90869C12.2398 3.00544 11.9311 3.10691 11.624 3.21307L11.534 3.2443L10.6329 11.0328L10.6132 11.2297L10.8118 11.1998C10.8338 11.1968 11.0527 11.1806 11.2538 11.4584C11.4657 11.7518 11.3959 12.0389 11.269 12.5609L10.1479 17.1735L9.3589 17.7174L6.67359 7.9899L2.10079 8.11637C1.46757 8.6372 1.08345 9.00494 1.07589 9.01224L1.03621 9.04961L0.106934 17.5375L0.373558 17.3746C0.37855 17.3713 0.859062 17.0832 1.30681 17.0832C1.39333 17.0832 1.47321 17.0933 1.5445 17.1164C1.87807 17.2201 1.98853 17.3957 2.13202 17.8437L6.32978 30.0887L6.5013 29.8136C8.11282 27.2209 10.1289 25.76 13.46 24.769L13.5477 24.7429L13.781 23.6463L13.6786 19.2945L15.2882 19.6187L16.4111 24.3346L16.5594 24.3012C16.5691 24.2993 17.4969 24.0968 19.242 24.0968C19.5235 24.0968 19.815 24.1029 20.108 24.1138C22.1238 24.1852 24.0769 24.7068 24.0964 24.7126L24.2402 24.75L24.5129 23.871C24.4648 23.8578 24.1023 17.9227 24.1023 17.9227L27.0982 2.32514L22.1771 1.18427C21.6355 1.2411 21.3054 1.28296 21.2964 1.28373L21.177 1.30011L20.4011 8.67214L20.3908 8.83854H20.5607C20.6009 8.83854 20.9544 8.84584 21.0859 9.08814C21.2315 9.35656 21.2221 9.72712 21.0548 10.2563L19.882 14.6686Z" fill="black"/>
<path d="M22.177 1.18413L22.1781 1.18234L22.2632 0.434694C22.2632 0.434694 24.5819 0.180358 27.084 0.151046C30.2177 0.114438 31.8495 0.279686 31.8495 0.279686L31.0153 8.31271C31.0153 8.31271 30.5329 8.27572 30.1623 8.53287C29.6403 8.8937 29.4392 9.92308 29.4392 9.92308L25.0267 24.0238C25.0267 24.0238 24.847 23.9605 24.5123 23.8684L24.5116 23.8706C23.7569 23.6634 22.2089 23.3098 20.1047 23.2021C18.2404 23.1067 17.0547 23.2666 17.0547 23.2666L15.7575 17.2645L15.7573 17.2643L15.2882 19.6187L15.2868 19.6163L14.4577 23.7764C14.2088 23.8296 13.9617 23.8876 13.7166 23.9478L13.716 23.9503C10.8419 24.6554 8.26561 25.8654 6.5755 28.313L2.90689 17.1724C2.76238 16.7164 2.62977 16.3306 2.12814 16.1752C1.62241 16.0173 1.21973 16.2669 1.21973 16.2669L2.10715 8.11687L2.09973 8.11738L2.09819 8.11533L2.17397 7.4162C2.17397 7.4162 3.65723 6.10996 5.74363 4.90023C7.72904 3.74836 10.0878 2.87642 10.8177 2.6185L9.92552 11.2728C9.7796 11.375 9.5876 11.5658 9.4235 11.918C9.2475 12.2975 9.23944 13.0687 9.34926 13.5471L10.1486 17.1704L10.1479 17.1735L10.5814 19.1391L12.2776 12.3678C12.4257 11.7458 12.5326 11.5127 12.2776 11.0321C12.0552 10.6107 11.6658 10.6025 11.6658 10.6025L12.5498 2.90868L12.5513 2.90727L12.6408 2.12801C12.6408 2.12801 14.3555 1.63367 16.367 1.22138C18.2291 0.841094 19.9707 0.641158 20.5289 0.582406L19.6726 8.89037C19.5303 8.94298 19.3208 9.07124 19.1767 9.38343C18.9815 9.80506 18.9706 10.5165 19.0837 10.9663L19.8829 14.665L19.882 14.6686L20.3064 16.6319L22.1385 9.63879C22.2968 9.14151 22.2574 8.86631 22.0735 8.52212C21.888 8.17409 21.3779 8.165 21.3779 8.165L22.177 1.18413Z" fill="#C4012F"/>
</g>
<defs>
<clipPath id="clip0_456_2348">
<rect width="32" height="30.208" fill="white"/>
</clipPath>
</defs>
</svg>
