<svg width="32" height="25" viewBox="0 0 32 25" fill="none" xmlns="http://www.w3.org/2000/svg">
<g clip-path="url(#clip0_456_2344)">
<path fill-rule="evenodd" clip-rule="evenodd" d="M21.3457 13.9518C23.4491 13.9518 26.4912 13.5187 26.4912 11.0172C26.4976 10.8239 26.4795 10.6305 26.4374 10.4416L25.1866 5.00025C24.8962 3.80331 24.6487 3.25998 22.5426 2.21098C20.9099 1.37715 17.3595 0 16.3078 0C15.3287 0 15.0463 1.26149 13.887 1.26149C12.7654 1.26149 11.9315 0.320081 10.8798 0.320081C9.87119 0.320081 9.21489 1.00597 8.70652 2.42078C8.70652 2.42078 7.29171 6.40968 7.1115 6.99336C7.08148 7.09911 7.06876 7.20901 7.07384 7.31882C7.06577 8.87619 13.1796 13.9437 21.3457 13.9437" fill="#EE0000"/>
<path fill-rule="evenodd" clip-rule="evenodd" d="M26.8142 12.0313C27.1046 13.4084 27.1046 13.5537 27.1046 13.7339C27.1046 16.0874 24.4579 17.3946 20.9801 17.3946C13.1179 17.3946 6.23485 12.7925 6.23485 9.74765C6.2324 9.32389 6.31852 8.90429 6.48769 8.51575C3.66075 8.6583 0 9.16129 0 12.3944C0 17.6851 12.5396 24.2078 22.4675 24.2078C30.0795 24.2078 32.0081 20.7649 32.0081 18.0455C32.0081 15.8937 30.1575 13.473 26.8249 12.0313" fill="#EE0000"/>
<path fill-rule="evenodd" clip-rule="evenodd" d="M26.8142 12.0313C27.1047 13.4084 27.1047 13.5537 27.1047 13.7339C27.1047 16.0874 24.458 17.3946 20.9801 17.3946C13.1207 17.3946 6.23491 12.7925 6.23491 9.74766C6.23247 9.32389 6.31859 8.90429 6.48775 8.51575L7.1037 6.99335C7.07515 7.09754 7.06246 7.20545 7.06605 7.31343C7.06605 8.87617 13.1799 13.9437 21.346 13.9437C23.4493 13.9437 26.4914 13.5106 26.4914 11.0091C26.4978 10.8158 26.4798 10.6224 26.4377 10.4335L26.8142 12.0313Z" fill="black"/>
</g>
<defs>
<clipPath id="clip0_456_2344">
<rect width="32" height="24.2078" fill="white"/>
</clipPath>
</defs>
</svg>
