<svg width="32" height="32" viewBox="0 0 32 32" fill="none" xmlns="http://www.w3.org/2000/svg">
<g clip-path="url(#clip0_454_2333)">
<path d="M5.98868 14.262C7.65965 10.9279 10.3817 8.23647 13.7345 6.60332C14.117 6.41936 14.5091 6.24992 14.9012 6.11921C14.9075 6.1167 14.9129 6.11235 14.9167 6.10674C14.9205 6.10113 14.9225 6.09452 14.9225 6.08774C14.9225 6.08097 14.9205 6.07435 14.9167 6.06874C14.9129 6.06313 14.9075 6.05879 14.9012 6.05627C3.2147 8.00242 -1.79589 22.5162 6.0032 28.7274C6.00898 28.7332 6.01681 28.7364 6.02498 28.7364C6.03316 28.7364 6.04099 28.7332 6.04677 28.7274C6.05255 28.7216 6.05579 28.7138 6.05579 28.7056C6.05579 28.6974 6.05255 28.6896 6.04677 28.6838C4.91394 27.1104 2.24647 21.7852 5.98868 14.262Z" fill="white"/>
<path d="M8.66578 23.9395C8.36072 22.0378 8.36072 20.0996 8.66578 18.1979C9.26883 14.4865 11.0373 11.0632 13.7151 8.4236C14.2008 7.94905 14.7149 7.50446 15.2546 7.09228C15.2586 7.08678 15.2609 7.08019 15.2611 7.07337C15.2613 7.06656 15.2595 7.05984 15.2558 7.05409C15.2522 7.04833 15.2468 7.04382 15.2406 7.04113C15.2343 7.03845 15.2274 7.03771 15.2207 7.03903C9.116 9.76459 5.59649 16.5761 6.02251 22.7776C6.27425 25.6097 7.38771 30.8284 12.8001 31.8596C12.8051 31.8566 12.8093 31.8523 12.8122 31.8472C12.815 31.8422 12.8166 31.8364 12.8166 31.8306C12.8166 31.8247 12.815 31.819 12.8122 31.8139C12.8093 31.8088 12.8051 31.8045 12.8001 31.8015C10.6506 30.2669 9.06275 26.6699 8.66578 23.9395Z" fill="white"/>
<path d="M1.12331 9.95825C3.87309 6.10469 9.45493 3.50015 14.9254 4.17792C14.9317 4.1754 14.9371 4.17106 14.9409 4.16545C14.9447 4.15984 14.9467 4.15322 14.9467 4.14645C14.9467 4.13967 14.9447 4.13306 14.9409 4.12745C14.9371 4.12184 14.9317 4.1175 14.9254 4.11498C10.762 2.90469 6.41953 3.71317 3.76658 5.8578C2.62407 6.77761 1.74298 8.36551 1.07006 9.92436C1.05554 9.95825 1.10395 9.9873 1.12331 9.95825Z" fill="white"/>
<path d="M31.9517 14.7655C31.711 11.8357 30.6721 9.02794 28.948 6.64706C27.2238 4.26618 24.8802 2.40324 22.1718 1.26058C19.4633 0.117918 16.4935 -0.260773 13.585 0.165635C10.6765 0.592043 7.94039 1.80725 5.67391 3.67926C5.64486 3.70347 5.67391 3.74704 5.71264 3.72767C7.80402 2.53191 10.6797 2.56095 12.3789 2.75944C13.2698 2.86716 14.1495 3.05346 15.0076 3.31617C15.8651 3.58778 16.6963 3.93614 17.4912 4.35702C17.9027 4.57487 18.2996 4.81209 18.6869 5.06383C20.1199 4.43136 21.6333 3.99965 23.1843 3.78092C23.2373 3.77171 23.2918 3.78116 23.3386 3.80764C23.3854 3.83412 23.4216 3.87601 23.4409 3.92616C23.452 3.95693 23.4565 3.9897 23.4541 4.02232C23.4517 4.05495 23.4424 4.0867 23.4269 4.11549C23.4113 4.14428 23.3899 4.16946 23.364 4.18939C23.338 4.20933 23.3082 4.22356 23.2763 4.23115C22.453 4.4063 21.6439 4.64256 20.8558 4.93796C20.8495 4.94047 20.8441 4.94482 20.8403 4.95042C20.8365 4.95603 20.8344 4.96265 20.8344 4.96943C20.8344 4.9762 20.8365 4.98282 20.8403 4.98843C20.8441 4.99404 20.8495 4.99838 20.8558 5.00089C21.9671 5.00624 23.0749 5.12465 24.1623 5.3543C24.2097 5.3635 24.2532 5.38697 24.287 5.42158C24.3207 5.45619 24.3431 5.50027 24.3511 5.54794C24.355 5.58303 24.351 5.61856 24.3392 5.65184C24.3274 5.68512 24.3081 5.71527 24.2829 5.74001C24.2577 5.76474 24.2272 5.78341 24.1937 5.79459C24.1602 5.80576 24.1246 5.80916 24.0896 5.80452C23.1401 5.65862 22.179 5.60189 21.2188 5.63508C21.2126 5.6376 21.2072 5.64194 21.2034 5.64755C21.1996 5.65316 21.1975 5.65978 21.1975 5.66655C21.1975 5.67333 21.1996 5.67994 21.2034 5.68555C21.2072 5.69116 21.2126 5.69551 21.2188 5.69802C21.6691 5.83841 22.1096 5.99333 22.5453 6.18213C23.3575 6.5164 24.1412 6.91631 24.8884 7.3779C24.9246 7.39843 24.9539 7.42908 24.9728 7.46606C24.9917 7.50305 24.9994 7.54476 24.9949 7.58607C24.9882 7.61831 24.9745 7.64867 24.9547 7.67495C24.9348 7.70124 24.9094 7.7228 24.8802 7.73808C24.8511 7.75336 24.8189 7.76198 24.786 7.76332C24.7531 7.76466 24.7203 7.75868 24.6899 7.74583C23.9453 7.33753 23.17 6.98791 22.371 6.70014C22.037 6.58395 21.6933 6.47744 21.3496 6.38062C21.3433 6.38314 21.3379 6.38748 21.3341 6.39309C21.3303 6.3987 21.3282 6.40531 21.3282 6.41209C21.3282 6.41886 21.3303 6.42548 21.3341 6.43109C21.3379 6.4367 21.3433 6.44104 21.3496 6.44356C21.9104 6.79444 22.4458 7.1843 22.952 7.61027C23.6241 8.17506 24.2475 8.7953 24.8158 9.46443C24.8429 9.49493 24.8609 9.53242 24.8678 9.57265C24.8746 9.61288 24.87 9.65422 24.8545 9.69197C24.84 9.72733 24.8168 9.75845 24.787 9.78246C24.7573 9.80648 24.7219 9.82261 24.6843 9.82936C24.6467 9.83611 24.608 9.83328 24.5717 9.82111C24.5355 9.80894 24.5029 9.78784 24.4769 9.75974C23.9045 9.13316 23.281 8.55509 22.6131 8.03145C22.2161 7.72646 21.7998 7.44083 21.3738 7.17457C21.3667 7.17169 21.3589 7.17124 21.3516 7.17331C21.3443 7.17538 21.3379 7.17985 21.3335 7.18599C21.329 7.19213 21.3267 7.19959 21.327 7.20717C21.3273 7.21476 21.3301 7.22203 21.335 7.22782C21.4561 7.35369 21.5771 7.4844 21.6933 7.61511C22.2689 8.28241 22.7856 8.99836 23.2376 9.7549C23.6874 10.5115 24.0682 11.307 24.3753 12.1319C24.39 12.1709 24.3937 12.2132 24.386 12.2542C24.3784 12.2952 24.3596 12.3333 24.3317 12.3643C24.3049 12.3922 24.2716 12.4129 24.2348 12.4246C24.198 12.4364 24.1588 12.4388 24.1208 12.4316C24.0828 12.4244 24.0473 12.4078 24.0173 12.3834C23.9873 12.3589 23.964 12.3274 23.9493 12.2917C22.9936 9.92 21.4084 7.85437 19.3647 6.31769C19.171 6.17729 18.8806 5.97881 18.7644 5.90135C5.47542 13.2986 10.0794 32.7262 19.6503 31.7144C23.3875 30.8248 26.6826 28.6266 28.9391 25.5176C31.1956 22.4085 32.2643 18.5943 31.9517 14.7655Z" fill="white"/>
<path d="M3.13697 12.3449C6.19658 7.50378 11.5267 5.40756 14.7945 5.08321C14.8008 5.08069 14.8061 5.07635 14.8099 5.07074C14.8137 5.06513 14.8158 5.05851 14.8158 5.05174C14.8158 5.04497 14.8137 5.03835 14.8099 5.03274C14.8061 5.02713 14.8008 5.02279 14.7945 5.02027C13.3747 4.90572 11.9457 5.01188 10.5585 5.33495C8.90097 5.70548 7.32031 6.36068 5.88675 7.27141C4.45425 8.19896 3.19851 9.37437 2.17842 10.7425L2.14454 10.7812C1.18018 12.0912 0.516986 13.5979 0.202325 15.1938C-0.112335 16.7897 -0.0706972 18.4354 0.324264 20.0133C0.416246 20.3812 0.663145 21.1365 0.808379 21.6206C0.810893 21.6269 0.815235 21.6323 0.820844 21.6361C0.826453 21.6399 0.833072 21.6419 0.839847 21.6419C0.846621 21.6419 0.85324 21.6399 0.858849 21.6361C0.864458 21.6323 0.8688 21.6269 0.871314 21.6206C0.519632 18.3589 1.32124 15.0771 3.13697 12.3449Z" fill="white"/>
</g>
<defs>
<clipPath id="clip0_454_2333">
<rect width="32" height="31.8596" fill="white"/>
</clipPath>
</defs>
</svg>
