<svg width="32" height="32" viewBox="0 0 32 32" fill="none" xmlns="http://www.w3.org/2000/svg">
<g clip-path="url(#clip0_454_2316)">
<path d="M16 32C24.8366 32 32 24.8366 32 16C32 7.16344 24.8366 0 16 0C7.16344 0 0 7.16344 0 16C0 24.8366 7.16344 32 16 32Z" fill="white"/>
<mask id="mask0_454_2316" style="mask-type:luminance" maskUnits="userSpaceOnUse" x="1" y="1" width="30" height="30">
<path d="M16.0001 30.0643C23.7676 30.0643 30.0644 23.7675 30.0644 16C30.0644 8.23251 23.7676 1.9357 16.0001 1.9357C8.2326 1.9357 1.93579 8.23251 1.93579 16C1.93579 23.7675 8.2326 30.0643 16.0001 30.0643Z" fill="white"/>
</mask>
<g mask="url(#mask0_454_2316)">
<path d="M16.0001 1.9357H1.93579V30.0643H16.0001V1.9357Z" fill="#0A2940"/>
<path d="M30.0643 1.9357H16V16H30.0643V1.9357Z" fill="#CF1F42"/>
<path d="M30.0643 16H16V30.0643H30.0643V16Z" fill="white"/>
<path d="M8.50718 7.30317L9.62363 9.09648L10.3729 10.3103C10.4579 10.4452 10.5852 10.7699 10.7226 10.8473V7.54294C10.7226 7.50048 10.7001 7.3731 10.7226 7.33564C10.7451 7.29817 10.7226 7.31815 10.8175 7.30317C10.9671 7.29068 11.1175 7.29068 11.2671 7.30317C11.4254 7.28192 11.5858 7.28192 11.7441 7.30317C11.8441 7.33563 11.8116 7.35562 11.8116 7.49049V12.1236C11.8116 12.2186 11.859 12.4783 11.8116 12.5607C11.7641 12.6432 11.402 12.5857 11.3121 12.5857H10.8125C10.7701 12.5857 10.6901 12.6007 10.6552 12.5857C10.5628 12.5333 10.4703 12.291 10.4054 12.2011L9.21152 10.2829L8.67452 9.41618C8.61208 9.31878 8.52966 9.11147 8.42476 9.05402V12.0787C8.4435 12.2238 8.4435 12.3707 8.42476 12.5158C8.39479 12.6082 8.43725 12.5857 8.29738 12.5857H7.54808C7.47065 12.5857 7.36325 12.6107 7.32829 12.5607C7.29332 12.5108 7.32829 12.3409 7.32829 12.286V7.54044C7.32829 7.50797 7.30581 7.33813 7.32829 7.31316C7.35076 7.28818 7.75289 7.31316 7.82782 7.31316L8.50718 7.30317Z" fill="#FFC107"/>
<path d="M10.74 20.7056C10.6369 20.5567 10.5038 20.4311 10.3492 20.3368C10.1947 20.2424 10.022 20.1815 9.84251 20.158C9.66297 20.1345 9.48049 20.1488 9.30683 20.2001C9.13317 20.2514 8.97219 20.3385 8.83425 20.4558C8.26728 20.9554 8.19235 21.882 8.3497 22.5664C8.40709 22.9195 8.59805 23.237 8.88306 23.4532C9.16806 23.6693 9.52528 23.7677 9.88077 23.7278C10.036 23.7145 10.1863 23.6671 10.321 23.589C10.4557 23.5108 10.5715 23.4038 10.66 23.2757C10.7469 23.1477 10.8135 23.007 10.8574 22.8586C10.8823 22.7762 10.8873 22.5864 10.9448 22.5514C11.0022 22.5164 11.1246 22.5514 11.1771 22.5514H12.0437C11.9513 23.5929 11.2944 24.4671 10.2304 24.6594C9.74046 24.7625 9.23108 24.7211 8.7642 24.5402C8.29731 24.3593 7.89301 24.0467 7.60041 23.6404C7.32897 23.2079 7.16469 22.7169 7.12125 22.2082C7.07781 21.6995 7.15645 21.1878 7.35064 20.7156C7.5407 20.2586 7.86225 19.8684 8.27447 19.5944C8.6867 19.3205 9.17103 19.1752 9.66597 19.177C10.8249 19.1621 11.8564 19.8839 11.9913 21.0778H11.3144C11.1909 21.094 11.0658 21.094 10.9423 21.0778C10.9248 21.0778 10.8898 21.0778 10.8748 21.0778C10.8599 21.0778 10.7849 20.7805 10.7425 20.7131C10.6725 20.5932 10.8124 20.8155 10.74 20.7056Z" fill="#FFC107"/>
<path d="M12.2387 15.3781H10.5703C10.5278 15.3781 10.3755 15.4031 10.3355 15.3781C10.2955 15.3531 10.2955 15.2682 10.2856 15.2357L9.99083 14.3191L9.74107 13.5698L9.24153 15.1508C9.22655 15.1933 9.20407 15.3456 9.1691 15.3731C9.13414 15.4006 9.05171 15.3731 9.01924 15.3731H7.24341L8.58965 16.3522C8.75199 16.4696 8.79695 16.4496 8.73701 16.6344L8.44728 17.5586L8.19751 18.3079L9.54375 17.3313C9.7061 17.2139 9.7011 17.1639 9.85846 17.2763L10.6402 17.8458L11.2796 18.3079L10.7701 16.7343C10.7551 16.6944 10.6827 16.557 10.6977 16.512C10.7127 16.4671 10.7876 16.4396 10.8151 16.4196L11.5968 15.8527L12.2387 15.3781Z" fill="white"/>
</g>
</g>
<defs>
<clipPath id="clip0_454_2316">
<rect width="32" height="32" fill="white"/>
</clipPath>
</defs>
</svg>
