<?xml version="1.0" encoding="utf-8"?>
<!-- Generator: Adobe Illustrator 19.2.1, SVG Export Plug-In . SVG Version: 6.00 Build 0)  -->
<svg version="1.1" id="Layer_1" xmlns="http://www.w3.org/2000/svg" xmlns:xlink="http://www.w3.org/1999/xlink" x="0px" y="0px"
	 viewBox="0 0 32 32" style="enable-background:new 0 0 32 32;" xml:space="preserve">
<style type="text/css">
	.st0{fill:#2A2B2F;}
</style>
<title>social-icons</title>
<path class="st0" d="M23.8,14.4c-0.2-1-0.6-2-1.2-2.9c-2.5-3.7-7.4-4.6-11.1-2.2c-0.9,0.6-1.6,1.3-2.2,2.2c-0.6,0.9-1,1.8-1.2,2.9
	c-0.9,4.3,1.9,8.6,6.2,9.5c3.2,0.7,6.4-0.7,8.3-3.4C23.8,18.7,24.3,16.5,23.8,14.4z M22.8,15.9c-1.6-0.3-3.2-0.4-4.8-0.2
	c-0.2-0.5-0.4-0.9-0.6-1.3c1.5-0.5,2.8-1.5,3.8-2.7C22.3,12.9,22.8,14.4,22.8,15.9L22.8,15.9L22.8,15.9z M20.5,10.9
	c-0.9,1.2-2.2,2-3.6,2.5c-0.8-1.4-1.6-2.7-2.6-4C16.6,8.8,18.8,9.4,20.5,10.9L20.5,10.9L20.5,10.9z M14.4,9.4L14.4,9.4z M13.1,9.8
	c0.9,1.3,1.8,2.6,2.5,3.9c-2.1,0.5-4.2,0.8-6.3,0.8C9.8,12.5,11.1,10.7,13.1,9.8L13.1,9.8z M9.2,16c0-0.1,0-0.1,0-0.2
	c2.4,0,4.7-0.3,7-1c0.2,0.4,0.4,0.8,0.6,1.2L16.5,16c-2.3,0.8-4.3,2.4-5.6,4.5l0,0C9.8,19.3,9.2,17.7,9.2,16L9.2,16z M16,22.8
	c-1.6,0-3.1-0.6-4.4-1.6l0.1,0.1c1.2-2.1,3.1-3.6,5.4-4.3l0,0c0.7,1.7,1.1,3.4,1.5,5.2C17.8,22.7,16.9,22.8,16,22.8L16,22.8L16,22.8
	z M19.8,21.7c-0.3-1.7-0.7-3.3-1.3-4.9c1.4-0.2,2.9-0.1,4.3,0.3C22.4,18.9,21.4,20.6,19.8,21.7C19.8,21.7,19.8,21.7,19.8,21.7z"/>
</svg>
