<?xml version="1.0" encoding="utf-8"?>
<!-- Generator: Adobe Illustrator 19.2.1, SVG Export Plug-In . SVG Version: 6.00 Build 0)  -->
<svg version="1.1" id="Layer_1" xmlns="http://www.w3.org/2000/svg" xmlns:xlink="http://www.w3.org/1999/xlink" x="0px" y="0px"
	 viewBox="0 0 32 32" style="enable-background:new 0 0 32 32;" xml:space="preserve">
<style type="text/css">
	.st0{fill:#2A2B2F;}
</style>
<title>social-icons</title>
<path class="st0" d="M12.3,14.7v2.5h3.4c-0.3,1.6-1.8,2.7-3.4,2.5c-2.1,0-3.8-1.7-3.8-3.8s1.7-3.8,3.8-3.8c0.9,0,1.8,0.3,2.5,0.9
	c0.5-0.5,0.5-0.6,1.8-1.9c-2.6-2.4-6.6-2.2-9,0.4s-2.2,6.6,0.4,9c1.2,1.1,2.7,1.7,4.3,1.7c5.3,0,6.6-4.6,6.1-7.6L12.3,14.7
	L12.3,14.7z M23.8,14.9v-2.2h-1.6v2.2H20v1.6h2.3v2.3h1.6v-2.3H26v-1.6L23.8,14.9L23.8,14.9z"/>
</svg>
