<?xml version="1.0" encoding="utf-8"?>
<!-- Generator: Adobe Illustrator 19.2.1, SVG Export Plug-In . SVG Version: 6.00 Build 0)  -->
<svg version="1.1" id="Layer_1" xmlns="http://www.w3.org/2000/svg" xmlns:xlink="http://www.w3.org/1999/xlink" x="0px" y="0px"
	 viewBox="0 0 32 32" style="enable-background:new 0 0 32 32;" xml:space="preserve">
<style type="text/css">
	.st0{fill:#2A2B2F;}
</style>
<title>social-icons</title>
<g>
	<path class="st0" d="M8.2,13.3h3.4v10.3H8.2V13.3z M9.9,11.9c-1.2,0-1.9-0.8-1.9-1.8s0.8-1.8,1.9-1.8c1.2,0,1.9,0.8,1.9,1.8
		C11.9,11.2,11.1,11.9,9.9,11.9z"/>
	<path class="st0" d="M24,23.6h-3.4v-5.5c0-1.4-0.5-2.3-1.7-2.3c-1,0-1.5,0.6-1.7,1.2C17,17.3,17,17.5,17,17.9v5.7h-3.4
		c0,0,0-9.4,0-10.3H17v1.5c0.5-0.7,1.3-1.7,3.1-1.7c2.2,0,3.9,1.5,3.9,4.6V23.6z"/>
</g>
</svg>
