<?xml version="1.0" encoding="utf-8"?>
<!-- Generator: Adobe Illustrator 19.2.1, SVG Export Plug-In . SVG Version: 6.00 Build 0)  -->
<svg version="1.1" id="Layer_1" xmlns="http://www.w3.org/2000/svg" xmlns:xlink="http://www.w3.org/1999/xlink" x="0px" y="0px"
	 viewBox="0 0 32 32" style="enable-background:new 0 0 32 32;" xml:space="preserve">
<style type="text/css">
	.st0{fill:#2A2B2F;}
</style>
<title>social-icons</title>
<path class="st0" d="M14,15.3c1.2-0.1,2.1-1.2,2-2.5c0,0,0,0,0,0c0-2.3-1.6-3.4-3.6-3.4H5.6v12.9h6.7c0,0,4.1,0.1,4.1-3.8
	C16.4,18.5,16.6,15.3,14,15.3z M8.6,11.7h3.8c0,0,0.9,0,0.9,1.3s-0.5,1.5-1.1,1.5H8.6V11.7L8.6,11.7z M12.1,20H8.6v-3.4h3.8
	c0,0,1.4,0,1.4,1.8c0.1,0.8-0.4,1.5-1.2,1.6C12.3,20,12.2,20,12.1,20L12.1,20z M21.9,12.7c-5,0-5,5-5,5c-0.2,2.5,1.7,4.7,4.2,4.9
	c0.3,0,0.5,0,0.8,0c0,0,4.4,0.2,4.4-3.4H24c0,0,0.1,1.4-2,1.4c-1.2,0.1-2.2-0.8-2.3-1.9c0-0.1,0-0.2,0-0.3h6.7
	C26.4,18.3,27.1,12.7,21.9,12.7L21.9,12.7L21.9,12.7z M19.7,16.5c0.2-1.1,1.1-2,2.3-2c1.1,0,2,0.8,2,1.8c0,0.1,0,0.1,0,0.2
	C23.9,16.5,19.7,16.5,19.7,16.5z M19.1,10.1h5.3v1.6h-5.3L19.1,10.1L19.1,10.1z"/>
</svg>
