<?xml version="1.0" encoding="utf-8"?>
<!-- Generator: Adobe Illustrator 16.0.0, SVG Export Plug-In . SVG Version: 6.00 Build 0)  -->
<!DOCTYPE svg PUBLIC "-//W3C//DTD SVG 1.1//EN" "http://www.w3.org/Graphics/SVG/1.1/DTD/svg11.dtd">
<svg version="1.1" id="Layer_1" xmlns="http://www.w3.org/2000/svg" xmlns:xlink="http://www.w3.org/1999/xlink" x="0px" y="0px"
	 width="100px" height="100px" viewBox="0 0 100 100" enable-background="new 0 0 100 100" xml:space="preserve">
<path fill="#FFFFFF" d="M100,25v18.75c-31.25,16.669-68.75,16.669-100,0V25H100z M59.375,62.049v6.701c0,3.455-2.795,6.25-6.25,6.25
	h-6.25c-3.452,0-6.25-2.795-6.25-6.25v-6.701c-11.719-0.996-23.318-3.779-34.375-8.46V93.75c0,3.455,2.798,6.25,6.25,6.25h75
	c3.455,0,6.25-2.795,6.25-6.25V53.589C82.69,58.271,71.094,61.054,59.375,62.049z M37.5,18.75V12.5c0-3.442,2.805-6.25,6.25-6.25
	h12.5c3.442,0,6.25,2.808,6.25,6.25v6.25h6.25V12.5c0-6.903-5.597-12.5-12.5-12.5h-12.5c-6.903,0-12.5,5.597-12.5,12.5v6.25H37.5z"
	/>
</svg>
