<?xml version="1.0" encoding="utf-8"?>
<!-- Generator: Adobe Illustrator 21.1.0, SVG Export Plug-In . SVG Version: 6.00 Build 0)  -->
<svg version="1.1" id="Layer_1" xmlns="http://www.w3.org/2000/svg" xmlns:xlink="http://www.w3.org/1999/xlink" x="0px" y="0px"
	 viewBox="0 0 32 32" style="enable-background:new 0 0 32 32;" xml:space="preserve">
<style type="text/css">
	.st0{fill:#1E1E23;}
</style>
<title>Artboard 1</title>
<path class="st0" d="M31.3,5.1c-0.4-0.2-0.9-0.2-1.3,0.1l-14,9.3L2,5.1C1.4,4.7,0.6,4.9,0.2,5.5C0.1,5.7,0,6,0,6.2v19.6
	c0,0.7,0.6,1.3,1.3,1.3c0.3,0,0.5-0.1,0.7-0.2l14-9.3l0,0l2.4-1.6l0,0l11-7.4v14.7l-8.7-5.8l-2.4,1.6L30,26.9
	c0.6,0.4,1.4,0.2,1.8-0.4c0.1-0.2,0.2-0.5,0.2-0.7V6.2C32,5.7,31.7,5.3,31.3,5.1z M2.6,23.4V8.7l11,7.4L2.6,23.4z"/>
</svg>
