<?xml version="1.0" standalone="no"?>
<!DOCTYPE svg PUBLIC "-//W3C//DTD SVG 20010904//EN"
 "http://www.w3.org/TR/2001/REC-SVG-20010904/DTD/svg10.dtd">
<svg version="1.0" xmlns="http://www.w3.org/2000/svg"
 width="260.000000pt" height="260.000000pt" viewBox="0 0 260.000000 260.000000"
 preserveAspectRatio="xMidYMid meet">
<metadata>
Created by potrace 1.11, written by Peter Selinger 2001-2013
</metadata>
<g transform="translate(0.000000,260.000000) scale(0.100000,-0.100000)"
fill="#000000" stroke="none">
<path d="M124 2149 c-11 -6 -28 -23 -37 -39 -16 -26 -17 -97 -17 -804 0 -580
3 -782 12 -801 14 -31 55 -55 93 -55 26 0 84 37 750 485 165 111 546 367 847
569 l548 367 0 -566 0 -566 -329 221 c-181 121 -332 220 -335 220 -4 0 -45
-26 -91 -57 -69 -45 -83 -59 -73 -69 7 -7 212 -145 455 -308 282 -189 451
-296 467 -296 42 0 74 18 91 49 22 44 23 1566 0 1610 -16 31 -34 42 -80 48
-36 5 -37 4 -660 -414 -255 -172 -467 -313 -470 -313 -3 0 -250 164 -550 365
-558 374 -568 379 -621 354z m979 -838 c4 -5 -181 -135 -413 -290 l-420 -282
0 566 0 566 413 -277 c226 -152 416 -279 420 -283z"/>
</g>
</svg>
