<svg xmlns="http://www.w3.org/2000/svg" viewBox="0 0 20.83 13.2"><defs><style>.a{fill:#fff}</style></defs><title>social-behance-inverted</title><path class="a" d="M8.4 5.9a2.27 2.27 0 0 0 2-2.5C10.4 1.1 8.8 0 6.8 0H0v12.9h6.7s4.1.1 4.1-3.8c0 0 .2-3.2-2.4-3.2zM3 2.3h3.8s.9 0 .9 1.3-.5 1.5-1.1 1.5H3V2.3zm3.5 8.3H3V7.2h3.8A1.53 1.53 0 0 1 8.2 9 1.38 1.38 0 0 1 7 10.6h-.5zm9.8-7.3c-5 0-5 5-5 5a4.58 4.58 0 0 0 4.2 4.9h.8s4.4.2 4.4-3.4h-2.3s.1 1.4-2 1.4a2.13 2.13 0 0 1-2.3-1.9V9h6.7c0-.1.7-5.7-4.5-5.7zm-2.2 3.8a2.36 2.36 0 0 1 2.3-2 1.91 1.91 0 0 1 2 1.8v.2h-4.3zM13.5.7h5.3v1.6h-5.3V.7z"/></svg>