<svg id="Layer_1" xmlns="http://www.w3.org/2000/svg" viewBox="0 0 32 32"><style>.st0{fill:#2a2b2f}</style><title>social-icons</title><path class="st0" d="M23.8 14.4c-.2-1-.6-2-1.2-2.9-2.5-3.7-7.4-4.6-11.1-2.2-.9.6-1.6 1.3-2.2 2.2-.6.9-1 1.8-1.2 2.9-.9 4.3 1.9 8.6 6.2 9.5 3.2.7 6.4-.7 8.3-3.4 1.2-1.8 1.7-4 1.2-6.1zm-1 1.5c-1.6-.3-3.2-.4-4.8-.2-.2-.5-.4-.9-.6-1.3 1.5-.5 2.8-1.5 3.8-2.7 1.1 1.2 1.6 2.7 1.6 4.2zm-2.3-5c-.9 1.2-2.2 2-3.6 2.5-.8-1.4-1.6-2.7-2.6-4 2.3-.6 4.5 0 6.2 1.5zm-6.1-1.5zm-1.3.4c.9 1.3 1.8 2.6 2.5 3.9-2.1.5-4.2.8-6.3.8.5-2 1.8-3.8 3.8-4.7zM9.2 16v-.2c2.4 0 4.7-.3 7-1l.6 1.2h-.3c-2.3.8-4.3 2.4-5.6 4.5-1.1-1.2-1.7-2.8-1.7-4.5zm6.8 6.8c-1.6 0-3.1-.6-4.4-1.6l.1.1c1.2-2.1 3.1-3.6 5.4-4.3.7 1.7 1.1 3.4 1.5 5.2-.8.5-1.7.6-2.6.6zm3.8-1.1c-.3-1.7-.7-3.3-1.3-4.9 1.4-.2 2.9-.1 4.3.3-.4 1.8-1.4 3.5-3 4.6z"/></svg>