<svg xmlns="http://www.w3.org/2000/svg" viewBox="0 0 16.06 16.11"><defs><style>.a{fill:#fff}</style></defs><title>social-dribbble-inverted</title><path class="a" d="M15.87 6.43a8.13 8.13 0 0 0-1.2-2.9 8 8 0 0 0-11.1-2.2 7.68 7.68 0 0 0-2.2 2.2 7.44 7.44 0 0 0-1.2 2.9 8 8 0 0 0 14.5 6.1 7.79 7.79 0 0 0 1.2-6.1zm-1 1.5a15.49 15.49 0 0 0-4.8-.2c-.2-.5-.4-.9-.6-1.3a8.58 8.58 0 0 0 3.8-2.7 6.14 6.14 0 0 1 1.6 4.2zm-2.3-5a7.61 7.61 0 0 1-3.6 2.5 34.19 34.19 0 0 0-2.6-4 6.62 6.62 0 0 1 6.2 1.5zm-6.1-1.5zm-1.3.4a42.5 42.5 0 0 1 2.5 3.9 27.19 27.19 0 0 1-6.3.8 6.9 6.9 0 0 1 3.8-4.7zm-3.9 6.2v-.2a23.7 23.7 0 0 0 7-1l.6 1.2h-.3a10.8 10.8 0 0 0-5.6 4.5 6.62 6.62 0 0 1-1.7-4.5zm6.8 6.8a7.2 7.2 0 0 1-4.4-1.6l.1.1a9.25 9.25 0 0 1 5.4-4.3 31 31 0 0 1 1.5 5.2 4.75 4.75 0 0 1-2.6.6zm3.8-1.1a27.2 27.2 0 0 0-1.3-4.9 10.46 10.46 0 0 1 4.3.3 7.51 7.51 0 0 1-3 4.6z"/></svg>