<svg id="Layer_1" xmlns="http://www.w3.org/2000/svg" viewBox="0 0 32 32"><style>.st0{fill:#2a2b2f}</style><title>social-icons</title><path class="st0" d="M14 15.3c1.2-.1 2.1-1.2 2-2.5 0-2.3-1.6-3.4-3.6-3.4H5.6v12.9h6.7s4.1.1 4.1-3.8c0 0 .2-3.2-2.4-3.2zm-5.4-3.6h3.8s.9 0 .9 1.3-.5 1.5-1.1 1.5H8.6v-2.8zm3.5 8.3H8.6v-3.4h3.8s1.4 0 1.4 1.8c.1.8-.4 1.5-1.2 1.6h-.5zm9.8-7.3c-5 0-5 5-5 5-.2 2.5 1.7 4.7 4.2 4.9h.8s4.4.2 4.4-3.4H24s.1 1.4-2 1.4c-1.2.1-2.2-.8-2.3-1.9v-.3h6.7c0-.1.7-5.7-4.5-5.7zm-2.2 3.8c.2-1.1 1.1-2 2.3-2 1.1 0 2 .8 2 1.8v.2h-4.3zm-.6-6.4h5.3v1.6h-5.3v-1.6z"/></svg>